<?xml version="1.0" encoding="UTF-8" standalone="no"?>
<!DOCTYPE svg PUBLIC "-//W3C//DTD SVG 1.1//EN" "http://www.w3.org/Graphics/SVG/1.1/DTD/svg11.dtd">
<svg version="1.1" xmlns="http://www.w3.org/2000/svg" xmlns:xlink="http://www.w3.org/1999/xlink" preserveAspectRatio="xMidYMid meet" viewBox="0 0 640 640" width="640" height="640"><defs><path d="M35.52 25.86C35.45 25.86 35.38 25.9 35.37 25.94C35.34 26.02 35.22 26.16 34.96 26.42C34.87 26.5 34.69 26.68 34.57 26.8C34.44 26.93 34.32 27.03 34.3 27.03C34.28 27.03 34.21 27.08 34.15 27.15C33.97 27.34 33.57 27.63 33.34 27.74C33.27 27.77 33.2 27.82 33.2 27.85C33.2 27.87 33.12 27.93 33.01 27.97C32.91 28.02 32.81 28.08 32.8 28.1C32.78 28.13 32.69 28.19 32.59 28.23C32.23 28.41 32.06 28.5 32 28.56C31.96 28.59 31.85 28.64 31.76 28.67C31.66 28.69 31.55 28.75 31.52 28.78C31.48 28.82 31.35 28.87 31.24 28.9C31.13 28.94 30.99 29 30.93 29.05C30.87 29.1 30.78 29.14 30.73 29.14C30.67 29.14 30.54 29.19 30.44 29.24C30.33 29.3 30.14 29.37 30.02 29.39C29.9 29.42 29.75 29.47 29.7 29.5C29.65 29.54 29.53 29.58 29.43 29.59C29.34 29.61 29.19 29.66 29.1 29.71C29.01 29.75 28.78 29.82 28.6 29.85C28.41 29.89 28.2 29.94 28.13 29.98C28.06 30.01 27.86 30.06 27.69 30.09C27.51 30.11 27.26 30.17 27.13 30.22C27 30.26 26.69 30.32 26.44 30.35C26.19 30.37 25.96 30.41 25.92 30.43C25.82 30.49 25.26 30.55 24.67 30.58C24.38 30.6 23.99 30.64 23.81 30.68C23.31 30.79 20.27 30.79 19.79 30.68C19.58 30.63 19.28 30.6 18.93 30.6C18.28 30.6 17.84 30.55 17.74 30.46C17.68 30.4 17.56 30.39 17.24 30.39C16.75 30.39 16.49 30.34 16.43 30.24C16.4 30.19 16.31 30.17 15.97 30.17C15.94 30.17 15.79 30.17 15.54 30.17C15.58 30.27 15.6 30.32 15.6 30.33C15.64 30.42 15.72 30.56 15.79 30.65C15.85 30.73 15.98 30.92 16.08 31.08C16.17 31.23 16.32 31.44 16.41 31.54C16.5 31.64 16.57 31.74 16.57 31.76C16.57 31.81 18.08 33.31 18.19 33.37C18.24 33.4 18.37 33.5 18.48 33.61C18.6 33.71 18.72 33.79 18.75 33.79C18.78 33.79 18.83 33.82 18.86 33.86C18.89 33.9 19.02 34.01 19.15 34.09C20.22 34.8 20.99 35.24 21.49 35.41C21.66 35.47 21.84 35.55 21.9 35.59C22.04 35.69 23.84 36.29 23.99 36.29C24.05 36.29 24.19 36.32 24.29 36.36C24.68 36.5 26.31 36.62 26.31 36.51C26.31 36.42 26.61 36.34 27.06 36.31C27.38 36.29 27.53 36.26 27.54 36.22C27.58 36.14 27.84 36.08 28.14 36.08C28.34 36.08 28.41 36.06 28.49 35.98C28.57 35.91 28.67 35.88 28.89 35.86C29.13 35.84 29.22 35.81 29.32 35.72C29.43 35.63 29.51 35.6 29.65 35.6C29.76 35.6 29.85 35.58 29.87 35.54C29.93 35.45 30.08 35.39 30.25 35.39C30.35 35.39 30.43 35.35 30.49 35.29C30.55 35.24 30.68 35.18 30.79 35.16C30.9 35.14 31.01 35.09 31.05 35.04C31.08 35 31.18 34.94 31.26 34.93C31.35 34.91 31.46 34.86 31.52 34.8C31.58 34.75 31.7 34.69 31.78 34.67C31.86 34.66 31.96 34.61 31.99 34.56C32.02 34.52 32.07 34.48 32.1 34.48C32.13 34.48 32.23 34.42 32.32 34.35C32.41 34.28 32.52 34.22 32.56 34.22C32.61 34.22 32.66 34.19 32.67 34.16C32.68 34.12 32.77 34.05 32.85 34.01C32.94 33.97 33.05 33.89 33.09 33.84C33.14 33.79 33.2 33.75 33.23 33.75C33.26 33.75 33.32 33.7 33.36 33.64C33.4 33.58 33.45 33.53 33.47 33.53C33.52 33.53 33.54 33.51 34.04 33.01C34.44 32.62 34.58 32.46 34.58 32.41C34.58 32.39 34.62 32.36 34.67 32.35C34.71 32.33 34.75 32.29 34.75 32.25C34.75 32.21 34.81 32.11 34.88 32.02C34.94 31.94 35.01 31.83 35.03 31.78C35.05 31.72 35.1 31.66 35.14 31.64C35.19 31.61 35.23 31.53 35.25 31.41C35.26 31.3 35.31 31.16 35.36 31.1C35.42 31.03 35.47 30.86 35.51 30.64C35.54 30.44 35.59 30.18 35.61 30.07C35.64 29.92 35.66 29.17 35.65 27.85C35.65 27.71 35.64 27.04 35.64 25.84L35.52 25.86" id="j92ZPO6HGW"></path><path d="M18.84 6.16C18.75 6.18 18.73 6.2 18.73 6.28C18.73 6.29 18.73 6.33 18.73 6.39L17.93 6.39L17.13 6.39C17.1 6.45 17.09 6.49 17.09 6.5C17.05 6.6 17.04 6.6 16.61 6.6C16.58 6.6 16.44 6.6 16.18 6.6L16.13 6.73L16.08 6.86L15.64 6.86L15.19 6.86C15.19 6.93 15.19 6.96 15.19 6.97C15.19 7.08 15.19 7.08 14.85 7.08C14.36 7.08 14.24 7.11 14.24 7.24C14.24 7.33 14.23 7.34 14.01 7.34C13.78 7.34 13.77 7.34 13.77 7.45C13.77 7.55 13.76 7.55 13.44 7.55C13.12 7.55 13.12 7.55 13.07 7.68C13.02 7.8 13 7.81 12.81 7.81C12.63 7.81 12.61 7.82 12.58 7.92C12.56 8.02 12.53 8.03 12.34 8.03C12.14 8.03 12.13 8.03 12.13 8.16C12.13 8.28 12.13 8.29 11.9 8.29C11.67 8.29 11.66 8.29 11.66 8.39C11.66 8.49 11.65 8.5 11.42 8.5C11.19 8.5 11.19 8.5 11.19 8.63C11.19 8.75 11.18 8.76 10.96 8.77C10.76 8.78 10.73 8.79 10.72 8.88C10.71 8.94 10.67 8.97 10.59 8.98C10.51 8.99 10.47 9.02 10.46 9.09C10.45 9.17 10.41 9.19 10.24 9.22C10.07 9.24 10.02 9.26 10.01 9.34C10 9.4 9.96 9.43 9.88 9.44C9.79 9.45 9.76 9.48 9.76 9.56C9.76 9.63 9.74 9.66 9.69 9.66C9.59 9.66 9.5 9.75 9.5 9.84C9.5 9.9 9.47 9.92 9.4 9.92C9.31 9.92 9.29 9.94 9.29 10.03C9.29 10.12 9.27 10.14 9.19 10.14C9.1 10.14 9.07 10.17 9.05 10.27C9.03 10.37 9 10.4 8.92 10.4C8.84 10.4 8.82 10.42 8.82 10.5C8.82 10.59 8.79 10.61 8.71 10.61C8.62 10.61 8.6 10.63 8.6 10.74C8.6 10.86 8.59 10.87 8.47 10.87C8.36 10.87 8.34 10.89 8.34 10.98C8.34 11.05 8.31 11.08 8.24 11.09C8.16 11.11 8.15 11.14 8.13 11.33C8.12 11.55 8.12 11.56 7.99 11.56C7.88 11.56 7.87 11.57 7.87 11.69C7.87 11.8 7.85 11.82 7.76 11.82C7.66 11.82 7.65 11.83 7.65 12.06C7.65 12.28 7.65 12.29 7.55 12.29C7.43 12.29 7.4 12.38 7.39 12.73C7.39 12.97 7.39 12.98 7.29 12.98C7.28 12.98 7.24 12.98 7.18 12.98L7.18 22.03L7.18 31.08C7.24 31.09 7.28 31.1 7.28 31.1C7.38 31.13 7.39 31.15 7.4 31.46C7.41 31.78 7.42 31.79 7.53 31.8C7.65 31.82 7.65 31.83 7.65 32.05C7.65 32.27 7.66 32.28 7.76 32.28C7.85 32.28 7.86 32.3 7.88 32.51C7.89 32.72 7.9 32.74 8.01 32.75C8.12 32.76 8.13 32.78 8.13 32.97C8.13 33.16 8.14 33.18 8.23 33.21C8.31 33.23 8.34 33.26 8.34 33.34C8.34 33.43 8.36 33.45 8.47 33.45C8.57 33.45 8.6 33.47 8.61 33.57C8.62 33.65 8.65 33.69 8.72 33.7C8.79 33.71 8.82 33.74 8.82 33.82C8.82 33.9 8.84 33.92 8.92 33.92C9.01 33.92 9.04 33.95 9.06 34.05C9.08 34.15 9.11 34.18 9.19 34.18C9.27 34.18 9.29 34.2 9.29 34.29C9.29 34.37 9.31 34.4 9.39 34.4C9.46 34.4 9.5 34.43 9.53 34.52C9.57 34.61 9.61 34.65 9.67 34.65C9.73 34.65 9.76 34.69 9.77 34.75C9.78 34.84 9.81 34.85 10.01 34.86C10.23 34.87 10.24 34.88 10.24 35C10.24 35.11 10.25 35.13 10.34 35.13C10.42 35.13 10.45 35.15 10.46 35.22C10.47 35.31 10.5 35.32 10.7 35.33C10.91 35.35 10.93 35.36 10.93 35.45C10.93 35.54 10.95 35.56 11.05 35.56C11.16 35.56 11.18 35.58 11.19 35.68C11.21 35.79 11.22 35.8 11.43 35.81C11.64 35.82 11.66 35.83 11.66 35.93C11.66 36.03 11.67 36.03 11.89 36.03C12.12 36.03 12.13 36.04 12.14 36.15C12.15 36.26 12.17 36.27 12.38 36.28C12.59 36.29 12.61 36.3 12.61 36.4C12.61 36.5 12.61 36.51 12.95 36.51C12.97 36.51 13.09 36.51 13.3 36.51C13.3 36.58 13.3 36.63 13.3 36.64C13.3 36.76 13.3 36.77 13.53 36.77C13.76 36.77 13.77 36.77 13.77 36.87C13.77 36.98 13.78 36.98 14.12 36.98C14.42 36.98 14.46 36.99 14.46 37.06C14.46 37.21 14.55 37.24 14.99 37.24C15.41 37.24 15.41 37.24 15.41 37.35C15.41 37.35 15.41 37.39 15.41 37.45L15.88 37.45L16.35 37.45L16.36 37.57L16.38 37.69C16.72 37.7 16.91 37.7 16.95 37.7C17.5 37.72 17.51 37.72 17.53 37.81C17.54 37.91 17.55 37.91 18.37 37.92C18.43 37.92 18.7 37.92 19.2 37.93C19.2 37.99 19.2 38.03 19.2 38.03C19.2 38.19 19.16 38.19 22.02 38.19C24.88 38.19 24.84 38.19 24.84 37.99C24.84 37.94 24.99 37.93 25.65 37.92C26.45 37.91 26.46 37.91 26.47 37.81C26.49 37.72 26.5 37.72 27.05 37.7C27.09 37.7 27.28 37.7 27.62 37.69L27.64 37.57L27.65 37.45L28.12 37.45L28.59 37.45C28.59 37.39 28.59 37.35 28.59 37.35C28.59 37.24 28.59 37.24 29 37.24C29.48 37.24 29.54 37.22 29.54 37.08C29.54 36.98 29.55 36.98 29.88 36.98C30.22 36.98 30.23 36.98 30.23 36.87C30.23 36.77 30.24 36.77 30.47 36.77C30.7 36.77 30.7 36.76 30.7 36.64C30.7 36.63 30.7 36.58 30.7 36.51C30.91 36.51 31.02 36.51 31.05 36.51C31.38 36.51 31.39 36.5 31.42 36.4C31.44 36.3 31.47 36.29 31.64 36.29C31.81 36.29 31.84 36.28 31.88 36.16C31.92 36.04 31.95 36.03 32.13 36.03C32.32 36.03 32.34 36.02 32.34 35.93C32.34 35.83 32.36 35.82 32.57 35.81C32.78 35.8 32.79 35.79 32.81 35.68C32.82 35.58 32.84 35.56 32.95 35.56C33.05 35.56 33.07 35.54 33.07 35.45C33.07 35.36 33.09 35.35 33.3 35.33C33.5 35.32 33.53 35.31 33.54 35.22C33.55 35.15 33.58 35.13 33.66 35.13C33.74 35.13 33.76 35.11 33.76 35C33.76 34.88 33.77 34.87 33.99 34.86C34.19 34.85 34.22 34.84 34.23 34.75C34.24 34.69 34.27 34.65 34.32 34.65C34.41 34.65 34.49 34.57 34.49 34.47C34.49 34.42 34.53 34.4 34.6 34.4C34.69 34.4 34.71 34.37 34.71 34.29C34.71 34.21 34.74 34.18 34.83 34.17C34.92 34.16 34.95 34.13 34.96 34.04C34.97 33.95 35 33.92 35.08 33.92C35.16 33.92 35.18 33.9 35.18 33.82C35.18 33.74 35.21 33.71 35.28 33.7C35.35 33.69 35.38 33.65 35.39 33.57C35.4 33.47 35.43 33.45 35.53 33.45C35.64 33.45 35.66 33.43 35.66 33.34C35.66 33.26 35.69 33.23 35.77 33.21C35.86 33.18 35.87 33.16 35.87 32.97C35.87 32.76 35.88 32.76 36 32.76C36.13 32.76 36.13 32.76 36.13 32.52C36.13 32.3 36.14 32.28 36.24 32.28C36.34 32.28 36.35 32.27 36.35 32.05C36.35 31.83 36.35 31.82 36.47 31.8C36.58 31.79 36.58 31.78 36.6 31.46C36.61 31.15 36.62 31.13 36.7 31.11C36.71 31.11 36.74 31.11 36.8 31.1L36.81 22.04L36.82 12.98C36.76 12.98 36.72 12.98 36.71 12.98C36.61 12.98 36.61 12.97 36.61 12.73C36.6 12.38 36.57 12.29 36.45 12.29C36.35 12.29 36.35 12.28 36.35 12.06C36.35 11.83 36.34 11.82 36.24 11.82C36.15 11.82 36.13 11.8 36.13 11.69C36.13 11.57 36.12 11.56 36.01 11.56C35.88 11.56 35.88 11.55 35.87 11.33C35.85 11.14 35.84 11.11 35.76 11.09C35.69 11.08 35.66 11.05 35.66 10.98C35.66 10.89 35.64 10.87 35.53 10.87C35.41 10.87 35.4 10.86 35.4 10.74C35.4 10.63 35.38 10.61 35.29 10.61C35.21 10.61 35.18 10.59 35.18 10.5C35.18 10.42 35.16 10.4 35.08 10.4C35 10.4 34.97 10.37 34.96 10.28C34.95 10.18 34.92 10.16 34.83 10.15C34.74 10.14 34.71 10.11 34.71 10.03C34.71 9.94 34.69 9.92 34.6 9.92C34.52 9.92 34.49 9.9 34.49 9.81C34.49 9.73 34.47 9.7 34.37 9.68C34.27 9.66 34.24 9.63 34.24 9.55C34.24 9.48 34.21 9.45 34.12 9.44C34.04 9.43 34 9.4 33.99 9.34C33.98 9.26 33.93 9.24 33.76 9.22C33.59 9.19 33.55 9.17 33.54 9.09C33.53 9.02 33.49 8.99 33.41 8.98C33.33 8.97 33.29 8.94 33.28 8.88C33.27 8.79 33.24 8.78 33.04 8.77C32.82 8.76 32.81 8.75 32.81 8.63C32.81 8.5 32.81 8.5 32.58 8.5C32.35 8.5 32.34 8.49 32.34 8.39C32.34 8.29 32.33 8.29 32.13 8.29C31.93 8.29 31.91 8.28 31.9 8.17C31.89 8.06 31.87 8.05 31.66 8.04C31.47 8.02 31.44 8.01 31.43 7.93C31.42 7.85 31.38 7.83 31.2 7.82C31 7.81 30.97 7.8 30.93 7.68C30.88 7.55 30.88 7.55 30.56 7.55C30.24 7.55 30.23 7.55 30.23 7.45C30.23 7.34 30.22 7.34 29.99 7.34C29.77 7.34 29.76 7.33 29.76 7.24C29.76 7.11 29.64 7.08 29.15 7.08C28.81 7.08 28.81 7.08 28.81 6.97C28.81 6.96 28.81 6.93 28.81 6.86C28.54 6.86 28.39 6.86 28.36 6.86C27.95 6.86 27.9 6.86 27.9 6.79C27.9 6.64 27.81 6.6 27.38 6.6C26.96 6.6 26.95 6.6 26.91 6.5C26.91 6.49 26.9 6.45 26.87 6.39L26.1 6.39L25.33 6.39C25.31 6.33 25.3 6.29 25.3 6.29C25.28 6.21 25.24 6.18 25.11 6.16C24.94 6.13 19.04 6.13 18.84 6.16M22.64 7.55C22.92 7.58 23.59 7.61 24.14 7.64C24.85 7.67 25.22 7.71 25.45 7.76C25.63 7.81 25.94 7.86 26.16 7.88C26.37 7.89 26.65 7.94 26.78 7.98C26.91 8.03 27.2 8.09 27.42 8.13C27.64 8.16 27.85 8.22 27.88 8.24C27.91 8.27 28.09 8.31 28.28 8.35C28.47 8.38 28.68 8.44 28.73 8.47C28.78 8.51 28.91 8.55 29 8.57C29.25 8.61 29.45 8.67 29.45 8.71C29.45 8.73 29.59 8.78 29.75 8.82C29.92 8.86 30.08 8.92 30.1 8.96C30.13 8.99 30.22 9.03 30.31 9.04C30.4 9.06 30.55 9.12 30.66 9.17C30.77 9.22 30.99 9.33 31.16 9.4C31.32 9.48 31.51 9.57 31.57 9.6C31.62 9.64 31.75 9.7 31.85 9.75C31.95 9.79 32.04 9.85 32.06 9.87C32.07 9.9 32.17 9.96 32.27 10C32.37 10.04 32.47 10.11 32.51 10.15C32.54 10.19 32.59 10.22 32.62 10.22C32.65 10.22 32.72 10.26 32.78 10.31C32.83 10.36 32.99 10.47 33.12 10.56C33.61 10.92 34.21 11.47 34.54 11.86C34.6 11.93 34.69 12.05 34.75 12.12C34.95 12.35 35.05 12.49 35.11 12.62C35.14 12.69 35.21 12.81 35.26 12.89C35.31 12.97 35.36 13.07 35.36 13.11C35.36 13.15 35.4 13.24 35.46 13.32C35.52 13.4 35.58 13.55 35.59 13.66C35.61 13.77 35.66 13.98 35.7 14.11C35.77 14.3 35.79 14.48 35.79 14.83C35.79 15.19 35.77 15.37 35.7 15.56C35.66 15.69 35.61 15.9 35.59 16.01C35.58 16.12 35.53 16.26 35.49 16.31C35.45 16.36 35.39 16.48 35.36 16.58C35.33 16.67 35.27 16.79 35.23 16.84C35.19 16.89 35.14 16.97 35.12 17.03C35.1 17.08 35 17.25 34.89 17.39C34.78 17.53 34.66 17.68 34.62 17.73C34.36 18.11 33.16 19.16 32.88 19.27C32.82 19.29 32.77 19.33 32.77 19.35C32.77 19.39 32.2 19.75 32.14 19.75C32.13 19.75 32.06 19.79 31.99 19.85C31.92 19.91 31.82 19.96 31.78 19.96C31.74 19.96 31.65 20.01 31.58 20.06C31.51 20.12 31.38 20.19 31.3 20.21C31.21 20.24 31.1 20.29 31.07 20.32C31.03 20.36 30.95 20.4 30.88 20.42C30.82 20.43 30.66 20.49 30.53 20.56C30.4 20.63 30.22 20.7 30.13 20.72C30.05 20.73 29.95 20.77 29.93 20.8C29.9 20.84 29.77 20.88 29.63 20.91C29.5 20.94 29.33 21 29.26 21.04C29.19 21.08 29.04 21.13 28.93 21.14C28.82 21.16 28.67 21.21 28.58 21.25C28.49 21.3 28.29 21.36 28.13 21.38C27.97 21.41 27.75 21.46 27.64 21.51C27.54 21.55 27.3 21.6 27.13 21.62C26.95 21.64 26.7 21.69 26.57 21.73C26.44 21.77 26.11 21.83 25.83 21.86C25.56 21.88 25.23 21.93 25.11 21.97C24.42 22.16 19.57 22.16 18.92 21.97C18.8 21.93 18.47 21.88 18.19 21.86C17.9 21.83 17.57 21.77 17.45 21.73C17.32 21.69 17.07 21.64 16.89 21.62C16.7 21.6 16.46 21.55 16.36 21.51C16.25 21.46 16.03 21.4 15.87 21.38C15.7 21.36 15.51 21.3 15.43 21.26C15.36 21.21 15.21 21.16 15.11 21.15C15 21.13 14.84 21.08 14.75 21.03C14.65 20.99 14.48 20.93 14.36 20.91C14.24 20.88 14.11 20.84 14.08 20.81C14.04 20.77 13.9 20.72 13.77 20.68C13.63 20.64 13.5 20.58 13.47 20.54C13.44 20.51 13.35 20.47 13.26 20.45C13.17 20.44 13.03 20.38 12.95 20.33C12.87 20.27 12.74 20.22 12.67 20.2C12.59 20.18 12.5 20.14 12.46 20.09C12.41 20.04 12.31 19.99 12.22 19.96C12.14 19.93 12.05 19.88 12.02 19.85C12 19.82 11.91 19.77 11.83 19.73C11.61 19.63 11.37 19.47 11.26 19.37C11.2 19.31 11.15 19.27 11.13 19.27C11.09 19.27 10.66 18.97 10.55 18.87C10.5 18.82 10.4 18.73 10.32 18.67C10.1 18.49 9.81 18.2 9.81 18.15C9.81 18.13 9.78 18.11 9.74 18.11C9.71 18.11 9.64 18.06 9.6 17.99C9.56 17.93 9.49 17.83 9.44 17.78C9.27 17.59 9.16 17.45 9.09 17.33C9.06 17.26 9.01 17.2 8.99 17.2C8.97 17.2 8.93 17.14 8.9 17.06C8.88 16.98 8.83 16.89 8.79 16.86C8.76 16.83 8.71 16.73 8.68 16.63C8.65 16.53 8.59 16.41 8.55 16.36C8.51 16.31 8.45 16.16 8.43 16.02C8.4 15.88 8.35 15.67 8.31 15.57C8.21 15.3 8.21 14.32 8.3 14.1C8.34 14.02 8.4 13.82 8.43 13.66C8.46 13.49 8.51 13.35 8.54 13.34C8.57 13.33 8.63 13.21 8.66 13.08C8.7 12.95 8.76 12.84 8.79 12.83C8.82 12.81 8.86 12.76 8.88 12.7C8.89 12.64 9 12.47 9.11 12.33C9.22 12.19 9.34 12.03 9.37 11.98C9.53 11.74 10.5 10.84 10.88 10.57C11.01 10.48 11.17 10.36 11.24 10.31C11.3 10.26 11.37 10.22 11.39 10.22C11.41 10.22 11.46 10.19 11.51 10.14C11.55 10.09 11.65 10.03 11.74 10C11.83 9.98 11.92 9.92 11.95 9.88C11.98 9.83 12.08 9.78 12.17 9.75C12.25 9.72 12.36 9.67 12.39 9.64C12.43 9.61 12.53 9.56 12.61 9.53C12.69 9.5 12.79 9.45 12.82 9.42C12.86 9.39 12.97 9.34 13.06 9.3C13.16 9.27 13.31 9.2 13.4 9.15C13.5 9.1 13.61 9.06 13.64 9.06C13.68 9.06 13.8 9.02 13.9 8.96C14.01 8.91 14.19 8.84 14.31 8.81C14.43 8.78 14.55 8.73 14.59 8.7C14.62 8.66 14.77 8.62 14.91 8.59C15.05 8.56 15.23 8.5 15.32 8.46C15.4 8.41 15.59 8.37 15.73 8.35C15.87 8.33 16.06 8.29 16.14 8.24C16.22 8.2 16.45 8.14 16.64 8.12C16.84 8.09 17.1 8.03 17.22 7.99C17.35 7.94 17.64 7.89 17.86 7.88C18.08 7.86 18.41 7.81 18.59 7.76C18.82 7.71 19.22 7.67 19.95 7.64C20.52 7.61 21.14 7.57 21.33 7.56C21.84 7.51 22.08 7.5 22.64 7.55M35.75 18.01C35.83 18.22 35.78 22.82 35.69 23.09C35.65 23.2 35.6 23.42 35.57 23.56C35.54 23.7 35.49 23.85 35.46 23.88C35.43 23.92 35.37 24.03 35.34 24.14C35.3 24.24 35.23 24.37 35.19 24.43C35.14 24.49 35.1 24.56 35.1 24.58C35.1 24.77 34.19 25.79 33.55 26.32C33.39 26.45 33.22 26.59 33.16 26.64C33.1 26.69 32.95 26.79 32.84 26.87C32.72 26.94 32.52 27.06 32.4 27.14C32.28 27.22 32.16 27.29 32.14 27.29C32.11 27.29 32.06 27.32 32.02 27.37C31.98 27.42 31.89 27.47 31.82 27.48C31.75 27.5 31.65 27.54 31.6 27.58C31.54 27.63 31.43 27.68 31.34 27.71C31.26 27.74 31.16 27.79 31.13 27.83C31.1 27.86 30.98 27.92 30.85 27.96C30.72 27.99 30.61 28.04 30.59 28.06C30.58 28.09 30.46 28.14 30.32 28.17C30.19 28.21 30.06 28.26 30.03 28.28C29.97 28.33 29.43 28.52 29.06 28.62C28.9 28.67 28.73 28.72 28.68 28.75C28.63 28.78 28.44 28.83 28.26 28.86C28.07 28.9 27.83 28.96 27.71 29.01C27.59 29.05 27.38 29.1 27.23 29.12C27.09 29.13 26.84 29.18 26.67 29.23C26.51 29.27 26.16 29.33 25.9 29.35C25.64 29.38 25.31 29.43 25.17 29.46C24.29 29.67 19.68 29.64 18.85 29.42C18.71 29.39 18.41 29.35 18.18 29.33C17.95 29.31 17.64 29.26 17.51 29.22C17.37 29.17 17.11 29.12 16.94 29.1C16.62 29.06 16.55 29.04 16.33 28.94C16.26 28.91 16.07 28.86 15.9 28.83C15.74 28.81 15.53 28.75 15.45 28.71C15.37 28.67 15.22 28.62 15.11 28.61C15.01 28.59 14.84 28.53 14.73 28.47C14.62 28.41 14.48 28.36 14.42 28.36C14.36 28.36 14.23 28.32 14.14 28.27C14.04 28.22 13.87 28.15 13.76 28.12C13.64 28.09 13.51 28.04 13.48 28C13.44 27.97 13.34 27.93 13.25 27.91C13.17 27.89 13.05 27.83 12.99 27.78C12.92 27.73 12.8 27.67 12.73 27.65C12.65 27.64 12.55 27.59 12.5 27.55C12.45 27.5 12.34 27.45 12.26 27.42C12.17 27.39 12.07 27.33 12.02 27.28C11.98 27.24 11.92 27.2 11.89 27.2C11.86 27.2 11.78 27.16 11.72 27.1C11.65 27.05 11.53 26.98 11.45 26.94C11.38 26.91 11.31 26.87 11.31 26.85C11.31 26.83 11.24 26.78 11.15 26.73C11.06 26.69 10.95 26.61 10.91 26.56C10.86 26.51 10.81 26.47 10.78 26.47C10.76 26.47 10.7 26.43 10.65 26.38C10.6 26.34 10.38 26.13 10.16 25.92C9.73 25.52 9.72 25.51 9.55 25.3C9.49 25.23 9.4 25.13 9.35 25.08C9.3 25.02 9.24 24.92 9.21 24.84C9.18 24.76 9.13 24.7 9.11 24.7C9.09 24.7 9.03 24.61 8.98 24.51C8.94 24.4 8.88 24.31 8.86 24.29C8.84 24.28 8.79 24.18 8.76 24.06C8.72 23.95 8.66 23.79 8.61 23.71C8.43 23.39 8.38 22.64 8.39 20.39C8.41 18 8.38 18.13 8.86 18.63C9.23 19.02 9.17 18.97 9.5 19.28C9.88 19.62 9.88 19.63 10.12 19.81C10.23 19.89 10.34 19.96 10.37 19.96C10.39 19.96 10.45 20.01 10.5 20.07C10.55 20.12 10.65 20.19 10.72 20.22C10.78 20.25 10.84 20.29 10.84 20.31C10.84 20.32 10.92 20.37 11.02 20.42C11.12 20.46 11.26 20.54 11.33 20.6C11.4 20.65 11.48 20.69 11.51 20.69C11.54 20.69 11.61 20.73 11.67 20.78C11.73 20.83 11.85 20.89 11.93 20.92C12 20.94 12.11 21 12.17 21.05C12.23 21.09 12.31 21.12 12.35 21.12C12.39 21.12 12.49 21.17 12.57 21.23C12.65 21.28 12.78 21.34 12.85 21.36C12.91 21.38 13.07 21.44 13.19 21.49C13.31 21.55 13.44 21.6 13.47 21.6C13.51 21.6 13.59 21.63 13.66 21.67C13.73 21.71 13.91 21.77 14.05 21.82C14.29 21.89 14.5 21.96 15.06 22.15C15.17 22.18 15.4 22.24 15.58 22.27C15.76 22.3 16 22.37 16.12 22.41C16.24 22.46 16.46 22.51 16.61 22.53C16.77 22.54 17.03 22.59 17.2 22.63C17.36 22.68 17.73 22.74 18.02 22.76C18.31 22.78 18.67 22.83 18.83 22.87C19.65 23.06 24.4 23.03 25.12 22.82C25.24 22.79 25.59 22.74 25.89 22.72C26.19 22.7 26.51 22.65 26.6 22.61C26.68 22.57 26.96 22.52 27.2 22.48C27.44 22.45 27.71 22.39 27.78 22.35C27.86 22.31 28.05 22.26 28.21 22.24C28.37 22.22 28.58 22.17 28.67 22.12C28.76 22.08 28.93 22.03 29.05 22.01C29.18 21.99 29.32 21.94 29.38 21.9C29.43 21.86 29.59 21.8 29.73 21.77C29.88 21.74 30.04 21.69 30.09 21.66C30.15 21.62 30.3 21.56 30.44 21.53C30.57 21.49 30.71 21.44 30.75 21.41C30.78 21.37 30.9 21.33 31 21.3C31.11 21.27 31.23 21.22 31.27 21.19C31.3 21.15 31.42 21.1 31.52 21.06C31.63 21.02 31.74 20.97 31.78 20.94C31.82 20.9 31.92 20.85 32 20.83C32.09 20.8 32.19 20.74 32.23 20.7C32.27 20.65 32.35 20.6 32.42 20.59C32.48 20.57 32.58 20.51 32.65 20.45C32.72 20.4 32.8 20.35 32.83 20.35C32.86 20.35 32.92 20.32 32.95 20.28C32.98 20.24 33.09 20.17 33.19 20.12C33.29 20.08 33.37 20.03 33.37 20.01C33.37 19.99 33.44 19.93 33.51 19.88C33.8 19.7 33.97 19.58 34.08 19.48C34.14 19.42 34.25 19.33 34.32 19.27C34.53 19.1 35.27 18.36 35.27 18.32C35.27 18.28 35.62 17.9 35.67 17.9C35.69 17.9 35.72 17.95 35.75 18.01M35.82 27.78C35.83 29.91 35.81 30.5 35.7 30.63C35.68 30.66 35.64 30.79 35.61 30.93C35.59 31.07 35.53 31.23 35.49 31.29C35.45 31.35 35.39 31.46 35.37 31.53C35.35 31.6 35.27 31.74 35.21 31.83C35.15 31.92 35.1 32.01 35.1 32.04C35.1 32.06 35.04 32.14 34.98 32.22C34.91 32.3 34.82 32.42 34.77 32.48C34.64 32.67 34.09 33.29 34.04 33.33C34.02 33.34 33.8 33.52 33.56 33.72C33.31 33.93 33.1 34.09 33.08 34.09C33.06 34.09 33 34.13 32.94 34.18C32.78 34.32 32.55 34.48 32.4 34.54C32.33 34.58 32.24 34.64 32.22 34.67C32.19 34.71 32.09 34.76 32 34.79C31.92 34.81 31.82 34.86 31.78 34.89C31.74 34.93 31.62 34.99 31.51 35.04C31.4 35.09 31.3 35.15 31.28 35.17C31.27 35.19 31.18 35.24 31.08 35.26C30.98 35.29 30.87 35.34 30.83 35.37C30.79 35.4 30.66 35.46 30.53 35.5C30.41 35.54 30.25 35.6 30.19 35.64C30.13 35.69 30 35.74 29.91 35.75C29.82 35.77 29.68 35.82 29.59 35.86C29.51 35.91 29.33 35.97 29.2 35.99C29.07 36.02 28.92 36.07 28.87 36.1C28.83 36.13 28.67 36.18 28.53 36.21C28.39 36.24 28.21 36.29 28.15 36.32C28.08 36.36 27.85 36.41 27.63 36.45C27.41 36.48 27.15 36.54 27.04 36.58C26.93 36.61 26.65 36.66 26.42 36.69C26.18 36.71 25.95 36.75 25.9 36.79C25.85 36.82 25.56 36.86 25.25 36.89C24.94 36.92 24.49 36.96 24.24 36.98C22.85 37.11 20.49 37.14 20.27 37.02C20.23 37 19.81 36.95 19.34 36.92C18.54 36.86 18.38 36.83 18.06 36.73C17.99 36.71 17.77 36.68 17.58 36.66C17.39 36.64 17.17 36.6 17.09 36.57C17.01 36.53 16.77 36.48 16.56 36.44C16.24 36.39 15.79 36.27 15.34 36.11C15.27 36.09 15.08 36.03 14.93 35.99C14.77 35.94 14.58 35.88 14.51 35.84C14.44 35.81 14.29 35.76 14.18 35.73C14.06 35.7 13.89 35.63 13.79 35.57C13.69 35.52 13.59 35.47 13.56 35.47C13.46 35.47 12.39 34.95 12.26 34.84C12.22 34.81 12.16 34.78 12.13 34.78C12.06 34.78 11.68 34.56 11.48 34.4C11.42 34.35 11.35 34.31 11.33 34.31C11.31 34.31 11.22 34.25 11.14 34.18C11.06 34.11 10.98 34.05 10.96 34.05C10.88 34.05 9.83 33.12 9.62 32.86C9.11 32.24 8.98 32.07 8.92 31.93C8.89 31.85 8.83 31.76 8.8 31.73C8.76 31.7 8.71 31.59 8.68 31.49C8.66 31.39 8.61 31.29 8.58 31.25C8.55 31.21 8.46 30.95 8.39 30.65C8.38 30.62 8.34 30.44 8.26 30.12C8.26 28.78 8.26 28.04 8.26 27.9C8.26 26.67 8.27 25.64 8.29 25.61C8.34 25.55 8.31 25.53 9.12 26.36C9.51 26.77 10.18 27.36 10.39 27.48C10.46 27.51 10.6 27.61 10.71 27.7C10.82 27.78 10.97 27.88 11.06 27.92C11.14 27.95 11.25 28.02 11.29 28.06C11.34 28.1 11.43 28.15 11.49 28.17C11.55 28.19 11.62 28.23 11.66 28.26C11.73 28.31 11.92 28.42 12.2 28.55C12.29 28.59 12.46 28.68 12.57 28.73C12.69 28.79 12.81 28.84 12.84 28.84C12.87 28.84 13.01 28.9 13.14 28.97C13.27 29.04 13.41 29.1 13.44 29.1C13.47 29.1 13.57 29.14 13.66 29.18C13.76 29.23 13.93 29.29 14.05 29.32C14.17 29.34 14.32 29.39 14.38 29.42C14.45 29.46 14.63 29.51 14.79 29.55C14.94 29.59 15.12 29.65 15.17 29.68C15.23 29.72 15.4 29.77 15.57 29.79C15.73 29.81 15.95 29.87 16.05 29.91C16.16 29.96 16.39 30.01 16.57 30.02C16.75 30.04 17 30.09 17.13 30.13C17.26 30.18 17.59 30.23 17.86 30.26C18.14 30.29 18.45 30.34 18.55 30.37C19.18 30.57 24.92 30.58 25.28 30.39C25.4 30.32 26.07 30.22 26.37 30.22C26.49 30.21 26.67 30.18 26.77 30.13C26.87 30.08 27.14 30.03 27.35 30C27.59 29.98 27.82 29.93 27.91 29.88C28 29.83 28.21 29.78 28.37 29.77C28.57 29.75 28.71 29.71 28.78 29.66C28.83 29.61 29 29.56 29.14 29.53C29.28 29.51 29.46 29.45 29.54 29.41C29.62 29.36 29.79 29.31 29.9 29.29C30.02 29.27 30.16 29.23 30.22 29.18C30.27 29.14 30.42 29.08 30.54 29.05C30.66 29.02 30.79 28.96 30.83 28.92C30.88 28.88 30.99 28.83 31.08 28.82C31.18 28.8 31.28 28.76 31.31 28.73C31.33 28.7 31.45 28.64 31.57 28.6C31.68 28.56 31.8 28.5 31.82 28.47C31.85 28.44 31.94 28.39 32.03 28.36C32.12 28.33 32.24 28.26 32.31 28.21C32.38 28.15 32.47 28.1 32.51 28.1C32.56 28.1 32.63 28.07 32.67 28.02C32.72 27.98 32.81 27.91 32.89 27.87C33.04 27.79 33.23 27.67 33.47 27.49C33.55 27.43 33.63 27.37 33.65 27.37C33.67 27.37 33.73 27.33 33.78 27.28C33.84 27.22 33.97 27.12 34.06 27.05C34.39 26.8 35.23 25.95 35.57 25.51C35.58 25.5 35.61 25.46 35.67 25.39C35.71 25.45 35.73 25.48 35.74 25.49C35.8 25.57 35.81 25.83 35.82 27.78" id="bVzWdd3Fv"></path><path d="M21.33 7.56C21.14 7.57 20.52 7.61 19.95 7.64C19.22 7.67 18.82 7.71 18.59 7.76C18.41 7.81 18.08 7.86 17.86 7.88C17.64 7.89 17.35 7.94 17.22 7.99C17.1 8.03 16.84 8.09 16.64 8.12C16.45 8.14 16.22 8.2 16.14 8.24C16.06 8.29 15.87 8.33 15.73 8.35C15.59 8.37 15.4 8.41 15.32 8.46C15.23 8.5 15.05 8.56 14.91 8.59C14.77 8.62 14.62 8.66 14.59 8.7C14.55 8.73 14.43 8.78 14.31 8.81C14.19 8.84 14.01 8.91 13.9 8.96C13.8 9.02 13.68 9.06 13.64 9.06C13.61 9.06 13.5 9.1 13.4 9.15C13.31 9.2 13.16 9.27 13.06 9.3C12.97 9.34 12.86 9.39 12.82 9.42C12.79 9.45 12.69 9.5 12.61 9.53C12.53 9.56 12.43 9.61 12.39 9.64C12.36 9.67 12.25 9.72 12.17 9.75C12.08 9.78 11.98 9.83 11.95 9.88C11.92 9.92 11.83 9.98 11.74 10C11.65 10.03 11.55 10.09 11.51 10.14C11.46 10.19 11.41 10.22 11.39 10.22C11.37 10.22 11.3 10.26 11.24 10.31C11.17 10.36 11.01 10.48 10.88 10.57C10.5 10.84 9.53 11.74 9.37 11.98C9.34 12.03 9.22 12.19 9.11 12.33C9 12.47 8.89 12.64 8.88 12.7C8.86 12.76 8.82 12.81 8.79 12.83C8.76 12.84 8.7 12.95 8.66 13.08C8.63 13.21 8.57 13.33 8.54 13.34C8.51 13.35 8.46 13.49 8.43 13.66C8.4 13.82 8.34 14.02 8.3 14.1C8.21 14.32 8.21 15.3 8.31 15.57C8.35 15.67 8.4 15.88 8.43 16.02C8.45 16.16 8.51 16.31 8.55 16.36C8.59 16.41 8.65 16.53 8.68 16.63C8.71 16.73 8.76 16.83 8.79 16.86C8.83 16.89 8.88 16.98 8.9 17.06C8.93 17.14 8.97 17.2 8.99 17.2C9.01 17.2 9.06 17.26 9.09 17.33C9.16 17.45 9.27 17.59 9.44 17.78C9.49 17.83 9.56 17.93 9.6 17.99C9.64 18.06 9.71 18.11 9.74 18.11C9.78 18.11 9.81 18.13 9.81 18.15C9.81 18.2 10.1 18.49 10.32 18.67C10.4 18.73 10.5 18.82 10.55 18.87C10.66 18.97 11.09 19.27 11.13 19.27C11.15 19.27 11.2 19.31 11.26 19.37C11.37 19.47 11.61 19.63 11.83 19.73C11.91 19.77 12 19.82 12.02 19.85C12.05 19.88 12.14 19.93 12.22 19.96C12.31 19.99 12.41 20.04 12.46 20.09C12.5 20.14 12.59 20.18 12.67 20.2C12.74 20.22 12.87 20.27 12.95 20.33C13.03 20.38 13.17 20.44 13.26 20.45C13.35 20.47 13.44 20.51 13.47 20.54C13.5 20.58 13.63 20.64 13.77 20.68C13.9 20.72 14.04 20.77 14.08 20.81C14.11 20.84 14.24 20.88 14.36 20.91C14.48 20.93 14.65 20.99 14.75 21.03C14.84 21.08 15 21.13 15.11 21.15C15.21 21.16 15.36 21.21 15.43 21.26C15.51 21.3 15.7 21.36 15.87 21.38C16.03 21.4 16.25 21.46 16.36 21.51C16.46 21.55 16.7 21.6 16.89 21.62C17.07 21.64 17.32 21.69 17.45 21.73C17.57 21.77 17.9 21.83 18.19 21.86C18.47 21.88 18.8 21.93 18.92 21.97C19.57 22.16 24.42 22.16 25.11 21.97C25.23 21.93 25.56 21.88 25.83 21.86C26.11 21.83 26.44 21.77 26.57 21.73C26.7 21.69 26.95 21.64 27.13 21.62C27.3 21.6 27.54 21.55 27.64 21.51C27.75 21.46 27.97 21.41 28.13 21.38C28.29 21.36 28.49 21.3 28.58 21.25C28.67 21.21 28.82 21.16 28.93 21.14C29.04 21.13 29.19 21.08 29.26 21.04C29.33 21 29.5 20.94 29.63 20.91C29.77 20.88 29.9 20.84 29.93 20.8C29.95 20.77 30.05 20.73 30.13 20.72C30.22 20.7 30.4 20.63 30.53 20.56C30.66 20.49 30.82 20.43 30.88 20.42C30.95 20.4 31.03 20.36 31.07 20.32C31.1 20.29 31.21 20.24 31.3 20.21C31.38 20.19 31.51 20.12 31.58 20.06C31.65 20.01 31.74 19.96 31.78 19.96C31.82 19.96 31.92 19.91 31.99 19.85C32.06 19.79 32.13 19.75 32.14 19.75C32.2 19.75 32.77 19.39 32.77 19.35C32.77 19.33 32.82 19.29 32.88 19.27C33.16 19.16 34.36 18.11 34.62 17.73C34.66 17.68 34.78 17.53 34.89 17.39C35 17.25 35.1 17.08 35.12 17.03C35.14 16.97 35.19 16.89 35.23 16.84C35.27 16.79 35.33 16.67 35.36 16.58C35.39 16.48 35.45 16.36 35.49 16.31C35.53 16.26 35.58 16.12 35.59 16.01C35.61 15.9 35.66 15.69 35.7 15.56C35.77 15.37 35.79 15.19 35.79 14.83C35.79 14.48 35.77 14.3 35.7 14.11C35.66 13.98 35.61 13.77 35.59 13.66C35.58 13.55 35.52 13.4 35.46 13.32C35.4 13.24 35.36 13.15 35.36 13.11C35.36 13.07 35.31 12.97 35.26 12.89C35.21 12.81 35.14 12.69 35.11 12.62C35.05 12.49 34.95 12.35 34.75 12.12C34.69 12.05 34.6 11.93 34.54 11.86C34.21 11.47 33.61 10.92 33.12 10.56C32.99 10.47 32.83 10.36 32.78 10.31C32.72 10.26 32.65 10.22 32.62 10.22C32.59 10.22 32.54 10.19 32.51 10.15C32.47 10.11 32.37 10.04 32.27 10C32.17 9.96 32.07 9.9 32.06 9.87C32.04 9.85 31.95 9.79 31.85 9.75C31.75 9.7 31.62 9.64 31.57 9.6C31.51 9.57 31.32 9.48 31.16 9.4C30.99 9.33 30.77 9.22 30.66 9.17C30.55 9.12 30.4 9.06 30.31 9.04C30.22 9.03 30.13 8.99 30.1 8.96C30.08 8.92 29.92 8.86 29.75 8.82C29.59 8.78 29.45 8.73 29.45 8.71C29.45 8.67 29.25 8.61 29 8.57C28.91 8.55 28.78 8.51 28.73 8.47C28.68 8.44 28.47 8.38 28.28 8.35C28.09 8.31 27.91 8.27 27.88 8.24C27.85 8.22 27.64 8.16 27.42 8.13C27.2 8.09 26.91 8.03 26.78 7.98C26.65 7.94 26.37 7.89 26.16 7.88C25.94 7.86 25.63 7.81 25.45 7.76C25.22 7.71 24.85 7.67 24.14 7.64C23.59 7.61 22.92 7.58 22.64 7.55C22.08 7.5 21.84 7.51 21.33 7.56M24.82 7.83C24.96 7.87 25.36 7.93 25.71 7.96C26.1 8 26.39 8.04 26.47 8.09C26.54 8.12 26.79 8.18 27.03 8.2C27.26 8.23 27.49 8.27 27.54 8.31C27.59 8.34 27.8 8.4 28 8.43C28.2 8.47 28.43 8.53 28.5 8.56C28.57 8.6 28.71 8.64 28.81 8.66C28.92 8.67 29.09 8.73 29.2 8.78C29.3 8.84 29.48 8.9 29.58 8.91C29.69 8.93 29.82 8.98 29.88 9.02C29.93 9.07 30.05 9.11 30.14 9.13C30.22 9.14 30.36 9.2 30.44 9.26C30.53 9.31 30.66 9.37 30.75 9.38C30.83 9.4 30.97 9.46 31.05 9.51C31.13 9.57 31.26 9.63 31.34 9.64C31.42 9.66 31.48 9.69 31.48 9.71C31.48 9.73 31.58 9.8 31.71 9.86C32.09 10.05 32.27 10.15 32.36 10.23C32.41 10.28 32.47 10.31 32.5 10.31C32.53 10.31 32.61 10.36 32.67 10.42C32.82 10.55 33.06 10.72 33.19 10.79C33.47 10.94 34.75 12.23 34.75 12.37C34.75 12.39 34.82 12.49 34.9 12.59C34.99 12.69 35.06 12.8 35.06 12.83C35.06 12.86 35.09 12.93 35.14 12.99C35.18 13.05 35.24 13.15 35.25 13.22C35.27 13.29 35.33 13.44 35.38 13.54C35.66 14.07 35.65 15.61 35.38 16.14C35.32 16.25 35.27 16.38 35.27 16.42C35.27 16.47 35.22 16.57 35.16 16.66C35.1 16.75 35.04 16.87 35.03 16.93C35.01 16.99 34.97 17.06 34.93 17.09C34.89 17.12 34.82 17.2 34.79 17.27C34.75 17.34 34.68 17.44 34.63 17.48C34.58 17.53 34.54 17.58 34.54 17.61C34.54 17.63 34.5 17.69 34.45 17.74C34.32 17.88 34.14 18.06 34.03 18.16C34 18.19 33.95 18.24 33.92 18.27C33.79 18.41 33.51 18.67 33.47 18.67C33.46 18.67 33.38 18.73 33.28 18.81C32.95 19.09 32.83 19.17 32.74 19.2C32.69 19.22 32.64 19.25 32.64 19.28C32.64 19.3 32.56 19.35 32.45 19.4C32.35 19.44 32.25 19.5 32.23 19.53C32.21 19.57 32.1 19.63 31.6 19.88C31.47 19.95 31.34 20.02 31.33 20.05C31.31 20.07 31.23 20.11 31.13 20.13C31.04 20.16 30.94 20.21 30.9 20.24C30.87 20.28 30.75 20.33 30.63 20.35C30.52 20.38 30.39 20.43 30.35 20.46C30.31 20.5 30.18 20.55 30.06 20.59C29.93 20.62 29.8 20.68 29.76 20.71C29.72 20.75 29.57 20.8 29.43 20.83C29.29 20.85 29.12 20.91 29.04 20.95C28.97 20.99 28.82 21.04 28.7 21.06C28.58 21.08 28.38 21.13 28.25 21.19C28.12 21.24 27.91 21.3 27.78 21.32C27.65 21.33 27.46 21.38 27.35 21.42C27.24 21.47 26.99 21.52 26.8 21.53C26.61 21.55 26.34 21.6 26.2 21.65C26.04 21.69 25.68 21.75 25.31 21.77C24.97 21.79 24.55 21.85 24.37 21.89C23.89 22 20.11 22 19.65 21.89C19.49 21.85 19.06 21.8 18.7 21.77C18.3 21.74 17.97 21.69 17.82 21.65C17.69 21.6 17.42 21.55 17.22 21.53C17.02 21.52 16.76 21.47 16.66 21.42C16.55 21.38 16.33 21.32 16.18 21.3C16.02 21.28 15.84 21.23 15.79 21.19C15.73 21.16 15.54 21.1 15.35 21.06C15.17 21.03 14.98 20.97 14.92 20.93C14.86 20.89 14.7 20.85 14.57 20.82C14.43 20.8 14.28 20.75 14.23 20.7C14.18 20.65 14.06 20.6 13.96 20.59C13.87 20.57 13.74 20.52 13.68 20.48C13.61 20.43 13.48 20.38 13.39 20.36C13.29 20.33 13.16 20.28 13.1 20.23C13.03 20.18 12.91 20.13 12.84 20.12C12.76 20.1 12.67 20.05 12.63 20C12.59 19.96 12.5 19.91 12.44 19.9C12.37 19.88 12.25 19.82 12.17 19.77C12.09 19.71 12.01 19.66 11.98 19.66C11.95 19.66 11.86 19.6 11.77 19.53C11.68 19.46 11.57 19.39 11.52 19.38C11.46 19.36 11.4 19.31 11.37 19.27C11.33 19.22 11.28 19.19 11.25 19.19C11.21 19.19 11.14 19.14 11.09 19.08C11.04 19.02 10.98 18.97 10.96 18.97C10.93 18.97 10.84 18.9 10.75 18.82C10.66 18.74 10.55 18.67 10.52 18.67C10.49 18.67 10.45 18.63 10.43 18.58C10.42 18.54 10.38 18.5 10.36 18.5C10.26 18.5 9.36 17.52 9.24 17.27C9.2 17.2 9.13 17.1 9.08 17.06C9.03 17.01 8.99 16.95 8.99 16.92C8.99 16.89 8.94 16.8 8.88 16.72C8.82 16.63 8.76 16.49 8.75 16.41C8.73 16.32 8.68 16.21 8.63 16.15C8.55 16.04 8.37 14.95 8.41 14.76C8.42 14.72 8.45 14.47 8.47 14.21C8.51 13.89 8.55 13.69 8.61 13.58C8.66 13.5 8.72 13.34 8.76 13.23C8.79 13.12 8.84 13.01 8.88 12.98C8.91 12.96 8.95 12.88 8.97 12.81C8.98 12.74 9.03 12.66 9.07 12.63C9.11 12.6 9.18 12.5 9.22 12.42C9.27 12.34 9.33 12.24 9.36 12.21C9.39 12.17 9.47 12.08 9.54 12C9.77 11.73 10.23 11.26 10.27 11.26C10.29 11.26 10.35 11.2 10.42 11.14C10.57 10.97 10.79 10.78 10.83 10.78C10.85 10.78 10.91 10.75 10.95 10.7C11 10.66 11.1 10.59 11.18 10.55C11.25 10.51 11.31 10.46 11.31 10.44C11.31 10.41 11.4 10.36 11.5 10.31C11.6 10.26 11.77 10.17 11.87 10.09C11.98 10.02 12.17 9.92 12.29 9.86C12.41 9.8 12.53 9.73 12.54 9.71C12.56 9.69 12.65 9.64 12.75 9.62C12.85 9.59 12.96 9.54 13 9.51C13.04 9.47 13.16 9.42 13.27 9.38C13.38 9.35 13.52 9.28 13.58 9.23C13.65 9.19 13.74 9.15 13.79 9.15C13.84 9.15 13.97 9.1 14.08 9.04C14.19 8.99 14.36 8.93 14.46 8.91C14.57 8.89 14.72 8.84 14.8 8.79C14.88 8.74 15.04 8.69 15.15 8.67C15.26 8.65 15.44 8.6 15.54 8.55C15.65 8.51 15.85 8.45 15.99 8.44C16.13 8.42 16.33 8.37 16.42 8.33C16.52 8.28 16.78 8.22 17.02 8.2C17.25 8.18 17.5 8.12 17.57 8.08C17.66 8.04 17.93 7.99 18.33 7.96C18.68 7.93 19.02 7.88 19.11 7.85C19.54 7.71 24.33 7.69 24.82 7.83M35.45 18.09C35.35 18.2 35.27 18.3 35.27 18.32C35.27 18.36 34.53 19.1 34.32 19.27C34.25 19.33 34.14 19.42 34.08 19.48C33.97 19.58 33.8 19.7 33.51 19.88C33.44 19.93 33.37 19.99 33.37 20.01C33.37 20.03 33.29 20.08 33.19 20.12C33.09 20.17 32.98 20.24 32.95 20.28C32.92 20.32 32.86 20.35 32.83 20.35C32.8 20.35 32.72 20.4 32.65 20.45C32.58 20.51 32.48 20.57 32.42 20.59C32.35 20.6 32.27 20.65 32.23 20.7C32.19 20.74 32.09 20.8 32 20.83C31.92 20.85 31.82 20.9 31.78 20.94C31.74 20.97 31.63 21.02 31.52 21.06C31.42 21.1 31.3 21.15 31.27 21.19C31.23 21.22 31.11 21.27 31 21.3C30.9 21.33 30.78 21.37 30.75 21.41C30.71 21.44 30.57 21.49 30.44 21.53C30.3 21.56 30.15 21.62 30.09 21.66C30.04 21.69 29.88 21.74 29.73 21.77C29.59 21.8 29.43 21.86 29.38 21.9C29.32 21.94 29.18 21.99 29.05 22.01C28.93 22.03 28.76 22.08 28.67 22.12C28.58 22.17 28.37 22.22 28.21 22.24C28.05 22.26 27.86 22.31 27.78 22.35C27.71 22.39 27.44 22.45 27.2 22.48C26.96 22.52 26.68 22.57 26.6 22.61C26.51 22.65 26.19 22.7 25.89 22.72C25.59 22.74 25.24 22.79 25.12 22.82C24.4 23.03 19.65 23.06 18.83 22.87C18.67 22.83 18.31 22.78 18.02 22.76C17.73 22.74 17.36 22.68 17.2 22.63C17.03 22.59 16.77 22.54 16.61 22.53C16.46 22.51 16.24 22.46 16.12 22.41C16 22.37 15.76 22.3 15.58 22.27C15.4 22.24 15.17 22.18 15.06 22.15C14.5 21.96 14.29 21.89 14.05 21.82C13.91 21.77 13.73 21.71 13.66 21.67C13.59 21.63 13.51 21.6 13.47 21.6C13.44 21.6 13.31 21.55 13.19 21.49C13.07 21.44 12.91 21.38 12.85 21.36C12.78 21.34 12.65 21.28 12.57 21.23C12.49 21.17 12.39 21.12 12.35 21.12C12.31 21.12 12.23 21.09 12.17 21.05C12.11 21 12 20.94 11.93 20.92C11.85 20.89 11.73 20.83 11.67 20.78C11.61 20.73 11.54 20.69 11.51 20.69C11.48 20.69 11.4 20.65 11.33 20.6C11.26 20.54 11.12 20.46 11.02 20.42C10.92 20.37 10.84 20.32 10.84 20.31C10.84 20.29 10.78 20.25 10.72 20.22C10.65 20.19 10.55 20.12 10.5 20.07C10.45 20.01 10.39 19.96 10.37 19.96C10.34 19.96 10.23 19.89 10.12 19.81C9.88 19.63 9.88 19.62 9.5 19.28C9.17 18.97 9.23 19.02 8.86 18.63C8.38 18.13 8.41 18 8.39 20.39C8.38 22.64 8.43 23.39 8.61 23.71C8.66 23.79 8.72 23.95 8.76 24.06C8.79 24.18 8.84 24.28 8.86 24.29C8.88 24.31 8.94 24.4 8.98 24.51C9.03 24.61 9.09 24.7 9.11 24.7C9.13 24.7 9.18 24.76 9.21 24.84C9.24 24.92 9.3 25.02 9.35 25.08C9.4 25.13 9.49 25.23 9.55 25.3C9.72 25.51 9.73 25.52 10.16 25.92C10.38 26.13 10.6 26.34 10.65 26.38C10.7 26.43 10.76 26.47 10.78 26.47C10.81 26.47 10.86 26.51 10.91 26.56C10.95 26.61 11.06 26.69 11.15 26.73C11.24 26.78 11.31 26.83 11.31 26.85C11.31 26.87 11.38 26.91 11.45 26.94C11.53 26.98 11.65 27.05 11.72 27.1C11.78 27.16 11.86 27.2 11.89 27.2C11.92 27.2 11.98 27.24 12.02 27.28C12.07 27.33 12.17 27.39 12.26 27.42C12.34 27.45 12.45 27.5 12.5 27.55C12.55 27.59 12.65 27.64 12.73 27.65C12.8 27.67 12.92 27.73 12.99 27.78C13.05 27.83 13.17 27.89 13.25 27.91C13.34 27.93 13.44 27.97 13.48 28C13.51 28.04 13.64 28.09 13.76 28.12C13.87 28.15 14.04 28.22 14.14 28.27C14.23 28.32 14.36 28.36 14.42 28.36C14.48 28.36 14.62 28.41 14.73 28.47C14.84 28.53 15.01 28.59 15.11 28.61C15.22 28.62 15.37 28.67 15.45 28.71C15.53 28.75 15.74 28.81 15.9 28.83C16.07 28.86 16.26 28.91 16.33 28.94C16.55 29.04 16.62 29.06 16.94 29.1C17.11 29.12 17.37 29.17 17.51 29.22C17.64 29.26 17.95 29.31 18.18 29.33C18.41 29.35 18.71 29.39 18.85 29.42C19.68 29.64 24.29 29.67 25.17 29.46C25.31 29.43 25.64 29.38 25.9 29.35C26.16 29.33 26.51 29.27 26.67 29.23C26.84 29.18 27.09 29.13 27.23 29.12C27.38 29.1 27.59 29.05 27.71 29.01C27.83 28.96 28.07 28.9 28.26 28.86C28.44 28.83 28.63 28.78 28.68 28.75C28.73 28.72 28.9 28.67 29.06 28.62C29.43 28.52 29.97 28.33 30.03 28.28C30.06 28.26 30.19 28.21 30.32 28.17C30.46 28.14 30.58 28.09 30.59 28.06C30.61 28.04 30.72 27.99 30.85 27.96C30.98 27.92 31.1 27.86 31.13 27.83C31.16 27.79 31.26 27.74 31.34 27.71C31.43 27.68 31.54 27.63 31.6 27.58C31.65 27.54 31.75 27.5 31.82 27.48C31.89 27.47 31.98 27.42 32.02 27.37C32.06 27.32 32.11 27.29 32.14 27.29C32.16 27.29 32.28 27.22 32.4 27.14C32.52 27.06 32.72 26.94 32.84 26.87C32.95 26.79 33.1 26.69 33.16 26.64C33.22 26.59 33.39 26.45 33.55 26.32C34.19 25.79 35.1 24.77 35.1 24.58C35.1 24.56 35.14 24.49 35.19 24.43C35.23 24.37 35.3 24.24 35.34 24.14C35.37 24.03 35.43 23.92 35.46 23.88C35.49 23.85 35.54 23.7 35.57 23.56C35.6 23.42 35.65 23.2 35.69 23.09C35.78 22.82 35.83 18.22 35.75 18.01C35.69 17.86 35.67 17.86 35.45 18.09M35.55 18.48C35.58 18.57 35.53 20.49 35.45 22.77C35.44 23.35 35.43 23.36 35.33 23.38C35.27 23.4 35.22 23.45 35.2 23.52C35.15 23.7 34.25 24.36 33.48 24.76C33.34 24.84 33.19 24.92 33.14 24.95C32.77 25.16 31.57 25.59 31.09 25.68C30.96 25.71 30.64 25.78 30.38 25.84C29.26 26.1 27.24 26.1 26.05 25.83C25.85 25.78 25.57 25.72 25.43 25.69C24.89 25.58 23.72 25.16 23.34 24.93C23.28 24.9 23.14 24.83 23.04 24.78C22.79 24.67 21.6 23.87 21.35 23.65C21.24 23.55 21.1 23.44 21.05 23.4C20.96 23.34 21.02 23.33 22 23.3C22.6 23.29 23.2 23.25 23.4 23.21C23.96 23.11 24.27 23.07 24.91 23.03C25.27 23 25.58 22.96 25.67 22.92C25.76 22.88 26.06 22.83 26.33 22.81C26.61 22.78 26.89 22.73 26.96 22.7C27.02 22.66 27.27 22.61 27.51 22.57C27.74 22.54 27.98 22.48 28.04 22.44C28.11 22.4 28.3 22.35 28.47 22.32C28.64 22.3 28.84 22.25 28.91 22.21C28.99 22.18 29.17 22.12 29.32 22.09C29.48 22.05 29.63 22 29.67 21.97C29.7 21.94 29.84 21.89 29.97 21.86C30.1 21.83 30.27 21.77 30.34 21.73C30.41 21.68 30.54 21.64 30.63 21.62C30.72 21.6 30.84 21.55 30.89 21.51C30.95 21.47 31.07 21.41 31.16 21.39C31.25 21.37 31.4 21.3 31.5 21.24C31.59 21.18 31.7 21.12 31.74 21.12C31.78 21.12 31.86 21.09 31.92 21.04C31.97 21 32.09 20.93 32.17 20.89C32.48 20.74 32.67 20.64 32.75 20.57C32.8 20.53 32.9 20.47 32.97 20.44C33.05 20.41 33.14 20.35 33.18 20.3C33.23 20.26 33.28 20.22 33.32 20.22C33.35 20.22 33.43 20.16 33.5 20.09C33.58 20.02 33.66 19.96 33.68 19.96C33.71 19.96 33.8 19.9 33.89 19.83C33.97 19.76 34.1 19.66 34.16 19.61C34.23 19.55 34.34 19.46 34.41 19.39C34.47 19.33 34.54 19.27 34.56 19.27C34.6 19.27 34.93 18.94 34.93 18.89C34.93 18.87 34.97 18.83 35.01 18.82C35.06 18.8 35.12 18.74 35.14 18.69C35.16 18.63 35.21 18.58 35.25 18.58C35.29 18.58 35.33 18.53 35.36 18.48C35.41 18.34 35.52 18.34 35.55 18.48M35.57 25.51C35.23 25.95 34.39 26.8 34.06 27.05C33.97 27.12 33.84 27.22 33.78 27.28C33.73 27.33 33.67 27.37 33.65 27.37C33.63 27.37 33.55 27.43 33.47 27.49C33.23 27.67 33.04 27.79 32.89 27.87C32.81 27.91 32.72 27.98 32.67 28.02C32.63 28.07 32.56 28.1 32.51 28.1C32.47 28.1 32.38 28.15 32.31 28.21C32.24 28.26 32.12 28.33 32.03 28.36C31.94 28.39 31.85 28.44 31.82 28.47C31.8 28.5 31.68 28.56 31.57 28.6C31.45 28.64 31.33 28.7 31.31 28.73C31.28 28.76 31.18 28.8 31.08 28.82C30.99 28.83 30.88 28.88 30.83 28.92C30.79 28.96 30.66 29.02 30.54 29.05C30.42 29.08 30.27 29.14 30.22 29.18C30.16 29.23 30.02 29.27 29.9 29.29C29.79 29.31 29.6 29.37 29.5 29.42C29.27 29.55 29.34 29.56 29.6 29.44C29.7 29.4 29.85 29.35 29.95 29.33C30.04 29.31 30.21 29.25 30.32 29.2C30.42 29.14 30.55 29.1 30.6 29.1C30.65 29.1 30.76 29.05 30.85 28.99C30.94 28.93 31.03 28.88 31.07 28.88C31.1 28.88 31.24 28.82 31.38 28.76C31.52 28.69 31.7 28.6 31.78 28.56C31.86 28.52 32.03 28.43 32.15 28.36C32.27 28.29 32.44 28.2 32.53 28.15C32.74 28.04 33.08 27.83 33.33 27.65C33.43 27.58 33.58 27.48 33.66 27.43C33.74 27.38 33.84 27.31 33.89 27.26C33.94 27.22 34.04 27.13 34.12 27.07C34.29 26.94 34.99 26.27 35.14 26.1C35.2 26.03 35.35 25.87 35.47 25.74C35.48 25.73 35.56 25.65 35.69 25.51C35.72 25.61 35.74 25.66 35.75 25.67C35.84 25.96 35.76 30.16 35.66 30.51C35.61 30.66 35.57 30.83 35.57 30.88C35.57 30.93 35.51 31.09 35.44 31.23C35.37 31.37 35.31 31.51 35.31 31.54C35.31 31.57 35.27 31.64 35.21 31.71C35.16 31.78 35.09 31.88 35.08 31.94C35.06 32 34.99 32.11 34.93 32.18C34.87 32.26 34.77 32.39 34.71 32.46C34.58 32.63 34.4 32.84 34.14 33.11C33.94 33.33 33.08 34.05 33.03 34.05C33.01 34.05 32.93 34.1 32.85 34.17C32.76 34.23 32.63 34.33 32.55 34.37C32.47 34.42 32.34 34.5 32.26 34.56C32.17 34.61 32.01 34.71 31.89 34.77C31.47 34.98 31.32 35.06 31.26 35.11C31.23 35.14 31.12 35.18 31.03 35.21C30.93 35.24 30.81 35.3 30.75 35.33C30.7 35.36 30.55 35.43 30.43 35.47C30.31 35.51 30.11 35.59 29.99 35.63C29.87 35.68 29.71 35.75 29.63 35.77C29.11 35.95 28.75 36.07 28.53 36.13C28.43 36.15 28.27 36.2 28.16 36.24C28.05 36.27 27.82 36.33 27.64 36.37C27.47 36.4 27.2 36.46 27.06 36.49C26.92 36.53 26.67 36.58 26.5 36.6C26.34 36.62 25.99 36.68 25.73 36.73C25.47 36.78 25.04 36.84 24.78 36.86C22.81 37.01 21.77 37.03 20.71 36.95C20.36 36.92 19.81 36.88 19.48 36.85C19.15 36.83 18.8 36.79 18.7 36.76C18.43 36.69 18.13 36.64 17.73 36.59C17.52 36.57 17.3 36.53 17.22 36.49C17.14 36.45 16.91 36.4 16.7 36.37C16.46 36.35 16.25 36.3 16.17 36.25C16.09 36.2 15.9 36.15 15.74 36.12C15.58 36.09 15.39 36.04 15.33 35.99C15.27 35.95 15.1 35.9 14.96 35.88C14.8 35.87 14.66 35.83 14.61 35.78C14.56 35.74 14.41 35.68 14.28 35.65C14.15 35.62 14.01 35.57 13.99 35.54C13.96 35.51 13.84 35.46 13.71 35.43C13.59 35.4 13.44 35.34 13.38 35.3C13.32 35.25 13.2 35.2 13.1 35.17C13 35.15 12.89 35.09 12.84 35.04C12.8 34.99 12.72 34.96 12.67 34.96C12.62 34.96 12.5 34.9 12.41 34.83C12.32 34.76 12.22 34.7 12.17 34.7C12.13 34.7 12.07 34.67 12.04 34.64C12 34.6 11.9 34.54 11.8 34.49C11.71 34.44 11.61 34.37 11.58 34.33C11.54 34.3 11.49 34.27 11.46 34.27C11.43 34.27 11.33 34.2 11.23 34.12C11.13 34.03 11.03 33.96 11 33.96C10.98 33.96 10.91 33.92 10.86 33.87C10.81 33.81 10.66 33.68 10.53 33.58C10.11 33.22 9.25 32.32 9.25 32.25C9.25 32.23 9.19 32.14 9.12 32.05C9.05 31.96 8.99 31.86 8.99 31.82C8.99 31.79 8.94 31.72 8.89 31.67C8.83 31.62 8.77 31.5 8.75 31.4C8.74 31.31 8.68 31.16 8.62 31.07C8.56 30.97 8.51 30.84 8.51 30.74C8.51 30.66 8.48 30.47 8.45 30.32C8.4 30.12 8.39 29.65 8.39 27.99C8.39 27.85 8.39 27.15 8.38 25.91C8.45 25.91 8.48 25.91 8.49 25.91C8.56 25.91 8.62 25.94 8.65 26C8.68 26.06 8.93 26.32 9.2 26.59C9.92 27.28 9.92 27.29 9.96 27.29C9.98 27.29 10.04 27.33 10.09 27.37C10.21 27.49 10.45 27.66 10.61 27.74C10.69 27.77 10.75 27.82 10.75 27.85C10.75 27.87 10.84 27.93 10.94 27.98C11.04 28.03 11.22 28.12 11.34 28.19C11.45 28.26 11.65 28.37 11.77 28.43C11.9 28.48 12.01 28.55 12.02 28.58C12.04 28.6 12.14 28.64 12.24 28.67C12.35 28.7 12.45 28.74 12.48 28.78C12.51 28.81 12.63 28.87 12.76 28.9C12.89 28.94 13.01 29 13.04 29.03C13.06 29.06 13.19 29.11 13.31 29.14C13.43 29.17 13.58 29.22 13.63 29.26C13.68 29.29 13.84 29.35 13.98 29.38C14.13 29.41 14.29 29.47 14.34 29.5C14.4 29.53 14.53 29.58 14.63 29.59C14.74 29.61 14.9 29.66 14.98 29.7C15.07 29.75 15.27 29.8 15.43 29.83C15.6 29.86 15.8 29.91 15.88 29.94C15.96 29.98 16.2 30.03 16.42 30.07C16.63 30.1 16.9 30.16 17.02 30.2C17.14 30.23 17.42 30.28 17.65 30.31C17.87 30.33 18.18 30.38 18.34 30.41C18.49 30.45 18.94 30.5 19.33 30.52C19.72 30.54 20.35 30.58 20.73 30.6C21.62 30.66 22.39 30.66 23.16 30.6C23.51 30.57 24.04 30.54 24.35 30.52C24.73 30.49 24.56 30.49 23.83 30.51C21.66 30.57 18.95 30.5 18.55 30.37C18.45 30.34 18.14 30.29 17.86 30.26C17.59 30.23 17.26 30.18 17.13 30.13C17 30.09 16.75 30.04 16.57 30.02C16.39 30.01 16.16 29.96 16.05 29.91C15.95 29.87 15.73 29.81 15.57 29.79C15.4 29.77 15.23 29.72 15.17 29.68C15.12 29.65 14.94 29.59 14.79 29.55C14.63 29.51 14.45 29.46 14.38 29.42C14.32 29.39 14.17 29.34 14.05 29.32C13.93 29.29 13.76 29.23 13.66 29.18C13.57 29.14 13.47 29.1 13.44 29.1C13.41 29.1 13.27 29.04 13.14 28.97C13.01 28.9 12.87 28.84 12.84 28.84C12.81 28.84 12.69 28.79 12.57 28.73C12.46 28.68 12.29 28.59 12.2 28.55C11.92 28.42 11.73 28.31 11.66 28.26C11.62 28.23 11.55 28.19 11.49 28.17C11.43 28.15 11.34 28.1 11.29 28.06C11.25 28.02 11.14 27.95 11.06 27.92C10.97 27.88 10.82 27.78 10.71 27.7C10.6 27.61 10.46 27.51 10.39 27.48C10.18 27.36 9.51 26.77 9.12 26.36C8.31 25.53 8.34 25.55 8.29 25.61C8.27 25.64 8.26 26.67 8.26 27.9C8.26 28.04 8.26 28.78 8.26 30.12C8.34 30.44 8.38 30.62 8.39 30.65C8.46 30.95 8.55 31.21 8.58 31.25C8.61 31.29 8.66 31.39 8.68 31.49C8.71 31.59 8.76 31.7 8.8 31.73C8.83 31.76 8.89 31.85 8.92 31.93C8.98 32.07 9.11 32.24 9.62 32.86C9.83 33.12 10.88 34.05 10.96 34.05C10.98 34.05 11.06 34.11 11.14 34.18C11.22 34.25 11.31 34.31 11.33 34.31C11.35 34.31 11.42 34.35 11.48 34.4C11.68 34.56 12.06 34.78 12.13 34.78C12.16 34.78 12.22 34.81 12.26 34.84C12.39 34.95 13.46 35.47 13.56 35.47C13.59 35.47 13.69 35.52 13.79 35.57C13.89 35.63 14.06 35.7 14.18 35.73C14.29 35.76 14.44 35.81 14.51 35.84C14.58 35.88 14.77 35.94 14.93 35.99C15.08 36.03 15.27 36.09 15.34 36.11C15.79 36.27 16.24 36.39 16.56 36.44C16.77 36.48 17.01 36.53 17.09 36.57C17.17 36.6 17.39 36.64 17.58 36.66C17.77 36.68 17.99 36.71 18.06 36.73C18.38 36.83 18.54 36.86 19.34 36.92C19.81 36.95 20.23 37 20.27 37.02C20.49 37.14 22.85 37.11 24.24 36.98C24.49 36.96 24.94 36.92 25.25 36.89C25.56 36.86 25.85 36.82 25.9 36.79C25.95 36.75 26.18 36.71 26.42 36.69C26.65 36.66 26.93 36.61 27.04 36.58C27.15 36.54 27.41 36.48 27.63 36.45C27.85 36.41 28.08 36.36 28.15 36.32C28.21 36.29 28.39 36.24 28.53 36.21C28.67 36.18 28.83 36.13 28.87 36.1C28.92 36.07 29.07 36.02 29.2 35.99C29.33 35.97 29.51 35.91 29.59 35.86C29.68 35.82 29.82 35.77 29.91 35.75C30 35.74 30.13 35.69 30.19 35.64C30.25 35.6 30.41 35.54 30.53 35.5C30.66 35.46 30.79 35.4 30.83 35.37C30.87 35.34 30.98 35.29 31.08 35.26C31.18 35.24 31.27 35.19 31.28 35.17C31.3 35.15 31.4 35.09 31.51 35.04C31.62 34.99 31.74 34.93 31.78 34.89C31.82 34.86 31.92 34.81 32 34.79C32.09 34.76 32.19 34.71 32.22 34.67C32.24 34.64 32.33 34.58 32.4 34.54C32.55 34.48 32.78 34.32 32.94 34.18C33 34.13 33.06 34.09 33.08 34.09C33.1 34.09 33.31 33.93 33.56 33.72C33.8 33.52 34.02 33.34 34.04 33.33C34.09 33.29 34.64 32.67 34.77 32.48C34.82 32.42 34.91 32.3 34.98 32.22C35.04 32.14 35.1 32.06 35.1 32.04C35.1 32.01 35.15 31.92 35.21 31.83C35.27 31.74 35.35 31.6 35.37 31.53C35.39 31.46 35.45 31.35 35.49 31.29C35.53 31.23 35.59 31.07 35.61 30.93C35.64 30.79 35.68 30.66 35.7 30.63C35.85 30.44 35.89 25.7 35.74 25.49C35.73 25.48 35.71 25.45 35.67 25.39L35.57 25.51M28.96 29.56C28.91 29.57 28.83 29.62 28.77 29.66C28.71 29.7 28.56 29.75 28.39 29.77C28.23 29.78 28.03 29.83 27.95 29.86C27.86 29.9 27.76 29.95 27.71 29.96C27.63 29.99 27.63 29.99 27.73 30C27.79 30 27.9 29.97 27.97 29.93C28.04 29.89 28.25 29.84 28.43 29.81C28.61 29.77 28.82 29.71 28.9 29.67C28.98 29.63 29.1 29.58 29.17 29.57C29.18 29.56 29.23 29.55 29.3 29.54C29.23 29.54 29.18 29.54 29.17 29.54C29.1 29.54 29.01 29.55 28.96 29.56M27.04 30.04C26.96 30.06 26.82 30.11 26.73 30.15C26.64 30.18 26.48 30.22 26.36 30.22C26.08 30.22 25.4 30.32 25.29 30.38C25.23 30.41 25.13 30.43 25.05 30.44C24.92 30.44 24.92 30.45 25.03 30.46C25.1 30.47 25.34 30.44 25.57 30.4C25.8 30.35 26.17 30.29 26.39 30.26C26.61 30.24 26.86 30.19 26.95 30.15C27.03 30.12 27.22 30.07 27.36 30.05C27.38 30.05 27.47 30.03 27.62 30.01C27.49 30.01 27.42 30.01 27.41 30.01C27.29 30.01 27.12 30.03 27.04 30.04" id="adV8AZ5WF"></path><path d="M19.61 7.77C19.42 7.78 19.19 7.82 19.11 7.85C19.02 7.88 18.68 7.93 18.33 7.96C17.93 7.99 17.66 8.04 17.57 8.08C17.5 8.12 17.25 8.18 17.02 8.2C16.78 8.22 16.52 8.28 16.42 8.33C16.33 8.37 16.13 8.42 15.99 8.44C15.85 8.45 15.65 8.51 15.54 8.55C15.44 8.6 15.26 8.65 15.15 8.67C15.04 8.69 14.88 8.74 14.8 8.79C14.72 8.84 14.57 8.89 14.46 8.91C14.36 8.93 14.19 8.99 14.08 9.04C13.97 9.1 13.84 9.15 13.79 9.15C13.74 9.15 13.65 9.19 13.58 9.23C13.52 9.28 13.38 9.35 13.27 9.38C13.16 9.42 13.04 9.47 13 9.51C12.96 9.54 12.85 9.59 12.75 9.62C12.65 9.64 12.56 9.69 12.54 9.71C12.53 9.73 12.41 9.8 12.29 9.86C12.17 9.92 11.98 10.02 11.87 10.09C11.77 10.17 11.6 10.26 11.5 10.31C11.4 10.36 11.31 10.41 11.31 10.44C11.31 10.46 11.25 10.51 11.18 10.55C11.1 10.59 11 10.66 10.95 10.7C10.91 10.75 10.85 10.78 10.83 10.78C10.79 10.78 10.57 10.97 10.42 11.14C10.35 11.2 10.29 11.26 10.27 11.26C10.23 11.26 9.77 11.73 9.54 12C9.47 12.08 9.39 12.17 9.36 12.21C9.33 12.24 9.27 12.34 9.22 12.42C9.18 12.5 9.11 12.6 9.07 12.63C9.03 12.66 8.98 12.74 8.97 12.81C8.95 12.88 8.91 12.96 8.88 12.98C8.84 13.01 8.79 13.12 8.76 13.23C8.72 13.34 8.66 13.5 8.61 13.58C8.55 13.69 8.51 13.89 8.47 14.21C8.45 14.47 8.42 14.72 8.41 14.76C8.37 14.95 8.55 16.04 8.63 16.15C8.68 16.21 8.73 16.32 8.75 16.41C8.76 16.49 8.82 16.63 8.88 16.72C8.94 16.8 8.99 16.89 8.99 16.92C8.99 16.95 9.03 17.01 9.08 17.06C9.13 17.1 9.2 17.2 9.24 17.27C9.36 17.52 10.26 18.5 10.36 18.5C10.38 18.5 10.42 18.54 10.43 18.58C10.45 18.63 10.49 18.67 10.52 18.67C10.55 18.67 10.66 18.74 10.75 18.82C10.84 18.9 10.93 18.97 10.96 18.97C10.98 18.97 11.04 19.02 11.09 19.08C11.14 19.14 11.21 19.19 11.25 19.19C11.28 19.19 11.33 19.22 11.37 19.27C11.4 19.31 11.46 19.36 11.52 19.38C11.57 19.39 11.68 19.46 11.77 19.53C11.86 19.6 11.95 19.66 11.98 19.66C12.01 19.66 12.09 19.71 12.17 19.77C12.25 19.82 12.37 19.88 12.44 19.9C12.5 19.91 12.59 19.96 12.63 20C12.67 20.05 12.76 20.1 12.84 20.12C12.91 20.13 13.03 20.18 13.1 20.23C13.16 20.28 13.29 20.33 13.39 20.36C13.48 20.38 13.61 20.43 13.68 20.48C13.74 20.52 13.87 20.57 13.96 20.59C14.06 20.6 14.18 20.65 14.23 20.7C14.28 20.75 14.43 20.8 14.57 20.82C14.7 20.85 14.86 20.89 14.92 20.93C14.98 20.97 15.17 21.03 15.35 21.06C15.54 21.1 15.73 21.16 15.79 21.19C15.84 21.23 16.02 21.28 16.18 21.3C16.33 21.32 16.55 21.38 16.66 21.42C16.76 21.47 17.02 21.52 17.22 21.53C17.42 21.55 17.69 21.6 17.82 21.65C17.97 21.69 18.3 21.74 18.7 21.77C19.06 21.8 19.49 21.85 19.65 21.89C20.11 22 23.89 22 24.37 21.89C24.55 21.85 24.97 21.79 25.31 21.77C25.68 21.75 26.04 21.69 26.2 21.65C26.34 21.6 26.61 21.55 26.8 21.53C26.99 21.52 27.24 21.47 27.35 21.42C27.46 21.38 27.65 21.33 27.78 21.32C27.91 21.3 28.12 21.24 28.25 21.19C28.38 21.13 28.58 21.08 28.7 21.06C28.82 21.04 28.97 20.99 29.04 20.95C29.12 20.91 29.29 20.85 29.43 20.83C29.57 20.8 29.72 20.75 29.76 20.71C29.8 20.68 29.93 20.62 30.06 20.59C30.18 20.55 30.31 20.5 30.35 20.46C30.39 20.43 30.52 20.38 30.63 20.35C30.75 20.33 30.87 20.28 30.9 20.24C30.94 20.21 31.04 20.16 31.13 20.13C31.23 20.11 31.31 20.07 31.33 20.05C31.34 20.02 31.47 19.95 31.6 19.88C32.1 19.63 32.21 19.57 32.23 19.53C32.25 19.5 32.35 19.44 32.45 19.4C32.56 19.35 32.64 19.3 32.64 19.28C32.64 19.25 32.69 19.22 32.74 19.2C32.83 19.17 32.95 19.09 33.28 18.81C33.38 18.73 33.46 18.67 33.47 18.67C33.51 18.67 33.79 18.41 33.92 18.27C33.95 18.24 34 18.19 34.03 18.16C34.14 18.06 34.32 17.88 34.45 17.74C34.5 17.69 34.54 17.63 34.54 17.61C34.54 17.58 34.58 17.53 34.63 17.48C34.68 17.44 34.75 17.34 34.79 17.27C34.82 17.2 34.89 17.12 34.93 17.09C34.97 17.06 35.01 16.99 35.03 16.93C35.04 16.87 35.1 16.75 35.16 16.66C35.22 16.57 35.27 16.47 35.27 16.42C35.27 16.38 35.32 16.25 35.38 16.14C35.65 15.61 35.66 14.07 35.38 13.54C35.33 13.44 35.27 13.29 35.25 13.22C35.24 13.15 35.18 13.05 35.14 12.99C35.09 12.93 35.06 12.86 35.06 12.83C35.06 12.8 34.99 12.69 34.9 12.59C34.82 12.49 34.75 12.39 34.75 12.37C34.75 12.23 33.47 10.94 33.19 10.79C33.06 10.72 32.82 10.55 32.67 10.42C32.61 10.36 32.53 10.31 32.5 10.31C32.47 10.31 32.41 10.28 32.36 10.23C32.27 10.15 32.09 10.05 31.71 9.86C31.58 9.8 31.48 9.73 31.48 9.71C31.48 9.69 31.42 9.66 31.34 9.64C31.26 9.63 31.13 9.57 31.05 9.51C30.97 9.46 30.83 9.4 30.75 9.38C30.66 9.37 30.53 9.31 30.44 9.26C30.36 9.2 30.22 9.14 30.14 9.13C30.05 9.11 29.93 9.07 29.88 9.02C29.82 8.98 29.69 8.93 29.58 8.91C29.48 8.9 29.3 8.84 29.2 8.78C29.09 8.73 28.92 8.67 28.81 8.66C28.71 8.64 28.57 8.6 28.5 8.56C28.43 8.53 28.2 8.47 28 8.43C27.8 8.4 27.59 8.34 27.54 8.31C27.49 8.27 27.26 8.23 27.03 8.2C26.79 8.18 26.54 8.12 26.47 8.09C26.39 8.04 26.1 8 25.71 7.96C25.36 7.93 24.96 7.87 24.82 7.83C24.54 7.75 20.34 7.7 19.61 7.77M35.36 18.48C35.33 18.53 35.29 18.58 35.25 18.58C35.21 18.58 35.16 18.63 35.14 18.69C35.12 18.74 35.06 18.8 35.01 18.82C34.97 18.83 34.93 18.87 34.93 18.89C34.93 18.94 34.6 19.27 34.56 19.27C34.54 19.27 34.47 19.33 34.41 19.39C34.34 19.46 34.23 19.55 34.16 19.61C34.1 19.66 33.97 19.76 33.89 19.83C33.8 19.9 33.71 19.96 33.68 19.96C33.66 19.96 33.58 20.02 33.5 20.09C33.43 20.16 33.35 20.22 33.32 20.22C33.28 20.22 33.23 20.26 33.18 20.3C33.14 20.35 33.05 20.41 32.97 20.44C32.9 20.47 32.8 20.53 32.75 20.57C32.67 20.64 32.48 20.74 32.17 20.89C32.09 20.93 31.97 21 31.92 21.04C31.86 21.09 31.78 21.12 31.74 21.12C31.7 21.12 31.59 21.18 31.5 21.24C31.4 21.3 31.25 21.37 31.16 21.39C31.07 21.41 30.95 21.47 30.89 21.51C30.84 21.55 30.72 21.6 30.63 21.62C30.54 21.64 30.41 21.68 30.34 21.73C30.27 21.77 30.1 21.83 29.97 21.86C29.84 21.89 29.7 21.94 29.67 21.97C29.63 22 29.48 22.05 29.32 22.09C29.17 22.12 28.99 22.18 28.91 22.21C28.84 22.25 28.64 22.3 28.47 22.32C28.3 22.35 28.11 22.4 28.04 22.44C27.98 22.48 27.74 22.54 27.51 22.57C27.27 22.61 27.02 22.66 26.96 22.7C26.89 22.73 26.61 22.78 26.33 22.81C26.06 22.83 25.76 22.88 25.67 22.92C25.58 22.96 25.27 23 24.91 23.03C24.27 23.07 23.96 23.11 23.4 23.21C23.2 23.25 22.6 23.29 22 23.3C21.02 23.33 20.96 23.34 21.05 23.4C21.1 23.44 21.24 23.55 21.35 23.65C21.6 23.87 22.79 24.67 23.04 24.78C23.14 24.83 23.28 24.9 23.34 24.93C23.72 25.16 24.89 25.58 25.43 25.69C25.57 25.72 25.85 25.78 26.05 25.83C27.24 26.1 29.26 26.1 30.38 25.84C30.64 25.78 30.96 25.71 31.09 25.68C31.57 25.59 32.77 25.16 33.14 24.95C33.19 24.92 33.34 24.84 33.48 24.76C34.25 24.36 35.15 23.7 35.2 23.52C35.22 23.45 35.27 23.4 35.33 23.38C35.43 23.36 35.44 23.35 35.45 22.77C35.53 20.49 35.58 18.57 35.55 18.48C35.52 18.34 35.41 18.34 35.36 18.48" id="a2t5chnlZ1"></path><path d="M35.46 25.74C35.35 25.87 35.2 26.03 35.14 26.1C34.99 26.27 34.29 26.94 34.12 27.07C34.04 27.13 33.94 27.22 33.89 27.26C33.84 27.31 33.74 27.38 33.66 27.43C33.58 27.48 33.43 27.58 33.33 27.65C33.08 27.83 32.74 28.04 32.53 28.15C32.44 28.2 32.27 28.29 32.15 28.36C32.03 28.43 31.86 28.52 31.78 28.56C31.7 28.6 31.52 28.69 31.38 28.76C31.24 28.82 31.1 28.88 31.07 28.88C31.03 28.88 30.94 28.93 30.85 28.99C30.76 29.05 30.65 29.1 30.6 29.1C30.55 29.1 30.42 29.14 30.32 29.2C30.21 29.25 30.04 29.31 29.95 29.33C29.85 29.35 29.7 29.4 29.6 29.44C29.51 29.48 29.35 29.53 29.26 29.55C29.17 29.57 29.01 29.62 28.92 29.66C28.83 29.71 28.61 29.77 28.43 29.81C28.25 29.84 28.04 29.89 27.97 29.93C27.9 29.96 27.67 30.01 27.46 30.04C27.26 30.07 27.02 30.12 26.94 30.15C26.86 30.19 26.61 30.23 26.39 30.26C26.17 30.29 25.8 30.35 25.58 30.39C25.36 30.44 24.86 30.49 24.46 30.52C24.07 30.54 23.47 30.58 23.14 30.6C22.38 30.66 21.61 30.66 20.69 30.6C20.28 30.58 19.65 30.54 19.29 30.52C18.92 30.5 18.49 30.45 18.34 30.41C18.18 30.38 17.87 30.33 17.65 30.31C17.42 30.28 17.14 30.23 17.02 30.2C16.9 30.16 16.63 30.1 16.42 30.07C16.2 30.03 15.96 29.98 15.88 29.94C15.8 29.91 15.6 29.86 15.43 29.83C15.27 29.8 15.07 29.75 14.98 29.7C14.9 29.66 14.74 29.61 14.63 29.59C14.53 29.58 14.4 29.53 14.34 29.5C14.29 29.47 14.13 29.41 13.98 29.38C13.84 29.35 13.68 29.29 13.63 29.26C13.58 29.22 13.43 29.17 13.31 29.14C13.19 29.11 13.06 29.06 13.04 29.03C13.01 29 12.89 28.94 12.76 28.9C12.63 28.87 12.51 28.81 12.48 28.78C12.45 28.74 12.35 28.7 12.24 28.67C12.14 28.64 12.04 28.6 12.02 28.58C12.01 28.55 11.9 28.48 11.77 28.43C11.65 28.37 11.45 28.26 11.34 28.19C11.22 28.12 11.04 28.03 10.94 27.98C10.84 27.93 10.75 27.87 10.75 27.85C10.75 27.82 10.69 27.77 10.61 27.74C10.45 27.66 10.21 27.49 10.09 27.37C10.04 27.33 9.98 27.29 9.96 27.29C9.92 27.29 9.92 27.28 9.2 26.59C8.93 26.32 8.68 26.06 8.65 26C8.62 25.94 8.56 25.91 8.49 25.91C8.48 25.91 8.45 25.91 8.38 25.91C8.39 27.15 8.39 27.85 8.39 27.99C8.39 29.65 8.4 30.12 8.45 30.32C8.48 30.47 8.51 30.66 8.51 30.74C8.51 30.84 8.56 30.97 8.62 31.07C8.68 31.16 8.74 31.31 8.75 31.4C8.77 31.5 8.83 31.62 8.89 31.67C8.94 31.72 8.99 31.79 8.99 31.82C8.99 31.86 9.05 31.96 9.12 32.05C9.19 32.14 9.25 32.23 9.25 32.25C9.25 32.32 10.11 33.22 10.53 33.58C10.66 33.68 10.81 33.81 10.86 33.87C10.91 33.92 10.98 33.96 11 33.96C11.03 33.96 11.13 34.03 11.23 34.12C11.33 34.2 11.43 34.27 11.46 34.27C11.49 34.27 11.54 34.3 11.58 34.33C11.61 34.37 11.71 34.44 11.8 34.49C11.9 34.54 12 34.6 12.04 34.64C12.07 34.67 12.13 34.7 12.17 34.7C12.22 34.7 12.32 34.76 12.41 34.83C12.5 34.9 12.62 34.96 12.67 34.96C12.72 34.96 12.8 34.99 12.84 35.04C12.89 35.09 13 35.15 13.1 35.17C13.2 35.2 13.32 35.25 13.38 35.3C13.44 35.34 13.59 35.4 13.71 35.43C13.84 35.46 13.96 35.51 13.99 35.54C14.01 35.57 14.15 35.62 14.28 35.65C14.41 35.68 14.56 35.74 14.61 35.78C14.66 35.83 14.8 35.87 14.96 35.88C15.1 35.9 15.27 35.95 15.33 35.99C15.39 36.04 15.58 36.09 15.74 36.12C15.9 36.15 16.09 36.2 16.17 36.25C16.25 36.3 16.46 36.35 16.7 36.37C16.91 36.4 17.14 36.45 17.22 36.49C17.3 36.53 17.52 36.57 17.73 36.59C18.13 36.64 18.43 36.69 18.7 36.76C18.8 36.79 19.15 36.83 19.48 36.85C19.81 36.88 20.36 36.92 20.71 36.95C21.77 37.03 22.81 37.01 24.78 36.86C25.04 36.84 25.47 36.78 25.73 36.73C25.99 36.68 26.34 36.62 26.5 36.6C26.67 36.58 26.92 36.53 27.06 36.49C27.2 36.46 27.47 36.4 27.64 36.37C27.82 36.33 28.05 36.27 28.16 36.24C28.27 36.2 28.43 36.15 28.53 36.13C28.75 36.07 29.11 35.95 29.63 35.77C29.71 35.75 29.87 35.68 29.99 35.63C30.11 35.59 30.31 35.51 30.43 35.47C30.55 35.43 30.7 35.36 30.75 35.33C30.81 35.3 30.93 35.24 31.03 35.21C31.12 35.18 31.23 35.14 31.26 35.11C31.32 35.06 31.47 34.98 31.89 34.77C32.01 34.71 32.17 34.61 32.26 34.56C32.34 34.5 32.47 34.42 32.55 34.37C32.63 34.33 32.76 34.23 32.85 34.17C32.93 34.1 33.01 34.05 33.03 34.05C33.08 34.05 33.94 33.33 34.14 33.11C34.4 32.84 34.58 32.63 34.71 32.46C34.77 32.39 34.87 32.26 34.93 32.18C34.99 32.11 35.06 32 35.08 31.94C35.09 31.88 35.16 31.78 35.21 31.71C35.27 31.64 35.31 31.57 35.31 31.54C35.31 31.51 35.37 31.37 35.44 31.23C35.51 31.09 35.57 30.93 35.57 30.88C35.57 30.83 35.61 30.66 35.66 30.51C35.76 30.16 35.83 25.85 35.73 25.64C35.73 25.63 35.71 25.59 35.68 25.52L35.46 25.74M35.61 30.07C35.59 30.18 35.54 30.44 35.51 30.64C35.47 30.86 35.42 31.03 35.36 31.1C35.31 31.16 35.26 31.3 35.25 31.41C35.23 31.53 35.19 31.61 35.14 31.64C35.1 31.66 35.05 31.72 35.03 31.78C35.01 31.83 34.94 31.94 34.88 32.02C34.81 32.11 34.75 32.21 34.75 32.25C34.75 32.29 34.71 32.33 34.67 32.35C34.62 32.36 34.58 32.39 34.58 32.41C34.58 32.46 34.44 32.62 34.04 33.01C33.54 33.51 33.52 33.53 33.47 33.53C33.45 33.53 33.4 33.58 33.36 33.64C33.32 33.7 33.26 33.75 33.23 33.75C33.2 33.75 33.14 33.79 33.09 33.84C33.05 33.89 32.94 33.97 32.85 34.01C32.77 34.05 32.68 34.12 32.67 34.16C32.66 34.19 32.61 34.22 32.56 34.22C32.52 34.22 32.41 34.28 32.32 34.35C32.23 34.42 32.13 34.48 32.1 34.48C32.07 34.48 32.02 34.52 31.99 34.56C31.96 34.61 31.86 34.66 31.78 34.67C31.7 34.69 31.58 34.75 31.52 34.8C31.46 34.86 31.35 34.91 31.26 34.93C31.18 34.94 31.08 35 31.05 35.04C31.01 35.09 30.9 35.14 30.79 35.16C30.68 35.18 30.55 35.24 30.49 35.29C30.43 35.35 30.35 35.39 30.25 35.39C30.08 35.39 29.93 35.45 29.87 35.54C29.85 35.58 29.76 35.6 29.65 35.6C29.51 35.6 29.43 35.63 29.32 35.72C29.22 35.81 29.13 35.84 28.89 35.86C28.67 35.88 28.57 35.91 28.49 35.98C28.41 36.06 28.34 36.08 28.14 36.08C27.84 36.08 27.58 36.14 27.54 36.22C27.53 36.26 27.38 36.29 27.06 36.31C26.61 36.34 26.31 36.42 26.31 36.51C26.31 36.62 24.68 36.5 24.29 36.36C24.19 36.32 24.05 36.29 23.99 36.29C23.84 36.29 22.04 35.69 21.9 35.59C21.84 35.55 21.66 35.47 21.49 35.41C20.99 35.24 20.22 34.8 19.15 34.09C19.02 34.01 18.89 33.9 18.86 33.86C18.83 33.82 18.78 33.79 18.75 33.79C18.72 33.79 18.6 33.71 18.48 33.61C18.37 33.5 18.24 33.4 18.19 33.37C18.08 33.31 16.57 31.81 16.57 31.76C16.57 31.74 16.5 31.64 16.41 31.54C16.32 31.44 16.17 31.23 16.08 31.08C15.98 30.92 15.85 30.73 15.79 30.65C15.72 30.56 15.64 30.42 15.6 30.33C15.6 30.32 15.58 30.27 15.54 30.17C15.79 30.17 15.94 30.17 15.97 30.17C16.31 30.17 16.4 30.19 16.43 30.24C16.49 30.34 16.75 30.39 17.24 30.39C17.56 30.39 17.68 30.4 17.74 30.46C17.84 30.55 18.28 30.6 18.93 30.6C19.28 30.6 19.58 30.63 19.79 30.68C20.27 30.79 23.31 30.79 23.81 30.68C23.99 30.64 24.38 30.6 24.67 30.58C25.26 30.55 25.82 30.49 25.92 30.43C25.96 30.41 26.19 30.37 26.44 30.35C26.69 30.32 27 30.26 27.13 30.22C27.26 30.17 27.51 30.11 27.69 30.09C27.86 30.06 28.06 30.01 28.13 29.98C28.2 29.94 28.41 29.89 28.6 29.85C28.78 29.82 29.01 29.75 29.1 29.71C29.19 29.66 29.34 29.61 29.43 29.59C29.53 29.58 29.65 29.54 29.7 29.5C29.75 29.47 29.9 29.42 30.02 29.39C30.14 29.37 30.33 29.3 30.44 29.24C30.54 29.19 30.67 29.14 30.73 29.14C30.78 29.14 30.87 29.1 30.93 29.05C30.99 29 31.13 28.94 31.24 28.9C31.35 28.87 31.48 28.82 31.52 28.78C31.55 28.75 31.66 28.69 31.76 28.67C31.85 28.64 31.96 28.59 32 28.56C32.06 28.5 32.23 28.41 32.59 28.23C32.69 28.19 32.78 28.13 32.8 28.1C32.81 28.08 32.91 28.02 33.01 27.97C33.12 27.93 33.2 27.87 33.2 27.85C33.2 27.82 33.27 27.77 33.34 27.74C33.57 27.63 33.97 27.34 34.15 27.15C34.21 27.08 34.28 27.03 34.3 27.03C34.32 27.03 34.44 26.93 34.57 26.8C34.69 26.68 34.87 26.5 34.96 26.42C35.22 26.16 35.34 26.02 35.37 25.94C35.38 25.9 35.45 25.86 35.52 25.86C35.52 25.86 35.56 25.85 35.64 25.84C35.64 27.04 35.65 27.71 35.65 27.85C35.66 29.17 35.64 29.92 35.61 30.07" id="awtLKhMMt"></path></defs><g><g><g><use xlink:href="#j92ZPO6HGW" opacity="1" fill="#c6c6c6" fill-opacity="1"></use><g><use xlink:href="#j92ZPO6HGW" opacity="1" fill-opacity="0" stroke="#000000" stroke-width="1" stroke-opacity="0"></use></g></g><g><use xlink:href="#bVzWdd3Fv" opacity="1" fill="#0a0706" fill-opacity="1"></use><g><use xlink:href="#bVzWdd3Fv" opacity="1" fill-opacity="0" stroke="#000000" stroke-width="1" stroke-opacity="0"></use></g></g><g><use xlink:href="#adV8AZ5WF" opacity="1" fill="#72281c" fill-opacity="1"></use><g><use xlink:href="#adV8AZ5WF" opacity="1" fill-opacity="0" stroke="#000000" stroke-width="1" stroke-opacity="0"></use></g></g><g><use xlink:href="#a2t5chnlZ1" opacity="1" fill="#e12607" fill-opacity="1"></use><g><use xlink:href="#a2t5chnlZ1" opacity="1" fill-opacity="0" stroke="#000000" stroke-width="1" stroke-opacity="0"></use></g></g><g><use xlink:href="#awtLKhMMt" opacity="1" fill="#888888" fill-opacity="1"></use><g><use xlink:href="#awtLKhMMt" opacity="1" fill-opacity="0" stroke="#000000" stroke-width="1" stroke-opacity="0"></use></g></g></g></g></svg>