<?xml version="1.0" encoding="UTF-8" standalone="no"?>
<!DOCTYPE svg PUBLIC "-//W3C//DTD SVG 1.1//EN" "http://www.w3.org/Graphics/SVG/1.1/DTD/svg11.dtd">
<svg version="1.1" xmlns="http://www.w3.org/2000/svg" xmlns:xlink="http://www.w3.org/1999/xlink" preserveAspectRatio="xMidYMid meet" viewBox="0 0 640 640" width="640" height="640"><defs><path d="M22.17 28.72C14.16 28.72 7.68 25.17 7.68 20.8C7.68 20.8 7.68 20.8 7.68 20.8C7.67 16.43 14.16 12.89 22.16 12.89C30.16 12.89 36.65 16.43 36.65 20.8C36.65 20.8 36.65 20.8 36.65 20.8C36.65 25.17 30.17 28.71 22.17 28.72Z" id="a2IUNmSdEs"></path><path d="M35.55 25.45C35.5 25.5 35.43 25.57 35.39 25.61C35.35 25.64 35.08 25.91 34.78 26.21C34.49 26.51 34.18 26.8 34.11 26.86C34.04 26.91 33.92 27.02 33.85 27.08C33.77 27.15 33.7 27.2 33.67 27.2C33.64 27.2 33.56 27.25 33.48 27.32C33.26 27.5 33.11 27.6 32.94 27.68C32.86 27.72 32.77 27.78 32.73 27.82C32.7 27.86 32.65 27.89 32.62 27.89C32.59 27.89 32.52 27.93 32.46 27.98C32.39 28.03 32.28 28.09 32.2 28.11C32.12 28.14 32.02 28.19 31.97 28.24C31.93 28.28 31.82 28.32 31.75 28.34C31.67 28.36 31.55 28.42 31.49 28.47C31.42 28.53 31.3 28.59 31.21 28.6C31.12 28.62 31 28.67 30.95 28.71C30.89 28.76 30.75 28.81 30.64 28.84C30.53 28.86 30.39 28.92 30.33 28.96C30.27 29.01 30.15 29.06 30.04 29.07C29.95 29.09 29.8 29.14 29.72 29.18C29.65 29.23 29.48 29.28 29.34 29.31C29.21 29.33 29.05 29.39 28.99 29.42C28.93 29.46 28.75 29.51 28.58 29.53C28.42 29.55 28.22 29.61 28.14 29.66C28.05 29.71 27.87 29.76 27.63 29.78C27.43 29.8 27.2 29.85 27.12 29.89C27.03 29.94 26.79 29.98 26.5 30C26.24 30.03 25.91 30.08 25.77 30.13C25.59 30.19 25.28 30.23 24.74 30.26C24.31 30.28 23.89 30.32 23.79 30.34C23.19 30.48 20.61 30.5 20.22 30.38C20.14 30.36 19.71 30.32 19.26 30.3C18.68 30.27 18.35 30.24 18.12 30.18C17.94 30.13 17.59 30.07 17.34 30.05C17.09 30.03 16.83 29.98 16.75 29.94C16.68 29.9 16.47 29.86 16.28 29.84C16.05 29.83 15.88 29.79 15.74 29.72C15.63 29.66 15.47 29.61 15.38 29.61C15.17 29.61 14.93 29.55 14.89 29.48C14.87 29.45 14.74 29.41 14.59 29.39C14.44 29.37 14.26 29.32 14.18 29.27C14.11 29.23 13.96 29.18 13.84 29.16C13.73 29.14 13.61 29.1 13.58 29.08C13.5 28.99 13.38 28.94 13.21 28.91C13.12 28.89 13.01 28.84 12.96 28.8C12.91 28.75 12.79 28.71 12.69 28.69C12.6 28.68 12.49 28.63 12.45 28.59C12.4 28.54 12.29 28.49 12.19 28.46C12.1 28.43 11.98 28.37 11.94 28.32C11.9 28.27 11.82 28.23 11.78 28.23C11.68 28.23 11.52 28.15 11.48 28.08C11.46 28.05 11.38 28.02 11.29 28C11.21 27.98 11.12 27.94 11.09 27.89C11.06 27.85 10.96 27.78 10.87 27.75C10.78 27.71 10.71 27.66 10.71 27.64C10.71 27.61 10.65 27.57 10.57 27.55C10.49 27.52 10.38 27.45 10.32 27.39C10.27 27.33 10.2 27.29 10.16 27.29C10.13 27.29 10.08 27.24 10.06 27.18C10.03 27.12 9.98 27.07 9.95 27.07C9.92 27.07 9.85 27.02 9.8 26.96C9.75 26.9 9.68 26.86 9.66 26.86C9.55 26.86 8.6 25.87 8.6 25.76C8.6 25.73 8.56 25.76 8.51 25.82C8.42 25.93 8.38 29.55 8.47 30.22C8.49 30.39 8.52 30.63 8.54 30.74C8.55 30.85 8.6 30.98 8.64 31.04C8.73 31.14 8.75 31.18 8.79 31.43C8.81 31.52 8.85 31.61 8.9 31.64C8.94 31.66 8.99 31.73 9 31.79C9.02 31.84 9.08 31.94 9.14 32.01C9.2 32.07 9.25 32.15 9.25 32.18C9.25 32.22 9.29 32.28 9.35 32.34C9.41 32.39 9.46 32.45 9.46 32.47C9.46 32.49 9.62 32.66 9.81 32.85C10 33.04 10.15 33.22 10.15 33.24C10.15 33.26 10.2 33.29 10.25 33.3C10.31 33.31 10.38 33.37 10.4 33.43C10.43 33.49 10.48 33.53 10.52 33.53C10.55 33.53 10.61 33.58 10.65 33.64C10.69 33.7 10.75 33.75 10.78 33.75C10.81 33.75 10.87 33.79 10.9 33.85C10.94 33.9 11.04 33.97 11.12 34C11.2 34.03 11.29 34.09 11.32 34.14C11.34 34.19 11.4 34.22 11.44 34.22C11.49 34.22 11.56 34.26 11.6 34.3C11.65 34.35 11.76 34.43 11.86 34.48C11.96 34.53 12.05 34.59 12.05 34.61C12.05 34.63 12.13 34.67 12.24 34.69C12.35 34.72 12.45 34.78 12.48 34.82C12.5 34.87 12.59 34.92 12.67 34.93C12.75 34.95 12.87 35.01 12.94 35.07C13 35.12 13.1 35.17 13.15 35.17C13.27 35.17 13.42 35.24 13.49 35.32C13.51 35.35 13.62 35.39 13.74 35.41C13.85 35.42 13.98 35.47 14.04 35.51C14.09 35.56 14.25 35.61 14.38 35.64C14.52 35.67 14.65 35.72 14.67 35.76C14.7 35.81 14.81 35.84 15 35.87C15.19 35.89 15.33 35.93 15.38 35.98C15.44 36.04 15.59 36.08 15.81 36.11C16.01 36.14 16.18 36.18 16.23 36.23C16.28 36.27 16.46 36.32 16.75 36.35C17.01 36.38 17.25 36.44 17.31 36.48C17.38 36.52 17.59 36.56 17.93 36.59C18.21 36.62 18.52 36.67 18.62 36.7C18.86 36.79 19.4 36.84 20.34 36.88C20.82 36.89 21.24 36.93 21.35 36.96C21.59 37.04 22.46 37.04 22.63 36.97C22.7 36.95 22.99 36.92 23.27 36.91C24.21 36.89 25.21 36.81 25.45 36.75C25.58 36.71 25.93 36.65 26.23 36.62C26.53 36.59 26.82 36.53 26.87 36.51C26.92 36.48 27.15 36.43 27.38 36.4C27.61 36.37 27.89 36.3 27.99 36.26C28.1 36.21 28.28 36.16 28.39 36.14C28.5 36.13 28.68 36.08 28.78 36.03C28.88 35.99 29.04 35.94 29.15 35.92C29.25 35.91 29.4 35.86 29.47 35.82C29.54 35.77 29.67 35.73 29.76 35.71C29.84 35.69 30 35.63 30.11 35.58C30.23 35.52 30.35 35.47 30.37 35.47C30.4 35.47 30.54 35.41 30.68 35.34C30.82 35.27 30.97 35.21 31.01 35.21C31.04 35.21 31.14 35.17 31.23 35.11C31.32 35.05 31.41 35 31.43 35C31.45 35 31.54 34.95 31.62 34.9C31.7 34.84 31.82 34.78 31.87 34.76C31.97 34.73 32.08 34.67 32.4 34.46C32.47 34.41 32.56 34.35 32.59 34.33C32.63 34.31 32.75 34.22 32.86 34.15C32.97 34.07 33.08 34.01 33.11 34.01C33.13 34.01 33.17 33.98 33.19 33.95C33.23 33.89 33.49 33.67 33.74 33.47C33.9 33.35 34.33 32.91 34.51 32.7C34.94 32.17 35.05 32.03 35.08 31.94C35.09 31.88 35.16 31.78 35.21 31.71C35.27 31.64 35.31 31.56 35.31 31.54C35.31 31.51 35.36 31.39 35.42 31.27C35.73 30.64 35.78 30.1 35.78 27.34C35.79 25.22 35.78 25.19 35.55 25.45" id="kXsqxkPpT"></path><path d="M18.84 6.16C18.75 6.18 18.73 6.2 18.73 6.28C18.73 6.29 18.73 6.33 18.73 6.39L17.93 6.39L17.13 6.39C17.1 6.45 17.09 6.49 17.09 6.5C17.05 6.6 17.04 6.6 16.62 6.6C16.19 6.6 16.1 6.64 16.1 6.79C16.1 6.86 16.05 6.86 15.64 6.86C15.61 6.86 15.46 6.86 15.19 6.86C15.19 6.93 15.19 6.96 15.19 6.97C15.19 7.08 15.19 7.08 14.85 7.08C14.36 7.08 14.24 7.11 14.24 7.24C14.24 7.33 14.23 7.34 14.01 7.34C13.78 7.34 13.77 7.34 13.77 7.45C13.77 7.55 13.76 7.55 13.44 7.55C13.12 7.55 13.12 7.55 13.07 7.68C13.02 7.8 13 7.81 12.81 7.81C12.63 7.81 12.61 7.82 12.58 7.92C12.56 8.02 12.53 8.03 12.34 8.03C12.14 8.03 12.13 8.03 12.13 8.16C12.13 8.28 12.13 8.29 11.9 8.29C11.67 8.29 11.66 8.29 11.66 8.39C11.66 8.49 11.65 8.5 11.42 8.5C11.19 8.5 11.19 8.5 11.19 8.63C11.19 8.75 11.18 8.76 10.96 8.77C10.76 8.78 10.73 8.79 10.72 8.88C10.71 8.95 10.68 8.97 10.58 8.97C10.47 8.97 10.45 8.99 10.45 9.08C10.45 9.18 10.43 9.19 10.24 9.22C10.07 9.24 10.02 9.26 10.01 9.34C10 9.4 9.96 9.43 9.88 9.44C9.79 9.45 9.76 9.48 9.76 9.56C9.76 9.64 9.74 9.66 9.64 9.67C9.55 9.68 9.52 9.71 9.51 9.8C9.5 9.9 9.48 9.92 9.39 9.92C9.31 9.92 9.29 9.94 9.29 10.03C9.29 10.12 9.27 10.14 9.18 10.14C9.09 10.14 9.07 10.16 9.05 10.27C9.03 10.37 9 10.4 8.92 10.4C8.84 10.4 8.82 10.42 8.82 10.5C8.82 10.59 8.79 10.61 8.71 10.61C8.62 10.61 8.6 10.63 8.6 10.74C8.6 10.86 8.59 10.87 8.47 10.87C8.36 10.87 8.34 10.89 8.34 10.98C8.34 11.06 8.32 11.09 8.23 11.09C8.13 11.09 8.13 11.1 8.13 11.32C8.13 11.56 8.12 11.56 8 11.56C7.88 11.56 7.87 11.57 7.87 11.69C7.87 11.8 7.85 11.82 7.76 11.82C7.66 11.82 7.65 11.83 7.65 12.06C7.65 12.28 7.65 12.29 7.55 12.29C7.42 12.29 7.39 12.36 7.39 12.71C7.39 12.97 7.39 12.98 7.29 12.98C7.28 12.98 7.24 12.98 7.18 12.98L7.18 22.03L7.18 31.08C7.24 31.09 7.28 31.1 7.28 31.1C7.38 31.13 7.39 31.15 7.4 31.46C7.41 31.78 7.42 31.79 7.53 31.8C7.65 31.82 7.65 31.83 7.65 32.05C7.65 32.27 7.66 32.28 7.76 32.28C7.85 32.28 7.86 32.3 7.88 32.51C7.89 32.72 7.9 32.74 8.01 32.75C8.12 32.76 8.13 32.78 8.13 32.97C8.13 33.16 8.14 33.18 8.23 33.21C8.31 33.23 8.34 33.26 8.34 33.34C8.34 33.43 8.36 33.45 8.47 33.45C8.57 33.45 8.6 33.47 8.61 33.57C8.62 33.65 8.65 33.69 8.72 33.7C8.79 33.71 8.82 33.74 8.82 33.82C8.82 33.9 8.84 33.92 8.92 33.92C9.01 33.92 9.04 33.95 9.06 34.05C9.08 34.15 9.11 34.18 9.19 34.18C9.27 34.18 9.29 34.2 9.29 34.29C9.29 34.37 9.31 34.4 9.39 34.4C9.46 34.4 9.5 34.43 9.53 34.52C9.57 34.61 9.61 34.65 9.67 34.65C9.73 34.65 9.76 34.69 9.77 34.75C9.78 34.84 9.81 34.85 10.01 34.86C10.23 34.87 10.24 34.88 10.24 35C10.24 35.11 10.25 35.13 10.34 35.13C10.42 35.13 10.45 35.15 10.46 35.22C10.47 35.31 10.5 35.32 10.7 35.33C10.91 35.35 10.93 35.36 10.93 35.45C10.93 35.54 10.95 35.56 11.05 35.56C11.16 35.56 11.18 35.58 11.19 35.68C11.21 35.79 11.22 35.8 11.43 35.81C11.64 35.82 11.66 35.83 11.66 35.93C11.66 36.03 11.67 36.03 11.89 36.03C12.12 36.03 12.13 36.04 12.14 36.15C12.15 36.26 12.17 36.27 12.38 36.28C12.59 36.29 12.61 36.3 12.61 36.4C12.61 36.5 12.61 36.51 12.95 36.51C12.97 36.51 13.09 36.51 13.3 36.51C13.3 36.58 13.3 36.63 13.3 36.64C13.3 36.76 13.3 36.77 13.53 36.77C13.76 36.77 13.77 36.77 13.77 36.87C13.77 36.98 13.78 36.98 14.12 36.98C14.42 36.98 14.46 36.99 14.46 37.06C14.46 37.21 14.55 37.24 14.99 37.24C15.41 37.24 15.41 37.24 15.41 37.35C15.41 37.35 15.41 37.39 15.41 37.45L15.88 37.45L16.35 37.45L16.36 37.57L16.38 37.69C16.72 37.7 16.91 37.7 16.95 37.7C17.5 37.72 17.51 37.72 17.53 37.81C17.54 37.91 17.55 37.91 18.37 37.92C18.43 37.92 18.7 37.92 19.2 37.93C19.2 37.99 19.2 38.03 19.2 38.03C19.2 38.19 19.16 38.19 22.02 38.19C24.88 38.19 24.84 38.19 24.84 37.99C24.84 37.94 24.99 37.93 25.65 37.92C26.45 37.91 26.46 37.91 26.47 37.81C26.49 37.72 26.5 37.72 27.05 37.7C27.09 37.7 27.28 37.7 27.62 37.69L27.64 37.57L27.65 37.45L28.12 37.45L28.59 37.45C28.59 37.39 28.59 37.35 28.59 37.35C28.59 37.24 28.59 37.24 29 37.24C29.48 37.24 29.54 37.22 29.54 37.08C29.54 36.98 29.55 36.98 29.88 36.98C30.22 36.98 30.23 36.98 30.23 36.87C30.23 36.77 30.24 36.77 30.47 36.77C30.7 36.77 30.7 36.76 30.7 36.64C30.7 36.63 30.7 36.58 30.7 36.51C30.91 36.51 31.02 36.51 31.05 36.51C31.38 36.51 31.39 36.5 31.42 36.4C31.44 36.3 31.47 36.29 31.64 36.29C31.81 36.29 31.84 36.28 31.88 36.16C31.92 36.04 31.95 36.03 32.13 36.03C32.32 36.03 32.34 36.02 32.34 35.93C32.34 35.83 32.36 35.82 32.57 35.81C32.78 35.8 32.79 35.79 32.81 35.68C32.82 35.58 32.84 35.56 32.95 35.56C33.05 35.56 33.07 35.54 33.07 35.45C33.07 35.36 33.09 35.35 33.3 35.33C33.5 35.32 33.53 35.31 33.54 35.22C33.55 35.15 33.58 35.13 33.66 35.13C33.74 35.13 33.76 35.11 33.76 35C33.76 34.88 33.77 34.87 33.99 34.86C34.19 34.85 34.22 34.84 34.23 34.75C34.24 34.69 34.27 34.65 34.32 34.65C34.41 34.65 34.49 34.57 34.49 34.47C34.49 34.42 34.53 34.4 34.6 34.4C34.69 34.4 34.71 34.37 34.71 34.29C34.71 34.21 34.74 34.18 34.83 34.17C34.92 34.16 34.95 34.13 34.96 34.04C34.97 33.95 35 33.92 35.08 33.92C35.16 33.92 35.18 33.9 35.18 33.82C35.18 33.74 35.21 33.71 35.28 33.7C35.35 33.69 35.38 33.65 35.39 33.57C35.4 33.47 35.43 33.45 35.53 33.45C35.64 33.45 35.66 33.43 35.66 33.34C35.66 33.26 35.69 33.23 35.77 33.21C35.86 33.18 35.87 33.16 35.87 32.97C35.87 32.76 35.88 32.76 36 32.76C36.13 32.76 36.13 32.76 36.13 32.52C36.13 32.3 36.14 32.28 36.24 32.28C36.34 32.28 36.35 32.27 36.35 32.05C36.35 31.83 36.35 31.82 36.47 31.8C36.58 31.79 36.58 31.78 36.6 31.46C36.61 31.15 36.62 31.13 36.7 31.11C36.71 31.11 36.74 31.11 36.8 31.1L36.81 22.04L36.82 12.98C36.76 12.98 36.72 12.98 36.71 12.98C36.61 12.98 36.61 12.97 36.61 12.71C36.61 12.36 36.58 12.29 36.45 12.29C36.35 12.29 36.35 12.28 36.35 12.06C36.35 11.83 36.34 11.82 36.24 11.82C36.15 11.82 36.13 11.8 36.13 11.69C36.13 11.57 36.12 11.56 36 11.56C35.87 11.56 35.87 11.56 35.87 11.32C35.87 11.1 35.87 11.09 35.77 11.09C35.68 11.09 35.66 11.06 35.66 10.98C35.66 10.89 35.64 10.87 35.53 10.87C35.41 10.87 35.4 10.86 35.4 10.74C35.4 10.63 35.38 10.61 35.29 10.61C35.21 10.61 35.18 10.59 35.18 10.5C35.18 10.42 35.16 10.4 35.08 10.4C35 10.4 34.97 10.37 34.96 10.28C34.95 10.18 34.92 10.16 34.83 10.15C34.74 10.14 34.71 10.11 34.71 10.03C34.71 9.95 34.69 9.92 34.61 9.92C34.52 9.92 34.5 9.9 34.49 9.8C34.48 9.71 34.45 9.68 34.35 9.67C34.26 9.66 34.24 9.64 34.24 9.56C34.24 9.48 34.21 9.45 34.12 9.44C34.04 9.43 34 9.4 33.99 9.34C33.98 9.26 33.93 9.24 33.76 9.22C33.57 9.19 33.55 9.18 33.55 9.08C33.55 8.99 33.53 8.97 33.42 8.97C33.32 8.97 33.29 8.95 33.28 8.88C33.27 8.79 33.24 8.78 33.04 8.77C32.82 8.76 32.81 8.75 32.81 8.63C32.81 8.5 32.81 8.5 32.58 8.5C32.35 8.5 32.34 8.49 32.34 8.39C32.34 8.29 32.33 8.29 32.13 8.29C31.93 8.29 31.91 8.28 31.9 8.17C31.89 8.06 31.87 8.05 31.66 8.04C31.47 8.02 31.44 8.01 31.43 7.93C31.42 7.85 31.38 7.83 31.2 7.82C31 7.81 30.97 7.8 30.93 7.68C30.88 7.55 30.88 7.55 30.56 7.55C30.24 7.55 30.23 7.55 30.23 7.45C30.23 7.34 30.22 7.34 29.99 7.34C29.77 7.34 29.76 7.33 29.76 7.24C29.76 7.11 29.64 7.08 29.15 7.08C28.81 7.08 28.81 7.08 28.81 6.97C28.81 6.96 28.81 6.93 28.81 6.86C28.54 6.86 28.39 6.86 28.36 6.86C27.95 6.86 27.9 6.86 27.9 6.79C27.9 6.64 27.81 6.6 27.38 6.6C26.96 6.6 26.95 6.6 26.91 6.5C26.91 6.49 26.9 6.45 26.87 6.39L26.1 6.39L25.33 6.39C25.31 6.33 25.3 6.29 25.3 6.29C25.28 6.21 25.24 6.18 25.11 6.16C24.94 6.13 19.04 6.13 18.84 6.16M23.34 7.34C25.11 7.44 25.36 7.46 25.48 7.53C25.55 7.56 25.84 7.61 26.13 7.64C26.43 7.67 26.75 7.72 26.86 7.77C26.97 7.81 27.21 7.86 27.38 7.87C27.56 7.89 27.77 7.94 27.86 7.98C27.94 8.02 28.15 8.08 28.31 8.11C28.48 8.14 28.67 8.2 28.74 8.24C28.81 8.28 28.97 8.33 29.09 8.35C29.21 8.37 29.36 8.42 29.43 8.46C29.51 8.5 29.65 8.55 29.75 8.57C29.85 8.59 30 8.64 30.08 8.7C30.17 8.76 30.27 8.8 30.31 8.8C30.35 8.8 30.5 8.86 30.64 8.93C30.78 9 30.93 9.06 30.97 9.06C31.01 9.06 31.08 9.1 31.14 9.14C31.2 9.18 31.31 9.24 31.39 9.28C31.48 9.31 31.57 9.36 31.61 9.39C31.64 9.42 31.76 9.48 31.87 9.53C32.23 9.71 32.42 9.81 32.51 9.9C32.56 9.94 32.63 10 32.68 10.03C32.72 10.05 32.82 10.11 32.9 10.16C33.04 10.25 33.24 10.4 33.5 10.6C34.04 11.05 35 12.11 35.12 12.4C35.16 12.49 35.22 12.59 35.25 12.62C35.28 12.66 35.33 12.76 35.36 12.86C35.38 12.95 35.44 13.06 35.48 13.11C35.53 13.15 35.58 13.29 35.59 13.42C35.61 13.55 35.66 13.74 35.71 13.86C35.81 14.13 35.82 15.06 35.72 15.33C35.68 15.42 35.63 15.62 35.6 15.77C35.57 15.91 35.5 16.08 35.46 16.14C35.41 16.2 35.35 16.32 35.34 16.4C35.32 16.48 35.27 16.58 35.23 16.62C35.18 16.67 35.14 16.72 35.14 16.75C35.14 16.94 34.25 17.98 33.68 18.45C33.19 18.87 32.94 19.06 32.88 19.06C32.84 19.06 32.8 19.09 32.77 19.14C32.75 19.18 32.67 19.24 32.6 19.27C32.52 19.29 32.41 19.36 32.33 19.42C32.26 19.48 32.18 19.53 32.15 19.53C32.12 19.53 32.06 19.57 32.02 19.61C31.98 19.66 31.89 19.71 31.82 19.72C31.76 19.74 31.64 19.8 31.57 19.85C31.49 19.91 31.36 19.97 31.29 19.99C31.22 20 31.12 20.05 31.07 20.09C31.02 20.13 30.9 20.19 30.79 20.22C30.69 20.25 30.55 20.31 30.49 20.35C30.44 20.4 30.35 20.44 30.29 20.44C30.24 20.44 30.09 20.49 29.96 20.56C29.82 20.64 29.67 20.69 29.62 20.69C29.56 20.69 29.42 20.74 29.3 20.8C29.18 20.86 29.03 20.91 28.96 20.91C28.88 20.91 28.75 20.95 28.66 21C28.56 21.05 28.33 21.11 28.13 21.14C27.94 21.18 27.73 21.23 27.68 21.27C27.62 21.31 27.4 21.36 27.19 21.39C26.99 21.41 26.71 21.47 26.57 21.51C26.44 21.55 26.14 21.6 25.9 21.62C25.66 21.64 25.31 21.69 25.12 21.73C24.2 21.95 19.78 21.95 18.9 21.73C18.72 21.69 18.37 21.64 18.12 21.62C17.87 21.6 17.56 21.55 17.43 21.51C17.3 21.47 17.02 21.41 16.82 21.39C16.58 21.36 16.38 21.31 16.3 21.26C16.22 21.22 16.05 21.16 15.9 21.15C15.76 21.13 15.56 21.08 15.45 21.03C15.34 20.98 15.15 20.93 15.02 20.91C14.9 20.89 14.76 20.84 14.72 20.8C14.68 20.77 14.54 20.72 14.41 20.69C14.28 20.67 14.13 20.61 14.07 20.57C14.01 20.53 13.87 20.47 13.75 20.44C13.63 20.41 13.5 20.36 13.47 20.33C13.43 20.3 13.32 20.25 13.21 20.22C13.1 20.19 12.98 20.13 12.93 20.09C12.88 20.05 12.76 19.99 12.66 19.96C12.56 19.94 12.46 19.89 12.45 19.85C12.44 19.82 12.35 19.77 12.26 19.75C12.17 19.72 12.07 19.67 12.04 19.64C12 19.61 11.9 19.54 11.81 19.49C11.52 19.33 11.32 19.21 11.24 19.13C11.19 19.09 11.14 19.06 11.12 19.06C11.09 19.06 11.03 19.01 10.97 18.96C10.91 18.9 10.81 18.83 10.75 18.8C10.69 18.77 10.61 18.71 10.56 18.66C10.33 18.45 10.18 18.32 10.15 18.32C10.13 18.32 10.1 18.28 10.09 18.24C10.07 18.19 10.01 18.13 9.95 18.1C9.9 18.07 9.84 18.02 9.83 17.98C9.82 17.94 9.76 17.88 9.7 17.86C9.64 17.83 9.59 17.78 9.59 17.75C9.59 17.72 9.54 17.66 9.48 17.62C9.42 17.58 9.38 17.52 9.38 17.49C9.38 17.45 9.34 17.4 9.3 17.37C9.23 17.32 9.08 17.12 8.92 16.86C8.9 16.83 8.84 16.73 8.79 16.64C8.73 16.56 8.68 16.44 8.66 16.36C8.65 16.29 8.6 16.19 8.55 16.15C8.51 16.1 8.45 15.94 8.43 15.8C8.4 15.66 8.35 15.47 8.31 15.37C8.2 15.13 8.2 14.06 8.3 13.84C8.34 13.76 8.39 13.61 8.4 13.5C8.44 13.27 8.51 13.07 8.56 13.07C8.58 13.07 8.62 12.99 8.65 12.88C8.67 12.78 8.73 12.66 8.77 12.62C8.81 12.57 8.86 12.48 8.89 12.41C8.96 12.26 9.24 11.86 9.29 11.86C9.31 11.86 9.34 11.82 9.36 11.77C9.38 11.68 10.34 10.7 10.4 10.7C10.42 10.7 10.53 10.61 10.65 10.5C10.77 10.39 10.93 10.27 11.02 10.22C11.11 10.18 11.19 10.12 11.21 10.09C11.22 10.07 11.3 10.02 11.38 9.99C11.46 9.95 11.53 9.91 11.53 9.89C11.53 9.87 11.61 9.81 11.71 9.77C11.81 9.72 11.93 9.65 11.97 9.61C12.01 9.58 12.1 9.53 12.17 9.52C12.24 9.5 12.33 9.45 12.37 9.4C12.41 9.36 12.47 9.32 12.51 9.32C12.57 9.32 12.7 9.25 12.86 9.14C12.92 9.09 13 9.06 13.04 9.06C13.08 9.06 13.2 9.01 13.3 8.96C13.41 8.9 13.56 8.84 13.64 8.82C13.73 8.81 13.86 8.75 13.94 8.7C14.03 8.64 14.17 8.58 14.26 8.57C14.35 8.55 14.5 8.5 14.58 8.46C14.67 8.41 14.83 8.37 14.93 8.35C15.04 8.33 15.19 8.28 15.26 8.24C15.33 8.2 15.52 8.14 15.69 8.11C15.85 8.08 16.05 8.03 16.12 7.99C16.19 7.96 16.43 7.9 16.65 7.87C16.87 7.84 17.12 7.79 17.19 7.75C17.26 7.72 17.56 7.67 17.85 7.64C18.14 7.61 18.45 7.56 18.54 7.53C18.7 7.46 19.07 7.43 20.73 7.34C21.23 7.31 21.64 7.28 21.66 7.26C21.68 7.24 21.89 7.25 23.34 7.34M35.74 17.72C35.83 17.88 35.78 22.75 35.69 22.93C35.66 23.02 35.61 23.18 35.59 23.3C35.58 23.42 35.52 23.58 35.46 23.67C35.41 23.75 35.35 23.88 35.34 23.95C35.32 24.02 35.27 24.12 35.23 24.16C35.19 24.21 35.14 24.3 35.12 24.35C35 24.74 33.54 26.25 32.97 26.57C32.89 26.61 32.76 26.7 32.66 26.77C32.57 26.84 32.4 26.95 32.28 27.02C31.54 27.44 31.6 27.41 31.05 27.66C30.92 27.72 30.71 27.82 30.59 27.87C30.48 27.93 30.35 27.98 30.32 27.98C30.29 27.98 30.18 28.02 30.07 28.08C29.95 28.14 29.83 28.19 29.79 28.19C29.75 28.19 29.59 28.24 29.44 28.3C29.3 28.35 29.09 28.42 28.98 28.45C28.87 28.48 28.75 28.53 28.7 28.56C28.65 28.59 28.47 28.64 28.29 28.67C28.11 28.7 27.92 28.74 27.85 28.78C27.79 28.81 27.54 28.87 27.3 28.9C27.06 28.94 26.81 29 26.74 29.03C26.68 29.06 26.41 29.11 26.15 29.14C25.9 29.16 25.56 29.22 25.4 29.25C24.38 29.49 19.89 29.48 18.68 29.23C18.46 29.18 18.12 29.13 17.93 29.12C17.75 29.1 17.49 29.05 17.36 29.01C17.23 28.96 16.97 28.91 16.78 28.88C16.58 28.85 16.35 28.8 16.27 28.77C16.19 28.73 15.98 28.67 15.81 28.64C15.63 28.61 15.42 28.54 15.33 28.5C15.24 28.45 15.09 28.4 15 28.39C14.91 28.37 14.76 28.32 14.68 28.28C14.59 28.24 14.45 28.19 14.35 28.17C14.26 28.15 14.1 28.09 13.99 28.04C13.88 27.98 13.77 27.93 13.74 27.93C13.68 27.93 13.49 27.85 12.89 27.57C12.77 27.51 12.62 27.44 12.56 27.42C12.5 27.39 12.36 27.31 12.24 27.24C12.12 27.17 11.94 27.07 11.83 27.01C11.2 26.64 10.53 26.14 10 25.62C9.58 25.21 8.94 24.43 8.94 24.33C8.94 24.3 8.91 24.24 8.86 24.18C8.82 24.12 8.76 24 8.73 23.9C8.7 23.81 8.64 23.67 8.6 23.6C8.36 23.21 8.33 22.78 8.31 20.29C8.3 19.01 8.3 17.94 8.32 17.91C8.35 17.83 8.6 18 8.8 18.24C9.14 18.66 10.01 19.45 10.41 19.7C10.5 19.76 10.69 19.89 10.83 19.98C10.96 20.08 11.13 20.18 11.19 20.21C11.24 20.24 11.39 20.32 11.51 20.39C11.87 20.6 12.5 20.91 12.55 20.91C12.58 20.91 12.62 20.94 12.65 20.97C12.67 21 12.78 21.05 12.89 21.08C13 21.11 13.14 21.16 13.2 21.2C13.33 21.29 13.75 21.44 14.16 21.55C14.31 21.59 14.5 21.66 14.57 21.69C14.64 21.73 14.78 21.78 14.89 21.79C15 21.81 15.16 21.86 15.24 21.91C15.33 21.95 15.54 22.01 15.71 22.03C15.88 22.05 16.07 22.1 16.13 22.13C16.2 22.17 16.47 22.22 16.73 22.26C17 22.3 17.25 22.35 17.29 22.37C17.41 22.43 17.85 22.5 18.25 22.53C18.46 22.54 18.73 22.58 18.86 22.61C19.56 22.8 24.35 22.79 25.12 22.59C25.31 22.54 25.55 22.5 25.65 22.5C25.93 22.5 26.47 22.42 26.64 22.35C26.73 22.31 26.98 22.26 27.2 22.24C27.42 22.22 27.68 22.16 27.78 22.12C27.88 22.07 28.08 22.02 28.23 22.01C28.37 21.99 28.55 21.94 28.62 21.9C28.7 21.85 28.88 21.8 29.03 21.77C29.18 21.74 29.36 21.69 29.43 21.64C29.5 21.6 29.65 21.55 29.76 21.53C29.86 21.52 30.01 21.47 30.08 21.43C30.16 21.38 30.28 21.34 30.36 21.32C30.44 21.3 30.59 21.24 30.68 21.19C30.78 21.14 30.92 21.08 31 21.06C31.09 21.04 31.2 20.99 31.26 20.95C31.31 20.9 31.44 20.85 31.54 20.82C31.63 20.79 31.74 20.74 31.77 20.7C31.8 20.65 31.88 20.61 31.96 20.59C32.04 20.58 32.14 20.53 32.19 20.48C32.24 20.44 32.35 20.38 32.43 20.35C32.52 20.33 32.62 20.27 32.67 20.22C32.71 20.17 32.77 20.13 32.8 20.13C32.83 20.13 32.9 20.1 32.94 20.05C32.99 20 33.1 19.93 33.19 19.88C33.28 19.83 33.44 19.72 33.55 19.64C33.65 19.56 33.79 19.46 33.85 19.41C34.21 19.17 35 18.41 35.44 17.87C35.66 17.61 35.68 17.6 35.74 17.72M35.76 25.42C35.8 25.51 35.79 29.08 35.75 29.76C35.71 30.37 35.6 30.91 35.42 31.27C35.36 31.39 35.31 31.51 35.31 31.54C35.31 31.56 35.27 31.64 35.21 31.71C35.16 31.78 35.09 31.88 35.08 31.94C35.05 32.03 34.94 32.17 34.51 32.7C34.33 32.91 33.9 33.35 33.74 33.47C33.49 33.67 33.23 33.89 33.19 33.95C33.17 33.98 33.13 34.01 33.11 34.01C33.08 34.01 32.97 34.07 32.86 34.15C32.75 34.22 32.63 34.31 32.59 34.33C32.56 34.35 32.47 34.41 32.4 34.46C32.08 34.67 31.97 34.73 31.87 34.76C31.82 34.78 31.7 34.84 31.62 34.9C31.54 34.95 31.45 35 31.43 35C31.41 35 31.32 35.05 31.23 35.11C31.14 35.17 31.04 35.21 31.01 35.21C30.97 35.21 30.82 35.27 30.68 35.34C30.54 35.41 30.4 35.47 30.37 35.47C30.35 35.47 30.23 35.52 30.11 35.58C30 35.63 29.84 35.69 29.76 35.71C29.67 35.73 29.54 35.77 29.47 35.82C29.4 35.86 29.25 35.91 29.15 35.92C29.04 35.94 28.88 35.99 28.78 36.03C28.68 36.08 28.5 36.13 28.39 36.14C28.28 36.16 28.1 36.21 27.99 36.26C27.89 36.3 27.61 36.37 27.38 36.4C27.15 36.43 26.92 36.48 26.87 36.51C26.82 36.53 26.53 36.59 26.23 36.62C25.93 36.65 25.58 36.71 25.45 36.75C25.21 36.81 24.21 36.89 23.27 36.91C22.99 36.92 22.7 36.95 22.63 36.97C22.46 37.04 21.59 37.04 21.35 36.96C21.24 36.93 20.82 36.89 20.34 36.88C19.4 36.84 18.86 36.79 18.62 36.7C18.52 36.67 18.21 36.62 17.93 36.59C17.59 36.56 17.38 36.52 17.31 36.48C17.25 36.44 17.01 36.38 16.75 36.35C16.46 36.32 16.28 36.27 16.23 36.23C16.18 36.18 16.01 36.14 15.81 36.11C15.59 36.08 15.44 36.04 15.38 35.98C15.33 35.93 15.19 35.89 15 35.87C14.81 35.84 14.7 35.81 14.67 35.76C14.65 35.72 14.52 35.67 14.38 35.64C14.25 35.61 14.09 35.56 14.04 35.51C13.98 35.47 13.85 35.42 13.74 35.41C13.62 35.39 13.51 35.35 13.49 35.32C13.42 35.24 13.27 35.17 13.15 35.17C13.1 35.17 13 35.12 12.94 35.07C12.87 35.01 12.75 34.95 12.67 34.93C12.59 34.92 12.5 34.87 12.48 34.82C12.45 34.78 12.35 34.72 12.24 34.69C12.13 34.67 12.05 34.63 12.05 34.61C12.05 34.59 11.96 34.53 11.86 34.48C11.76 34.43 11.65 34.35 11.6 34.3C11.56 34.26 11.49 34.22 11.44 34.22C11.4 34.22 11.34 34.19 11.32 34.14C11.29 34.09 11.2 34.03 11.12 34C11.04 33.97 10.94 33.9 10.9 33.85C10.87 33.79 10.81 33.75 10.78 33.75C10.75 33.75 10.69 33.7 10.65 33.64C10.61 33.58 10.55 33.53 10.52 33.53C10.48 33.53 10.43 33.49 10.4 33.43C10.38 33.37 10.31 33.31 10.25 33.3C10.2 33.29 10.15 33.26 10.15 33.24C10.15 33.22 10 33.04 9.81 32.85C9.62 32.66 9.46 32.49 9.46 32.47C9.46 32.45 9.41 32.39 9.35 32.34C9.29 32.28 9.25 32.22 9.25 32.18C9.25 32.15 9.2 32.07 9.14 32.01C9.08 31.94 9.02 31.84 9 31.79C8.99 31.73 8.94 31.66 8.9 31.64C8.85 31.61 8.81 31.52 8.79 31.43C8.75 31.18 8.73 31.14 8.64 31.04C8.6 30.98 8.55 30.85 8.54 30.74C8.52 30.63 8.49 30.39 8.47 30.22C8.38 29.55 8.42 25.93 8.51 25.82C8.56 25.76 8.6 25.73 8.6 25.76C8.6 25.87 9.55 26.86 9.66 26.86C9.68 26.86 9.75 26.9 9.8 26.96C9.85 27.02 9.92 27.07 9.95 27.07C9.98 27.07 10.03 27.12 10.06 27.18C10.08 27.24 10.13 27.29 10.16 27.29C10.2 27.29 10.27 27.33 10.32 27.39C10.38 27.45 10.49 27.52 10.57 27.55C10.65 27.57 10.71 27.61 10.71 27.64C10.71 27.66 10.78 27.71 10.87 27.75C10.96 27.78 11.06 27.85 11.09 27.89C11.12 27.94 11.21 27.98 11.29 28C11.38 28.02 11.46 28.05 11.48 28.08C11.52 28.15 11.68 28.23 11.78 28.23C11.82 28.23 11.9 28.27 11.94 28.32C11.98 28.37 12.1 28.43 12.19 28.46C12.29 28.49 12.4 28.54 12.45 28.59C12.49 28.63 12.6 28.68 12.69 28.69C12.79 28.71 12.91 28.75 12.96 28.8C13.01 28.84 13.12 28.89 13.21 28.91C13.38 28.94 13.5 28.99 13.58 29.08C13.61 29.1 13.73 29.14 13.84 29.16C13.96 29.18 14.11 29.23 14.18 29.27C14.26 29.32 14.44 29.37 14.59 29.39C14.74 29.41 14.87 29.45 14.89 29.48C14.93 29.55 15.17 29.61 15.38 29.61C15.47 29.61 15.63 29.66 15.74 29.72C15.88 29.79 16.05 29.83 16.28 29.84C16.47 29.86 16.68 29.9 16.75 29.94C16.83 29.98 17.09 30.03 17.34 30.05C17.59 30.07 17.94 30.13 18.12 30.18C18.35 30.24 18.68 30.27 19.26 30.3C19.71 30.32 20.14 30.36 20.22 30.38C20.61 30.5 23.19 30.48 23.79 30.34C23.89 30.32 24.31 30.28 24.74 30.26C25.28 30.23 25.59 30.19 25.77 30.13C25.91 30.08 26.24 30.03 26.5 30C26.79 29.98 27.03 29.94 27.12 29.89C27.2 29.85 27.43 29.8 27.63 29.78C27.87 29.76 28.05 29.71 28.14 29.66C28.22 29.61 28.42 29.55 28.58 29.53C28.75 29.51 28.93 29.46 28.99 29.42C29.05 29.39 29.21 29.33 29.34 29.31C29.48 29.28 29.65 29.23 29.72 29.18C29.8 29.14 29.95 29.09 30.04 29.07C30.15 29.06 30.27 29.01 30.33 28.96C30.39 28.92 30.53 28.86 30.64 28.84C30.75 28.81 30.89 28.76 30.95 28.71C31 28.67 31.12 28.62 31.21 28.6C31.3 28.59 31.42 28.53 31.49 28.47C31.55 28.42 31.67 28.36 31.75 28.34C31.82 28.32 31.93 28.28 31.97 28.24C32.02 28.19 32.12 28.14 32.2 28.11C32.28 28.09 32.39 28.03 32.46 27.98C32.52 27.93 32.59 27.89 32.62 27.89C32.65 27.89 32.7 27.86 32.73 27.82C32.77 27.78 32.86 27.72 32.94 27.68C33.11 27.6 33.26 27.5 33.48 27.32C33.56 27.25 33.64 27.2 33.67 27.2C33.7 27.2 33.77 27.15 33.85 27.08C33.92 27.02 34.04 26.91 34.11 26.86C34.18 26.8 34.49 26.51 34.78 26.21C35.08 25.91 35.35 25.64 35.39 25.61C35.43 25.57 35.5 25.5 35.55 25.45C35.65 25.33 35.73 25.32 35.76 25.42" id="hsYTck6VR"></path><path d="M20.34 7.51C19.72 7.54 19.37 7.57 19.22 7.62C19.1 7.65 18.74 7.7 18.42 7.73C18.06 7.75 17.75 7.8 17.61 7.86C17.47 7.9 17.19 7.96 16.97 7.98C16.71 8 16.54 8.04 16.49 8.08C16.45 8.12 16.26 8.18 16.07 8.2C15.88 8.23 15.66 8.29 15.57 8.33C15.48 8.38 15.32 8.43 15.2 8.44C15.09 8.46 14.94 8.51 14.86 8.55C14.79 8.59 14.61 8.65 14.48 8.68C14.34 8.7 14.18 8.76 14.14 8.8C14.09 8.85 13.97 8.89 13.88 8.91C13.78 8.93 13.65 8.98 13.59 9.02C13.53 9.06 13.38 9.12 13.27 9.15C13.15 9.18 13.04 9.24 13.01 9.28C12.98 9.32 12.89 9.37 12.81 9.38C12.73 9.4 12.6 9.46 12.52 9.51C12.44 9.57 12.32 9.63 12.25 9.64C12.19 9.66 12.11 9.71 12.06 9.75C12.02 9.8 11.97 9.84 11.94 9.84C11.92 9.84 11.82 9.9 11.73 9.97C11.63 10.04 11.53 10.09 11.5 10.09C11.47 10.09 11.4 10.14 11.35 10.2C11.3 10.26 11.23 10.31 11.21 10.31C11.18 10.31 11.09 10.37 11.02 10.44C10.95 10.51 10.87 10.57 10.84 10.57C10.82 10.57 10.74 10.62 10.67 10.69C10.6 10.75 10.48 10.85 10.41 10.91C10.17 11.11 9.68 11.6 9.68 11.64C9.68 11.66 9.63 11.71 9.57 11.75C9.51 11.79 9.46 11.85 9.46 11.88C9.46 11.92 9.42 11.97 9.38 12C9.33 12.04 9.26 12.13 9.23 12.22C9.19 12.31 9.14 12.38 9.11 12.38C9.09 12.38 9.04 12.45 9 12.54C8.97 12.63 8.9 12.74 8.86 12.8C8.82 12.85 8.77 12.97 8.75 13.06C8.74 13.14 8.68 13.27 8.63 13.34C8.38 13.69 8.39 15.35 8.65 15.89C8.72 16.04 8.77 16.19 8.77 16.23C8.77 16.27 8.82 16.37 8.88 16.44C8.94 16.51 8.99 16.6 8.99 16.65C8.99 16.69 9.03 16.77 9.09 16.82C9.15 16.87 9.22 16.97 9.25 17.04C9.28 17.11 9.31 17.16 9.33 17.16C9.34 17.16 9.39 17.22 9.44 17.3C9.48 17.38 9.57 17.48 9.62 17.52C9.68 17.56 9.72 17.62 9.72 17.65C9.72 17.68 9.77 17.73 9.82 17.75C9.88 17.78 9.94 17.84 9.96 17.89C9.97 17.94 10.01 17.98 10.04 17.98C10.07 17.98 10.14 18.03 10.2 18.1C10.26 18.16 10.34 18.24 10.37 18.27C10.4 18.3 10.45 18.34 10.47 18.37C10.56 18.46 10.93 18.71 10.97 18.71C10.99 18.71 11.04 18.76 11.08 18.82C11.12 18.88 11.18 18.93 11.21 18.93C11.24 18.93 11.31 18.97 11.36 19.01C11.41 19.06 11.52 19.13 11.61 19.17C11.71 19.21 11.79 19.26 11.8 19.29C11.82 19.32 11.9 19.37 11.99 19.4C12.08 19.43 12.18 19.49 12.21 19.53C12.24 19.58 12.32 19.62 12.39 19.64C12.45 19.65 12.57 19.71 12.65 19.77C12.73 19.83 12.84 19.88 12.89 19.88C12.94 19.88 13.04 19.92 13.11 19.98C13.18 20.04 13.31 20.1 13.4 20.11C13.48 20.13 13.6 20.18 13.65 20.22C13.71 20.26 13.83 20.31 13.92 20.33C14.02 20.35 14.18 20.41 14.29 20.46C14.39 20.52 14.57 20.57 14.68 20.59C14.79 20.6 14.92 20.65 14.97 20.69C15.02 20.74 15.17 20.8 15.35 20.82C15.51 20.85 15.72 20.91 15.81 20.95C15.91 20.99 16.1 21.04 16.24 21.06C16.38 21.07 16.59 21.12 16.7 21.17C16.81 21.22 17.06 21.28 17.29 21.3C17.51 21.32 17.76 21.37 17.85 21.41C17.95 21.45 18.24 21.49 18.57 21.51C19.36 21.57 19.61 21.6 19.93 21.67C20.34 21.77 23.64 21.77 24.11 21.67C24.53 21.58 24.71 21.56 25.4 21.52C25.74 21.49 26.05 21.45 26.14 21.41C26.23 21.37 26.48 21.33 26.71 21.3C26.94 21.28 27.2 21.22 27.31 21.18C27.41 21.13 27.61 21.08 27.75 21.06C27.89 21.04 28.1 20.99 28.2 20.95C28.3 20.9 28.51 20.85 28.67 20.82C28.82 20.8 29 20.74 29.05 20.69C29.11 20.65 29.25 20.6 29.36 20.58C29.47 20.57 29.62 20.52 29.69 20.48C29.76 20.43 29.92 20.38 30.04 20.35C30.15 20.32 30.29 20.26 30.35 20.22C30.4 20.18 30.52 20.13 30.61 20.11C30.7 20.1 30.81 20.05 30.85 20.01C30.9 19.96 31.02 19.9 31.12 19.88C31.22 19.85 31.32 19.8 31.35 19.77C31.38 19.74 31.47 19.68 31.56 19.66C31.64 19.63 31.77 19.56 31.84 19.5C31.9 19.45 31.99 19.4 32.02 19.4C32.05 19.4 32.13 19.36 32.2 19.3C32.26 19.25 32.38 19.18 32.46 19.15C32.53 19.12 32.63 19.05 32.67 19.01C32.71 18.96 32.77 18.93 32.8 18.93C32.83 18.93 32.87 18.9 32.89 18.86C32.9 18.82 32.97 18.76 33.05 18.73C33.19 18.65 33.41 18.48 33.59 18.3C33.65 18.24 33.72 18.2 33.75 18.2C33.78 18.2 33.81 18.16 33.83 18.11C33.84 18.06 33.87 18.02 33.89 18.02C33.99 18.02 34.8 17.08 34.8 16.96C34.8 16.93 34.84 16.87 34.9 16.83C34.96 16.8 35.01 16.73 35.01 16.69C35.01 16.65 35.06 16.54 35.12 16.46C35.18 16.37 35.25 16.22 35.27 16.12C35.3 16.02 35.35 15.9 35.38 15.87C35.62 15.6 35.6 13.63 35.36 13.29C35.31 13.23 35.27 13.11 35.25 13.02C35.24 12.93 35.19 12.83 35.14 12.79C35.1 12.75 35.05 12.66 35.03 12.59C35.02 12.52 34.97 12.44 34.92 12.41C34.88 12.38 34.81 12.28 34.78 12.2C34.74 12.12 34.68 12.02 34.64 11.98C34.59 11.94 34.51 11.85 34.45 11.77C34.23 11.5 33.31 10.61 33.24 10.61C33.23 10.61 33.13 10.54 33.03 10.46C32.93 10.38 32.83 10.31 32.82 10.31C32.8 10.31 32.73 10.26 32.67 10.2C32.6 10.14 32.53 10.09 32.5 10.09C32.46 10.09 32.37 10.04 32.28 9.97C32.19 9.89 32.09 9.84 32.06 9.84C32.03 9.84 31.98 9.8 31.94 9.76C31.9 9.71 31.79 9.65 31.7 9.63C31.61 9.6 31.51 9.55 31.48 9.51C31.45 9.48 31.35 9.43 31.26 9.4C31.17 9.38 31.06 9.32 31.02 9.28C30.97 9.24 30.85 9.18 30.73 9.15C30.62 9.12 30.47 9.06 30.41 9.02C30.35 8.98 30.22 8.93 30.14 8.91C30.05 8.9 29.93 8.85 29.87 8.8C29.81 8.75 29.65 8.69 29.51 8.67C29.37 8.64 29.23 8.59 29.19 8.56C29.15 8.53 29 8.48 28.85 8.45C28.69 8.43 28.51 8.37 28.44 8.33C28.37 8.29 28.19 8.24 28.03 8.22C27.88 8.2 27.65 8.15 27.54 8.09C27.4 8.03 27.19 7.98 26.96 7.97C26.76 7.95 26.51 7.9 26.4 7.86C26.26 7.8 26.01 7.76 25.6 7.73C25.27 7.71 24.91 7.66 24.8 7.62C24.45 7.5 22.25 7.44 20.34 7.51M35.38 18.21C35.36 18.27 35.31 18.33 35.27 18.35C35.22 18.36 35.18 18.41 35.16 18.46C35.15 18.51 35.09 18.57 35.03 18.59C34.97 18.62 34.93 18.67 34.93 18.7C34.93 18.73 34.88 18.78 34.82 18.8C34.77 18.83 34.7 18.9 34.67 18.95C34.65 19.01 34.6 19.06 34.57 19.06C34.53 19.06 34.47 19.11 34.43 19.16C34.4 19.22 34.34 19.27 34.32 19.27C34.29 19.27 34.21 19.33 34.14 19.4C33.86 19.67 33.82 19.7 33.66 19.77C33.57 19.8 33.5 19.85 33.5 19.88C33.5 19.9 33.45 19.94 33.37 19.97C33.3 19.99 33.23 20.05 33.2 20.09C33.18 20.13 33.09 20.19 32.99 20.22C32.89 20.25 32.81 20.29 32.81 20.32C32.81 20.34 32.74 20.39 32.65 20.43C32.56 20.47 32.43 20.54 32.35 20.6C32.28 20.65 32.19 20.69 32.16 20.69C32.12 20.69 32.04 20.73 31.98 20.78C31.92 20.83 31.79 20.9 31.69 20.93C31.59 20.97 31.47 21.02 31.44 21.06C31.4 21.09 31.29 21.14 31.19 21.17C31.08 21.19 30.97 21.25 30.92 21.29C30.88 21.34 30.76 21.38 30.66 21.4C30.56 21.42 30.43 21.47 30.37 21.51C30.3 21.56 30.14 21.61 30 21.64C29.86 21.66 29.71 21.71 29.67 21.74C29.64 21.78 29.5 21.83 29.37 21.85C29.24 21.88 29.06 21.94 28.97 21.99C28.89 22.04 28.69 22.09 28.54 22.1C28.39 22.12 28.19 22.17 28.1 22.21C28.01 22.26 27.76 22.31 27.54 22.34C27.33 22.36 27.12 22.41 27.08 22.44C26.99 22.52 26.89 22.54 26.37 22.59C26.11 22.61 25.82 22.66 25.73 22.7C25.6 22.75 25.33 22.78 24.74 22.81C24.24 22.84 23.83 22.88 23.7 22.92C23.13 23.09 20.05 23.11 19.94 22.95C19.88 22.86 19.84 22.85 19.51 22.85C19.49 22.85 19.37 22.85 19.15 22.85C19.3 23.01 19.38 23.1 19.4 23.11C20.2 23.96 20.67 24.38 21.11 24.65C21.18 24.69 21.31 24.78 21.39 24.86C21.48 24.93 21.75 25.1 22 25.23C22.25 25.36 22.53 25.51 22.62 25.55C23.27 25.89 24.86 26.47 25.14 26.47C25.21 26.47 25.35 26.5 25.45 26.54C25.67 26.61 26.01 26.68 26.48 26.73C26.66 26.75 26.99 26.79 27.21 26.82C27.44 26.84 27.9 26.87 28.25 26.87C28.59 26.87 29.06 26.84 29.28 26.82C29.51 26.79 29.84 26.75 30.01 26.73C30.49 26.68 30.83 26.61 31.04 26.54C31.15 26.5 31.29 26.47 31.37 26.47C31.54 26.46 33.25 25.89 33.31 25.81C33.33 25.78 33.4 25.72 33.47 25.69C33.81 25.5 34.02 25.37 34.02 25.34C34.02 25.31 34.07 25.24 34.14 25.18C34.34 24.99 34.54 24.73 34.54 24.67C34.54 24.64 34.58 24.59 34.64 24.57C34.7 24.55 34.75 24.49 34.76 24.43C34.77 24.37 34.81 24.33 34.87 24.32C34.94 24.31 34.96 24.27 34.98 24.14C35 24.03 35.05 23.93 35.12 23.86C35.19 23.79 35.23 23.71 35.23 23.61C35.23 23.51 35.27 23.41 35.33 23.34C35.54 23.09 35.66 18.19 35.46 18.12C35.43 18.11 35.39 18.15 35.38 18.21" id="ghwnbbVqv"></path><path d="M21.66 7.26C21.64 7.28 21.23 7.31 20.73 7.34C19.07 7.43 18.7 7.46 18.54 7.53C18.45 7.56 18.14 7.61 17.85 7.64C17.56 7.67 17.26 7.72 17.19 7.75C17.12 7.79 16.87 7.84 16.65 7.87C16.43 7.9 16.19 7.96 16.12 7.99C16.05 8.03 15.85 8.08 15.69 8.11C15.52 8.14 15.33 8.2 15.26 8.24C15.19 8.28 15.04 8.33 14.93 8.35C14.83 8.37 14.67 8.41 14.58 8.46C14.5 8.5 14.35 8.55 14.26 8.57C14.17 8.58 14.03 8.64 13.94 8.7C13.86 8.75 13.73 8.81 13.64 8.82C13.56 8.84 13.41 8.9 13.3 8.96C13.2 9.01 13.08 9.06 13.04 9.06C13 9.06 12.92 9.09 12.86 9.14C12.7 9.25 12.57 9.32 12.51 9.32C12.47 9.32 12.41 9.36 12.37 9.4C12.33 9.45 12.24 9.5 12.17 9.52C12.1 9.53 12.01 9.58 11.97 9.61C11.93 9.65 11.81 9.72 11.71 9.77C11.61 9.81 11.53 9.87 11.53 9.89C11.53 9.91 11.46 9.95 11.38 9.99C11.3 10.02 11.22 10.07 11.21 10.09C11.19 10.12 11.11 10.18 11.02 10.22C10.93 10.27 10.77 10.39 10.65 10.5C10.53 10.61 10.42 10.7 10.4 10.7C10.34 10.7 9.38 11.68 9.36 11.77C9.34 11.82 9.31 11.86 9.29 11.86C9.24 11.86 8.96 12.26 8.89 12.41C8.86 12.48 8.81 12.57 8.77 12.62C8.73 12.66 8.67 12.78 8.65 12.88C8.62 12.99 8.58 13.07 8.56 13.07C8.51 13.07 8.44 13.27 8.4 13.5C8.39 13.61 8.34 13.76 8.3 13.84C8.2 14.06 8.2 15.13 8.31 15.37C8.35 15.47 8.4 15.66 8.43 15.8C8.45 15.94 8.51 16.1 8.55 16.15C8.6 16.19 8.65 16.29 8.66 16.36C8.68 16.44 8.73 16.56 8.79 16.64C8.84 16.73 8.9 16.83 8.92 16.86C9.08 17.12 9.23 17.32 9.3 17.37C9.34 17.4 9.38 17.45 9.38 17.49C9.38 17.52 9.42 17.58 9.48 17.62C9.54 17.66 9.59 17.72 9.59 17.75C9.59 17.78 9.64 17.83 9.7 17.86C9.76 17.88 9.82 17.94 9.83 17.98C9.84 18.02 9.9 18.07 9.95 18.1C10.01 18.13 10.07 18.19 10.09 18.24C10.1 18.28 10.13 18.32 10.15 18.32C10.18 18.32 10.33 18.45 10.56 18.66C10.61 18.71 10.69 18.77 10.75 18.8C10.81 18.83 10.91 18.9 10.97 18.96C11.03 19.01 11.09 19.06 11.12 19.06C11.14 19.06 11.19 19.09 11.24 19.13C11.32 19.21 11.52 19.33 11.81 19.49C11.9 19.54 12 19.61 12.04 19.64C12.07 19.67 12.17 19.72 12.26 19.75C12.35 19.77 12.44 19.82 12.45 19.85C12.46 19.89 12.56 19.94 12.66 19.96C12.76 19.99 12.88 20.05 12.93 20.09C12.98 20.13 13.1 20.19 13.21 20.22C13.32 20.25 13.43 20.3 13.47 20.33C13.5 20.36 13.63 20.41 13.75 20.44C13.87 20.47 14.01 20.53 14.07 20.57C14.13 20.61 14.28 20.67 14.41 20.69C14.54 20.72 14.68 20.77 14.72 20.8C14.76 20.84 14.9 20.89 15.02 20.91C15.15 20.93 15.34 20.98 15.45 21.03C15.56 21.08 15.76 21.13 15.9 21.15C16.05 21.16 16.22 21.22 16.3 21.26C16.38 21.31 16.58 21.36 16.82 21.39C17.02 21.41 17.3 21.47 17.43 21.51C17.56 21.55 17.87 21.6 18.12 21.62C18.37 21.64 18.72 21.69 18.9 21.73C19.78 21.95 24.2 21.95 25.12 21.73C25.31 21.69 25.66 21.64 25.9 21.62C26.14 21.6 26.44 21.55 26.57 21.51C26.71 21.47 26.99 21.41 27.19 21.39C27.4 21.36 27.62 21.31 27.68 21.27C27.73 21.23 27.94 21.18 28.13 21.14C28.33 21.11 28.56 21.05 28.66 21C28.75 20.95 28.88 20.91 28.96 20.91C29.03 20.91 29.18 20.86 29.3 20.8C29.42 20.74 29.56 20.69 29.62 20.69C29.67 20.69 29.82 20.64 29.96 20.56C30.09 20.49 30.24 20.44 30.29 20.44C30.35 20.44 30.44 20.4 30.49 20.35C30.55 20.31 30.69 20.25 30.79 20.22C30.9 20.19 31.02 20.13 31.07 20.09C31.12 20.05 31.22 20 31.29 19.99C31.36 19.97 31.49 19.91 31.57 19.85C31.64 19.8 31.76 19.74 31.82 19.72C31.89 19.71 31.98 19.66 32.02 19.61C32.06 19.57 32.12 19.53 32.15 19.53C32.18 19.53 32.26 19.48 32.33 19.42C32.41 19.36 32.52 19.29 32.6 19.27C32.67 19.24 32.75 19.18 32.77 19.14C32.8 19.09 32.84 19.06 32.88 19.06C32.94 19.06 33.19 18.87 33.68 18.45C34.25 17.98 35.14 16.94 35.14 16.75C35.14 16.72 35.18 16.67 35.23 16.62C35.27 16.58 35.32 16.48 35.34 16.4C35.35 16.32 35.41 16.2 35.46 16.14C35.5 16.08 35.57 15.91 35.6 15.77C35.63 15.62 35.68 15.42 35.72 15.33C35.82 15.06 35.81 14.13 35.71 13.86C35.66 13.74 35.61 13.55 35.59 13.42C35.58 13.29 35.53 13.15 35.48 13.11C35.44 13.06 35.38 12.95 35.36 12.86C35.33 12.76 35.28 12.66 35.25 12.62C35.22 12.59 35.16 12.49 35.12 12.4C35 12.11 34.04 11.05 33.5 10.6C33.24 10.4 33.04 10.25 32.9 10.16C32.82 10.11 32.72 10.05 32.68 10.03C32.63 10 32.56 9.94 32.51 9.9C32.42 9.81 32.23 9.71 31.87 9.53C31.76 9.48 31.64 9.42 31.61 9.39C31.57 9.36 31.48 9.31 31.39 9.28C31.31 9.24 31.2 9.18 31.14 9.14C31.08 9.1 31.01 9.06 30.97 9.06C30.93 9.06 30.78 9 30.64 8.93C30.5 8.86 30.35 8.8 30.31 8.8C30.27 8.8 30.17 8.76 30.08 8.7C30 8.64 29.85 8.59 29.75 8.57C29.65 8.55 29.51 8.5 29.43 8.46C29.36 8.42 29.21 8.37 29.09 8.35C28.97 8.33 28.81 8.28 28.74 8.24C28.67 8.2 28.48 8.14 28.31 8.11C28.15 8.08 27.94 8.02 27.86 7.98C27.77 7.94 27.56 7.89 27.38 7.87C27.21 7.86 26.97 7.81 26.86 7.77C26.75 7.72 26.43 7.67 26.13 7.64C25.84 7.61 25.55 7.56 25.48 7.53C25.36 7.46 25.11 7.44 23.34 7.34C21.89 7.25 21.68 7.24 21.66 7.26M24.18 7.47C24.55 7.49 24.99 7.54 25.15 7.58C25.3 7.61 25.63 7.66 25.88 7.69C26.13 7.71 26.47 7.76 26.63 7.81C26.8 7.86 27.05 7.91 27.19 7.92C27.33 7.94 27.57 7.99 27.71 8.05C27.85 8.1 28.06 8.16 28.18 8.17C28.3 8.19 28.48 8.24 28.58 8.28C28.67 8.33 28.84 8.38 28.94 8.39C29.05 8.41 29.2 8.46 29.28 8.5C29.37 8.54 29.51 8.59 29.6 8.61C29.69 8.63 29.88 8.7 30 8.77C30.13 8.83 30.27 8.89 30.3 8.89C30.33 8.89 30.45 8.94 30.56 9C30.68 9.06 30.8 9.1 30.84 9.1C30.88 9.1 30.97 9.15 31.05 9.2C31.14 9.26 31.27 9.33 31.35 9.36C31.43 9.38 31.53 9.43 31.56 9.46C31.6 9.49 31.7 9.55 31.78 9.58C31.86 9.61 31.98 9.67 32.04 9.71C32.32 9.9 32.4 9.95 32.53 10.03C32.6 10.08 32.73 10.16 32.81 10.2C32.94 10.28 33.1 10.4 33.43 10.66C33.88 11.02 34.66 11.86 34.91 12.25C35.22 12.73 35.27 12.82 35.3 12.93C35.31 12.99 35.36 13.11 35.41 13.19C35.51 13.36 35.7 14.26 35.7 14.6C35.7 15.21 35.42 16.15 35.09 16.69C35.03 16.78 34.95 16.91 34.9 16.99C34.65 17.41 33.84 18.25 33.35 18.61C33.21 18.71 33.06 18.82 33.02 18.86C32.98 18.89 32.91 18.94 32.86 18.97C32.82 18.99 32.75 19.04 32.72 19.07C32.69 19.11 32.58 19.18 32.47 19.23C32.08 19.45 32.04 19.48 31.98 19.53C31.88 19.61 31.26 19.92 31.2 19.92C31.17 19.92 31.09 19.97 31.01 20.02C30.93 20.08 30.8 20.14 30.73 20.16C30.66 20.17 30.51 20.23 30.4 20.29C30.3 20.35 30.18 20.39 30.14 20.39C30.11 20.39 29.98 20.44 29.86 20.5C29.74 20.56 29.62 20.61 29.58 20.61C29.54 20.61 29.37 20.67 29.2 20.74C29.04 20.81 28.86 20.87 28.81 20.87C28.76 20.87 28.62 20.9 28.5 20.95C28.37 21 28.12 21.06 27.94 21.1C27.76 21.13 27.55 21.19 27.48 21.23C27.41 21.26 27.17 21.32 26.95 21.34C26.74 21.37 26.48 21.42 26.38 21.45C26.28 21.49 25.92 21.54 25.58 21.58C25.23 21.61 24.86 21.66 24.76 21.68C23.92 21.87 20.32 21.86 19.16 21.67C18.95 21.63 18.56 21.58 18.28 21.56C18 21.53 17.73 21.49 17.69 21.47C17.64 21.44 17.41 21.4 17.16 21.36C16.92 21.32 16.62 21.26 16.51 21.21C16.39 21.17 16.16 21.11 15.99 21.08C15.83 21.06 15.65 21.01 15.58 20.98C15.52 20.95 15.36 20.9 15.21 20.87C15.07 20.84 14.91 20.79 14.86 20.75C14.81 20.72 14.64 20.66 14.5 20.62C14.35 20.59 14.17 20.52 14.1 20.47C14.02 20.43 13.93 20.39 13.89 20.39C13.85 20.39 13.72 20.35 13.61 20.29C13.5 20.23 13.34 20.17 13.27 20.16C13.19 20.14 13.09 20.09 13.03 20.04C12.98 20 12.86 19.94 12.77 19.92C12.68 19.89 12.6 19.85 12.58 19.83C12.57 19.8 12.46 19.74 12.33 19.68C12.07 19.56 11.75 19.37 11.66 19.29C11.62 19.26 11.57 19.23 11.54 19.23C11.52 19.23 11.43 19.18 11.34 19.11C11.26 19.05 11.09 18.92 10.96 18.83C10.6 18.57 10.55 18.53 10.27 18.28C9.73 17.79 9.2 17.22 9.2 17.12C9.2 17.1 9.15 17.02 9.08 16.94C8.97 16.79 8.84 16.54 8.59 16C8.41 15.6 8.27 14.72 8.33 14.35C8.44 13.64 8.52 13.31 8.59 13.2C8.64 13.14 8.69 13.03 8.7 12.95C8.72 12.88 8.78 12.76 8.84 12.68C8.9 12.6 8.94 12.52 8.94 12.5C8.94 12.16 10.69 10.45 11.44 10.06C11.5 10.02 11.59 9.96 11.64 9.92C11.73 9.84 11.86 9.77 12.2 9.6C12.33 9.54 12.44 9.48 12.45 9.45C12.47 9.43 12.55 9.39 12.64 9.36C12.73 9.33 12.87 9.26 12.95 9.21C13.03 9.15 13.13 9.1 13.17 9.1C13.21 9.1 13.33 9.06 13.44 9C13.55 8.94 13.71 8.88 13.79 8.86C13.87 8.85 13.99 8.8 14.04 8.76C14.09 8.72 14.24 8.65 14.37 8.62C14.5 8.58 14.7 8.52 14.8 8.48C15.18 8.35 15.43 8.28 15.69 8.22C15.83 8.18 16.09 8.11 16.27 8.05C16.45 7.99 16.72 7.93 16.87 7.92C17.03 7.9 17.26 7.85 17.39 7.81C17.52 7.77 17.79 7.72 17.97 7.71C18.16 7.69 18.58 7.63 18.9 7.57C19.87 7.4 22.15 7.35 24.18 7.47M35.44 17.87C35 18.41 34.21 19.17 33.85 19.41C33.79 19.46 33.65 19.56 33.55 19.64C33.44 19.72 33.28 19.83 33.19 19.88C33.1 19.93 32.99 20 32.94 20.05C32.9 20.1 32.83 20.13 32.8 20.13C32.77 20.13 32.71 20.17 32.67 20.22C32.62 20.27 32.52 20.33 32.43 20.35C32.35 20.38 32.24 20.44 32.19 20.48C32.14 20.53 32.04 20.58 31.96 20.59C31.88 20.61 31.8 20.65 31.77 20.7C31.74 20.74 31.63 20.79 31.54 20.82C31.44 20.85 31.31 20.9 31.26 20.95C31.2 20.99 31.09 21.04 31 21.06C30.92 21.08 30.78 21.14 30.68 21.19C30.59 21.24 30.44 21.3 30.36 21.32C30.28 21.34 30.16 21.38 30.08 21.43C30.01 21.47 29.86 21.52 29.76 21.53C29.65 21.55 29.5 21.6 29.43 21.64C29.36 21.69 29.18 21.74 29.03 21.77C28.88 21.8 28.7 21.85 28.62 21.9C28.55 21.94 28.37 21.99 28.23 22.01C28.08 22.02 27.88 22.07 27.78 22.12C27.68 22.16 27.42 22.22 27.2 22.24C26.98 22.26 26.73 22.31 26.64 22.35C26.47 22.42 25.93 22.5 25.65 22.5C25.55 22.5 25.31 22.54 25.12 22.59C24.35 22.79 19.56 22.8 18.86 22.61C18.73 22.58 18.46 22.54 18.25 22.53C17.85 22.5 17.41 22.43 17.29 22.37C17.25 22.35 17 22.3 16.73 22.26C16.47 22.22 16.2 22.17 16.13 22.13C16.07 22.1 15.88 22.05 15.71 22.03C15.54 22.01 15.33 21.95 15.24 21.91C15.16 21.86 15 21.81 14.89 21.79C14.78 21.78 14.64 21.73 14.57 21.69C14.5 21.66 14.31 21.59 14.16 21.55C13.75 21.44 13.33 21.29 13.2 21.2C13.14 21.16 13 21.11 12.89 21.08C12.78 21.05 12.67 21 12.65 20.97C12.62 20.94 12.58 20.91 12.55 20.91C12.5 20.91 11.87 20.6 11.51 20.39C11.39 20.32 11.24 20.24 11.19 20.21C11.13 20.18 10.96 20.08 10.83 19.98C10.69 19.89 10.5 19.76 10.41 19.7C10.01 19.45 9.14 18.66 8.8 18.24C8.6 18 8.35 17.83 8.32 17.91C8.3 17.94 8.3 19.01 8.31 20.29C8.33 22.78 8.36 23.21 8.6 23.6C8.64 23.67 8.7 23.81 8.73 23.9C8.76 24 8.82 24.12 8.86 24.18C8.91 24.24 8.94 24.3 8.94 24.33C8.94 24.43 9.58 25.21 10 25.62C10.53 26.14 11.2 26.64 11.83 27.01C11.94 27.07 12.12 27.17 12.24 27.24C12.36 27.31 12.5 27.39 12.56 27.42C12.62 27.44 12.77 27.51 12.89 27.57C13.49 27.85 13.68 27.93 13.74 27.93C13.77 27.93 13.88 27.98 13.99 28.04C14.1 28.09 14.26 28.15 14.35 28.17C14.45 28.19 14.59 28.24 14.68 28.28C14.76 28.32 14.91 28.37 15 28.39C15.09 28.4 15.24 28.45 15.33 28.5C15.42 28.54 15.63 28.61 15.81 28.64C15.98 28.67 16.19 28.73 16.27 28.77C16.35 28.8 16.58 28.85 16.78 28.88C16.97 28.91 17.23 28.96 17.36 29.01C17.49 29.05 17.75 29.1 17.93 29.12C18.12 29.13 18.46 29.18 18.68 29.23C19.89 29.48 24.38 29.49 25.4 29.25C25.56 29.22 25.9 29.16 26.15 29.14C26.41 29.11 26.68 29.06 26.74 29.03C26.81 29 27.06 28.94 27.3 28.9C27.54 28.87 27.79 28.81 27.85 28.78C27.92 28.74 28.11 28.7 28.29 28.67C28.47 28.64 28.65 28.59 28.7 28.56C28.75 28.53 28.87 28.48 28.98 28.45C29.09 28.42 29.3 28.35 29.44 28.3C29.59 28.24 29.75 28.19 29.79 28.19C29.83 28.19 29.95 28.14 30.07 28.08C30.18 28.02 30.29 27.98 30.32 27.98C30.35 27.98 30.48 27.93 30.59 27.87C30.71 27.82 30.92 27.72 31.05 27.66C31.6 27.41 31.54 27.44 32.28 27.02C32.4 26.95 32.57 26.84 32.66 26.77C32.76 26.7 32.89 26.61 32.97 26.57C33.54 26.25 35 24.74 35.12 24.35C35.14 24.3 35.19 24.21 35.23 24.16C35.27 24.12 35.32 24.02 35.34 23.95C35.35 23.88 35.41 23.75 35.46 23.67C35.52 23.58 35.58 23.42 35.59 23.3C35.61 23.18 35.66 23.02 35.69 22.93C35.78 22.75 35.83 17.88 35.74 17.72C35.68 17.6 35.66 17.61 35.44 17.87M35.7 19.99C35.7 21.15 35.68 22.21 35.66 22.35C35.56 23.02 35.48 23.39 35.4 23.53C35.35 23.61 35.31 23.7 35.31 23.72C35.31 23.82 35.15 24.11 34.85 24.58C34.46 25.19 33.46 26.15 32.89 26.47C32.8 26.51 32.72 26.58 32.7 26.61C32.68 26.65 32.6 26.71 32.51 26.74C32.33 26.83 32.07 26.99 31.97 27.08C31.92 27.11 31.83 27.16 31.76 27.18C31.69 27.19 31.58 27.25 31.51 27.31C31.44 27.37 31.35 27.42 31.31 27.42C31.27 27.42 31.16 27.46 31.08 27.52C31 27.58 30.86 27.64 30.78 27.65C30.7 27.67 30.56 27.73 30.47 27.78C30.37 27.84 30.23 27.9 30.14 27.91C30.06 27.93 29.95 27.98 29.9 28.02C29.84 28.06 29.71 28.11 29.59 28.13C29.48 28.14 29.32 28.19 29.24 28.24C29.16 28.28 28.97 28.34 28.83 28.36C28.69 28.39 28.54 28.44 28.5 28.47C28.46 28.51 28.26 28.56 28.04 28.6C27.83 28.63 27.61 28.68 27.55 28.72C27.5 28.76 27.26 28.8 27.01 28.83C26.77 28.85 26.51 28.9 26.43 28.94C26.35 28.98 26.07 29.03 25.69 29.06C25.35 29.08 24.98 29.13 24.87 29.17C24.58 29.27 19.69 29.29 19.64 29.19C19.57 29.09 19.2 29.01 18.78 29.01C18.42 29.01 18.36 29 18.2 28.89C18.1 28.83 17.91 28.72 17.78 28.65C17.65 28.58 17.48 28.47 17.41 28.41C17.34 28.34 17.23 28.26 17.17 28.23C17.05 28.17 16.87 28.03 16.58 27.78C16.47 27.68 16.32 27.57 16.25 27.53C16 27.4 14.18 25.48 13.94 25.1C13.9 25.04 13.83 24.94 13.77 24.89C13.72 24.85 13.61 24.68 13.53 24.52C13.45 24.36 13.36 24.22 13.34 24.21C13.1 24.06 12.31 22.37 12.01 21.35C11.96 21.21 11.91 21.06 11.9 21.04C11.88 21.01 11.96 21 12.13 21C12.34 21 12.39 21.01 12.39 21.06C12.39 21.14 12.56 21.21 12.76 21.21C12.86 21.21 12.91 21.23 12.91 21.27C12.91 21.36 12.96 21.39 13.26 21.43C13.42 21.45 13.54 21.49 13.57 21.54C13.61 21.58 13.73 21.62 13.89 21.65C14.04 21.67 14.21 21.72 14.28 21.77C14.34 21.82 14.52 21.87 14.67 21.9C14.82 21.92 14.98 21.97 15.02 22.01C15.06 22.04 15.24 22.09 15.44 22.11C15.64 22.13 15.84 22.18 15.9 22.22C15.97 22.26 16.18 22.31 16.45 22.33C16.69 22.36 16.93 22.41 16.98 22.44C17.05 22.49 17.31 22.53 17.68 22.57C18.01 22.6 18.34 22.65 18.4 22.68C18.71 22.79 21.68 22.91 22.84 22.85C24.65 22.75 25.14 22.72 25.4 22.65C25.55 22.62 25.87 22.57 26.11 22.54C26.35 22.52 26.66 22.46 26.8 22.42C26.95 22.37 27.23 22.31 27.43 22.29C27.63 22.26 27.84 22.21 27.9 22.18C27.96 22.15 28.14 22.1 28.29 22.07C28.56 22.03 28.97 21.9 29.54 21.7C29.69 21.65 29.9 21.58 29.99 21.56C30.09 21.53 30.24 21.48 30.34 21.43C30.43 21.38 30.55 21.34 30.6 21.34C30.65 21.34 30.75 21.29 30.83 21.23C30.91 21.17 31.01 21.12 31.04 21.12C31.1 21.12 31.55 20.93 31.76 20.81C31.81 20.79 31.93 20.72 32.04 20.66C32.15 20.6 32.34 20.5 32.48 20.42C32.61 20.35 32.8 20.24 32.9 20.18C33 20.13 33.12 20.05 33.17 20C33.22 19.96 33.28 19.92 33.3 19.92C33.32 19.92 33.4 19.87 33.48 19.81C33.55 19.75 33.79 19.56 34.01 19.4C34.41 19.09 35.07 18.47 35.29 18.18C35.36 18.09 35.43 18.02 35.46 18.02C35.49 18.02 35.54 17.99 35.57 17.96C35.6 17.92 35.64 17.89 35.66 17.89C35.68 17.89 35.7 18.82 35.7 19.99" id="aiYLxAUl0"></path><path d="M20.53 7.43C19.74 7.46 19.34 7.49 18.9 7.57C18.58 7.63 18.16 7.69 17.97 7.71C17.79 7.72 17.52 7.77 17.39 7.81C17.26 7.85 17.03 7.9 16.87 7.92C16.72 7.93 16.45 7.99 16.27 8.05C16.09 8.11 15.83 8.18 15.69 8.22C15.43 8.28 15.18 8.35 14.8 8.48C14.7 8.52 14.5 8.58 14.37 8.62C14.24 8.65 14.09 8.72 14.04 8.76C13.99 8.8 13.87 8.85 13.79 8.86C13.71 8.88 13.55 8.94 13.44 9C13.33 9.06 13.21 9.1 13.17 9.1C13.13 9.1 13.03 9.15 12.95 9.21C12.87 9.26 12.73 9.33 12.64 9.36C12.55 9.39 12.47 9.43 12.45 9.45C12.44 9.48 12.33 9.54 12.2 9.6C11.86 9.77 11.73 9.84 11.64 9.92C11.59 9.96 11.5 10.02 11.44 10.06C10.69 10.45 8.94 12.16 8.94 12.5C8.94 12.52 8.9 12.6 8.84 12.68C8.78 12.76 8.72 12.88 8.7 12.95C8.69 13.03 8.64 13.14 8.59 13.2C8.52 13.31 8.44 13.64 8.33 14.35C8.27 14.72 8.41 15.6 8.59 16C8.84 16.54 8.97 16.79 9.08 16.94C9.15 17.02 9.2 17.1 9.2 17.12C9.2 17.22 9.73 17.79 10.27 18.28C10.55 18.53 10.6 18.57 10.96 18.83C11.09 18.92 11.26 19.05 11.34 19.11C11.43 19.18 11.52 19.23 11.54 19.23C11.57 19.23 11.62 19.26 11.66 19.29C11.75 19.37 12.07 19.56 12.33 19.68C12.46 19.74 12.57 19.8 12.58 19.83C12.6 19.85 12.68 19.89 12.77 19.92C12.86 19.94 12.98 20 13.03 20.04C13.09 20.09 13.19 20.14 13.27 20.16C13.34 20.17 13.5 20.23 13.61 20.29C13.72 20.35 13.85 20.39 13.89 20.39C13.93 20.39 14.02 20.43 14.1 20.47C14.17 20.52 14.35 20.59 14.5 20.62C14.64 20.66 14.81 20.72 14.86 20.75C14.91 20.79 15.07 20.84 15.21 20.87C15.36 20.9 15.52 20.95 15.58 20.98C15.65 21.01 15.83 21.06 15.99 21.08C16.16 21.11 16.39 21.17 16.51 21.21C16.62 21.26 16.92 21.32 17.16 21.36C17.41 21.4 17.64 21.44 17.69 21.47C17.73 21.49 18 21.53 18.28 21.56C18.56 21.58 18.95 21.63 19.16 21.67C20.32 21.86 23.92 21.87 24.76 21.68C24.86 21.66 25.23 21.61 25.58 21.58C25.92 21.54 26.28 21.49 26.38 21.45C26.48 21.42 26.74 21.37 26.95 21.34C27.17 21.32 27.41 21.26 27.48 21.23C27.55 21.19 27.76 21.13 27.94 21.1C28.12 21.06 28.37 21 28.5 20.95C28.62 20.9 28.76 20.87 28.81 20.87C28.86 20.87 29.04 20.81 29.2 20.74C29.37 20.67 29.54 20.61 29.58 20.61C29.62 20.61 29.74 20.56 29.86 20.5C29.98 20.44 30.11 20.39 30.14 20.39C30.18 20.39 30.3 20.35 30.4 20.29C30.51 20.23 30.66 20.17 30.73 20.16C30.8 20.14 30.93 20.08 31.01 20.02C31.09 19.97 31.17 19.92 31.2 19.92C31.26 19.92 31.88 19.61 31.98 19.53C32.04 19.48 32.08 19.45 32.47 19.23C32.58 19.18 32.69 19.11 32.72 19.07C32.75 19.04 32.82 18.99 32.86 18.97C32.91 18.94 32.98 18.89 33.02 18.86C33.06 18.82 33.21 18.71 33.35 18.61C33.84 18.25 34.65 17.41 34.9 16.99C34.95 16.91 35.03 16.78 35.09 16.69C35.33 16.31 35.49 15.88 35.6 15.35C35.75 14.61 35.66 13.61 35.41 13.19C35.36 13.11 35.31 12.99 35.3 12.93C35.27 12.82 35.22 12.73 34.91 12.25C34.66 11.86 33.88 11.02 33.43 10.66C33.1 10.4 32.94 10.28 32.81 10.2C32.73 10.16 32.6 10.08 32.53 10.03C32.4 9.95 32.32 9.9 32.04 9.71C31.98 9.67 31.86 9.61 31.78 9.58C31.7 9.55 31.6 9.49 31.56 9.46C31.53 9.43 31.43 9.38 31.35 9.36C31.27 9.33 31.14 9.26 31.05 9.2C30.97 9.15 30.88 9.1 30.84 9.1C30.8 9.1 30.68 9.06 30.56 9C30.45 8.94 30.33 8.89 30.3 8.89C30.27 8.89 30.13 8.83 30 8.77C29.88 8.7 29.69 8.63 29.6 8.61C29.51 8.59 29.37 8.54 29.28 8.5C29.2 8.46 29.05 8.41 28.94 8.39C28.84 8.38 28.67 8.33 28.58 8.28C28.48 8.24 28.3 8.19 28.18 8.17C28.06 8.16 27.85 8.1 27.71 8.05C27.57 7.99 27.33 7.94 27.19 7.92C27.05 7.91 26.8 7.86 26.63 7.81C26.47 7.76 26.13 7.71 25.88 7.69C25.63 7.66 25.3 7.61 25.15 7.58C24.58 7.44 22.24 7.37 20.53 7.43M23.49 7.51C24.31 7.54 24.66 7.57 24.8 7.62C24.91 7.66 25.27 7.71 25.6 7.73C26.01 7.76 26.26 7.8 26.4 7.86C26.51 7.9 26.76 7.95 26.96 7.97C27.19 7.98 27.4 8.03 27.54 8.09C27.65 8.15 27.88 8.2 28.03 8.22C28.19 8.24 28.37 8.29 28.44 8.33C28.51 8.37 28.69 8.43 28.85 8.45C29 8.48 29.15 8.53 29.19 8.56C29.23 8.59 29.37 8.64 29.51 8.67C29.65 8.69 29.81 8.75 29.87 8.8C29.93 8.85 30.05 8.9 30.14 8.91C30.22 8.93 30.35 8.98 30.41 9.02C30.47 9.06 30.62 9.12 30.73 9.15C30.85 9.18 30.97 9.24 31.02 9.28C31.06 9.32 31.17 9.38 31.26 9.4C31.35 9.43 31.45 9.48 31.48 9.51C31.51 9.55 31.61 9.6 31.7 9.63C31.79 9.65 31.9 9.71 31.94 9.76C31.98 9.8 32.03 9.84 32.06 9.84C32.09 9.84 32.19 9.89 32.28 9.97C32.37 10.04 32.46 10.09 32.5 10.09C32.53 10.09 32.6 10.14 32.67 10.2C32.73 10.26 32.8 10.31 32.82 10.31C32.83 10.31 32.93 10.38 33.03 10.46C33.13 10.54 33.23 10.61 33.24 10.61C33.31 10.61 34.23 11.5 34.45 11.77C34.51 11.85 34.59 11.94 34.64 11.98C34.68 12.02 34.74 12.12 34.78 12.2C34.81 12.28 34.88 12.38 34.92 12.41C34.97 12.44 35.02 12.52 35.03 12.59C35.05 12.66 35.1 12.75 35.14 12.79C35.19 12.83 35.24 12.93 35.25 13.02C35.27 13.11 35.31 13.23 35.36 13.29C35.6 13.63 35.62 15.6 35.38 15.87C35.35 15.9 35.3 16.02 35.27 16.12C35.25 16.22 35.18 16.37 35.12 16.46C35.06 16.54 35.01 16.65 35.01 16.69C35.01 16.73 34.96 16.8 34.9 16.83C34.84 16.87 34.8 16.93 34.8 16.96C34.8 17.08 33.99 18.02 33.89 18.02C33.87 18.02 33.84 18.06 33.83 18.11C33.81 18.16 33.78 18.2 33.75 18.2C33.72 18.2 33.65 18.24 33.59 18.3C33.41 18.48 33.19 18.65 33.05 18.73C32.97 18.76 32.9 18.82 32.89 18.86C32.87 18.9 32.83 18.93 32.8 18.93C32.77 18.93 32.71 18.96 32.67 19.01C32.63 19.05 32.53 19.12 32.46 19.15C32.38 19.18 32.26 19.25 32.2 19.3C32.13 19.36 32.05 19.4 32.02 19.4C31.99 19.4 31.9 19.45 31.84 19.5C31.77 19.56 31.64 19.63 31.56 19.66C31.47 19.68 31.38 19.74 31.35 19.77C31.32 19.8 31.22 19.85 31.12 19.88C31.02 19.9 30.9 19.96 30.85 20.01C30.81 20.05 30.7 20.1 30.61 20.11C30.52 20.13 30.4 20.18 30.35 20.22C30.29 20.26 30.15 20.32 30.04 20.35C29.92 20.38 29.76 20.43 29.69 20.48C29.62 20.52 29.47 20.57 29.36 20.58C29.25 20.6 29.11 20.65 29.05 20.69C29 20.74 28.82 20.8 28.67 20.82C28.51 20.85 28.3 20.9 28.2 20.95C28.1 20.99 27.89 21.04 27.75 21.06C27.61 21.08 27.41 21.13 27.31 21.18C27.2 21.22 26.94 21.28 26.71 21.3C26.48 21.33 26.23 21.37 26.14 21.41C26.05 21.45 25.74 21.49 25.4 21.52C24.71 21.56 24.53 21.58 24.11 21.67C23.64 21.77 20.34 21.77 19.93 21.67C19.61 21.6 19.36 21.57 18.57 21.51C18.24 21.49 17.95 21.45 17.85 21.41C17.76 21.37 17.51 21.32 17.29 21.3C17.06 21.28 16.81 21.22 16.7 21.17C16.59 21.12 16.38 21.07 16.24 21.06C16.1 21.04 15.91 20.99 15.81 20.95C15.72 20.91 15.51 20.85 15.35 20.82C15.17 20.8 15.02 20.74 14.97 20.69C14.92 20.65 14.79 20.6 14.68 20.59C14.57 20.57 14.39 20.52 14.29 20.46C14.18 20.41 14.02 20.35 13.92 20.33C13.83 20.31 13.71 20.26 13.65 20.22C13.6 20.18 13.48 20.13 13.4 20.11C13.31 20.1 13.18 20.04 13.11 19.98C13.04 19.92 12.94 19.88 12.89 19.88C12.84 19.88 12.73 19.83 12.65 19.77C12.57 19.71 12.45 19.65 12.39 19.64C12.32 19.62 12.24 19.58 12.21 19.53C12.18 19.49 12.08 19.43 11.99 19.4C11.9 19.37 11.82 19.32 11.8 19.29C11.79 19.26 11.71 19.21 11.61 19.17C11.52 19.13 11.41 19.06 11.36 19.01C11.31 18.97 11.24 18.93 11.21 18.93C11.18 18.93 11.12 18.88 11.08 18.82C11.04 18.76 10.99 18.71 10.97 18.71C10.93 18.71 10.56 18.46 10.47 18.37C10.45 18.34 10.4 18.3 10.37 18.27C10.34 18.24 10.26 18.16 10.2 18.1C10.14 18.03 10.07 17.98 10.04 17.98C10.01 17.98 9.97 17.94 9.96 17.89C9.94 17.84 9.88 17.78 9.82 17.75C9.77 17.73 9.72 17.68 9.72 17.65C9.72 17.62 9.68 17.56 9.62 17.52C9.57 17.48 9.48 17.38 9.44 17.3C9.39 17.22 9.34 17.16 9.33 17.16C9.31 17.16 9.28 17.11 9.25 17.04C9.22 16.97 9.15 16.87 9.09 16.82C9.03 16.77 8.99 16.69 8.99 16.65C8.99 16.6 8.94 16.51 8.88 16.44C8.82 16.37 8.77 16.27 8.77 16.23C8.77 16.19 8.72 16.04 8.65 15.89C8.39 15.35 8.38 13.69 8.63 13.34C8.68 13.27 8.74 13.14 8.75 13.06C8.77 12.97 8.82 12.85 8.86 12.8C8.9 12.74 8.97 12.63 9 12.54C9.04 12.45 9.09 12.38 9.11 12.38C9.14 12.38 9.19 12.31 9.23 12.22C9.26 12.13 9.33 12.04 9.38 12C9.42 11.97 9.46 11.92 9.46 11.88C9.46 11.85 9.51 11.79 9.57 11.75C9.63 11.71 9.68 11.66 9.68 11.64C9.68 11.6 10.17 11.11 10.41 10.91C10.48 10.85 10.6 10.75 10.67 10.69C10.74 10.62 10.82 10.57 10.84 10.57C10.87 10.57 10.95 10.51 11.02 10.44C11.09 10.37 11.18 10.31 11.21 10.31C11.23 10.31 11.3 10.26 11.35 10.2C11.4 10.14 11.47 10.09 11.5 10.09C11.53 10.09 11.63 10.04 11.73 9.97C11.82 9.9 11.92 9.84 11.94 9.84C11.97 9.84 12.02 9.8 12.06 9.75C12.11 9.71 12.19 9.66 12.25 9.64C12.32 9.63 12.44 9.57 12.52 9.51C12.6 9.46 12.73 9.4 12.81 9.38C12.89 9.37 12.98 9.32 13.01 9.28C13.04 9.24 13.15 9.18 13.27 9.15C13.38 9.12 13.53 9.06 13.59 9.02C13.65 8.98 13.78 8.93 13.88 8.91C13.97 8.89 14.09 8.85 14.14 8.8C14.18 8.76 14.34 8.7 14.48 8.68C14.61 8.65 14.79 8.59 14.86 8.55C14.94 8.51 15.09 8.46 15.2 8.44C15.32 8.43 15.48 8.38 15.57 8.33C15.66 8.29 15.88 8.23 16.07 8.2C16.26 8.18 16.45 8.12 16.49 8.08C16.54 8.04 16.71 8 16.97 7.98C17.19 7.96 17.47 7.9 17.61 7.86C17.75 7.8 18.06 7.75 18.42 7.73C18.74 7.7 19.1 7.65 19.22 7.62C19.6 7.5 21.68 7.44 23.49 7.51M35.57 17.96C35.54 17.99 35.49 18.02 35.46 18.02C35.43 18.02 35.36 18.09 35.29 18.18C35.07 18.47 34.41 19.09 34.01 19.4C33.79 19.56 33.55 19.75 33.48 19.81C33.4 19.87 33.32 19.92 33.3 19.92C33.28 19.92 33.22 19.96 33.17 20C33.12 20.05 33 20.13 32.9 20.18C32.8 20.24 32.61 20.35 32.48 20.42C32.34 20.5 32.15 20.6 32.04 20.66C31.93 20.72 31.81 20.79 31.76 20.81C31.55 20.93 31.1 21.12 31.04 21.12C31.01 21.12 30.91 21.17 30.83 21.23C30.75 21.29 30.65 21.34 30.6 21.34C30.55 21.34 30.43 21.38 30.34 21.43C30.24 21.48 30.09 21.53 29.99 21.56C29.9 21.58 29.69 21.65 29.54 21.7C28.97 21.9 28.56 22.03 28.29 22.07C28.14 22.1 27.96 22.15 27.9 22.18C27.84 22.21 27.63 22.26 27.43 22.29C27.23 22.31 26.95 22.37 26.8 22.42C26.66 22.46 26.35 22.52 26.11 22.54C25.87 22.57 25.55 22.62 25.4 22.65C25.14 22.72 24.65 22.75 22.84 22.85C21.68 22.91 18.71 22.79 18.4 22.68C18.34 22.65 18.01 22.6 17.68 22.57C17.31 22.53 17.05 22.49 16.98 22.44C16.93 22.41 16.69 22.36 16.45 22.33C16.18 22.31 15.97 22.26 15.9 22.22C15.84 22.18 15.64 22.13 15.44 22.11C15.24 22.09 15.06 22.04 15.02 22.01C14.98 21.97 14.82 21.92 14.67 21.9C14.52 21.87 14.34 21.82 14.28 21.77C14.21 21.72 14.04 21.67 13.89 21.65C13.73 21.62 13.61 21.58 13.57 21.54C13.54 21.49 13.42 21.45 13.26 21.43C12.96 21.39 12.91 21.36 12.91 21.27C12.91 21.23 12.86 21.21 12.76 21.21C12.56 21.21 12.39 21.14 12.39 21.06C12.39 21.01 12.34 21 12.13 21C11.96 21 11.88 21.01 11.9 21.04C11.91 21.06 11.96 21.21 12.01 21.35C12.31 22.37 13.1 24.06 13.34 24.21C13.36 24.22 13.45 24.36 13.53 24.52C13.61 24.68 13.72 24.85 13.77 24.89C13.83 24.94 13.9 25.04 13.94 25.1C14.18 25.48 16 27.4 16.25 27.53C16.32 27.57 16.47 27.68 16.58 27.78C16.87 28.03 17.05 28.17 17.17 28.23C17.23 28.26 17.34 28.34 17.41 28.41C17.48 28.47 17.65 28.58 17.78 28.65C17.91 28.72 18.1 28.83 18.2 28.89C18.36 29 18.42 29.01 18.78 29.01C19.2 29.01 19.57 29.09 19.64 29.19C19.69 29.29 24.58 29.27 24.87 29.17C24.98 29.13 25.35 29.08 25.69 29.06C26.07 29.03 26.35 28.98 26.43 28.94C26.51 28.9 26.77 28.85 27.01 28.83C27.26 28.8 27.5 28.76 27.55 28.72C27.61 28.68 27.83 28.63 28.04 28.6C28.26 28.56 28.46 28.51 28.5 28.47C28.54 28.44 28.69 28.39 28.83 28.36C28.97 28.34 29.16 28.28 29.24 28.24C29.32 28.19 29.48 28.14 29.59 28.13C29.71 28.11 29.84 28.06 29.9 28.02C29.95 27.98 30.06 27.93 30.14 27.91C30.23 27.9 30.37 27.84 30.47 27.78C30.56 27.73 30.7 27.67 30.78 27.65C30.86 27.64 31 27.58 31.08 27.52C31.16 27.46 31.27 27.42 31.31 27.42C31.35 27.42 31.44 27.37 31.51 27.31C31.58 27.25 31.69 27.19 31.76 27.18C31.83 27.16 31.92 27.11 31.97 27.08C32.07 26.99 32.33 26.83 32.51 26.74C32.6 26.71 32.68 26.65 32.7 26.61C32.72 26.58 32.8 26.51 32.89 26.47C33.46 26.15 34.46 25.19 34.85 24.58C35.15 24.11 35.31 23.82 35.31 23.72C35.31 23.7 35.35 23.61 35.4 23.53C35.48 23.39 35.56 23.02 35.66 22.35C35.71 22.02 35.71 17.89 35.66 17.89C35.64 17.89 35.6 17.92 35.57 17.96M35.53 18.26C35.65 18.85 35.48 23.16 35.33 23.34C35.27 23.41 35.23 23.51 35.23 23.61C35.23 23.71 35.19 23.79 35.12 23.86C35.05 23.93 35 24.03 34.98 24.14C34.96 24.27 34.94 24.31 34.87 24.32C34.81 24.33 34.77 24.37 34.76 24.43C34.75 24.49 34.7 24.55 34.64 24.57C34.58 24.59 34.54 24.64 34.54 24.67C34.54 24.73 34.34 24.99 34.14 25.18C34.07 25.24 34.02 25.31 34.02 25.34C34.02 25.37 33.81 25.5 33.47 25.69C33.4 25.72 33.33 25.78 33.31 25.81C33.25 25.89 31.54 26.46 31.37 26.47C31.29 26.47 31.15 26.5 31.04 26.54C30.83 26.61 30.49 26.68 30.01 26.73C29.84 26.75 29.51 26.79 29.28 26.82C29.06 26.84 28.59 26.87 28.25 26.87C27.9 26.87 27.44 26.84 27.21 26.82C26.99 26.79 26.66 26.75 26.48 26.73C26.01 26.68 25.67 26.61 25.45 26.54C25.35 26.5 25.21 26.47 25.14 26.47C24.86 26.47 23.27 25.89 22.62 25.55C22.53 25.51 22.25 25.36 22 25.23C21.75 25.1 21.48 24.93 21.39 24.86C21.31 24.78 21.18 24.69 21.11 24.65C20.67 24.38 20.2 23.96 19.4 23.11C19.38 23.1 19.3 23.01 19.15 22.85C19.37 22.85 19.49 22.85 19.51 22.85C19.84 22.85 19.88 22.86 19.94 22.95C20.05 23.11 23.13 23.09 23.7 22.92C23.83 22.88 24.24 22.84 24.74 22.81C25.33 22.78 25.6 22.75 25.73 22.7C25.82 22.66 26.11 22.61 26.37 22.59C26.89 22.54 26.99 22.52 27.08 22.44C27.12 22.41 27.33 22.36 27.54 22.34C27.76 22.31 28.01 22.26 28.1 22.21C28.19 22.17 28.39 22.12 28.54 22.1C28.69 22.09 28.89 22.04 28.97 21.99C29.06 21.94 29.24 21.88 29.37 21.85C29.5 21.83 29.64 21.78 29.67 21.74C29.71 21.71 29.86 21.66 30 21.64C30.14 21.61 30.3 21.56 30.37 21.51C30.43 21.47 30.56 21.42 30.66 21.4C30.76 21.38 30.88 21.34 30.92 21.29C30.97 21.25 31.08 21.19 31.19 21.17C31.29 21.14 31.4 21.09 31.44 21.06C31.47 21.02 31.59 20.97 31.69 20.93C31.79 20.9 31.92 20.83 31.98 20.78C32.04 20.73 32.12 20.69 32.16 20.69C32.19 20.69 32.28 20.65 32.35 20.6C32.43 20.54 32.56 20.47 32.65 20.43C32.74 20.39 32.81 20.34 32.81 20.32C32.81 20.29 32.89 20.25 32.99 20.22C33.09 20.19 33.18 20.13 33.2 20.09C33.23 20.05 33.3 19.99 33.37 19.97C33.45 19.94 33.5 19.9 33.5 19.88C33.5 19.85 33.57 19.8 33.66 19.77C33.82 19.7 33.86 19.67 34.14 19.4C34.21 19.33 34.29 19.27 34.32 19.27C34.34 19.27 34.4 19.22 34.43 19.16C34.47 19.11 34.53 19.06 34.57 19.06C34.6 19.06 34.65 19.01 34.67 18.95C34.7 18.9 34.77 18.83 34.82 18.8C34.88 18.78 34.93 18.73 34.93 18.7C34.93 18.67 34.97 18.62 35.03 18.59C35.09 18.57 35.15 18.51 35.16 18.46C35.18 18.41 35.22 18.36 35.27 18.35C35.31 18.33 35.36 18.27 35.38 18.21C35.41 18.07 35.5 18.1 35.53 18.26" id="belQudvei"></path></defs><g><g><g><use xlink:href="#a2IUNmSdEs" opacity="1" fill="#e52602" fill-opacity="1"></use><g><use xlink:href="#a2IUNmSdEs" opacity="1" fill-opacity="0" stroke="#000000" stroke-width="0.99" stroke-opacity="1"></use></g></g><g><use xlink:href="#kXsqxkPpT" opacity="1" fill="#8e2210" fill-opacity="1"></use><g><use xlink:href="#kXsqxkPpT" opacity="1" fill-opacity="0" stroke="#000000" stroke-width="1" stroke-opacity="0"></use></g></g><g><use xlink:href="#hsYTck6VR" opacity="1" fill="#0a0707" fill-opacity="1"></use><g><use xlink:href="#hsYTck6VR" opacity="1" fill-opacity="0" stroke="#000000" stroke-width="1" stroke-opacity="0"></use></g></g><g><use xlink:href="#ghwnbbVqv" opacity="1" fill="#f8f8f8" fill-opacity="1"></use><g><use xlink:href="#ghwnbbVqv" opacity="1" fill-opacity="0" stroke="#000000" stroke-width="1" stroke-opacity="0"></use></g></g><g><use xlink:href="#aiYLxAUl0" opacity="1" fill="#7c7c7c" fill-opacity="1"></use><g><use xlink:href="#aiYLxAUl0" opacity="1" fill-opacity="0" stroke="#000000" stroke-width="1" stroke-opacity="0"></use></g></g><g><use xlink:href="#belQudvei" opacity="1" fill="#959595" fill-opacity="1"></use><g><use xlink:href="#belQudvei" opacity="1" fill-opacity="0" stroke="#000000" stroke-width="1" stroke-opacity="0"></use></g></g></g></g></svg>